<svg width="51" height="51" viewBox="0 0 51 51" fill="none" xmlns="http://www.w3.org/2000/svg">
<path d="M30.6691 3.55167C30.7383 3.29277 30.8579 3.05005 31.021 2.83738C31.1841 2.62472 31.3875 2.44627 31.6196 2.31223C31.8516 2.1782 32.1078 2.0912 32.3736 2.05622C32.6393 2.02124 32.9093 2.03895 33.1681 2.10835C36.95 3.09508 40.4004 5.07211 43.1641 7.8358C45.9278 10.5995 47.9048 14.05 48.8915 17.8318C48.9609 18.0907 48.9786 18.3607 48.9437 18.6264C48.9087 18.8921 48.8217 19.1483 48.6876 19.3804C48.5536 19.6124 48.3752 19.8158 48.1625 19.9789C47.9498 20.142 47.7071 20.2616 47.4482 20.3308C47.2759 20.3761 47.0985 20.3992 46.9204 20.3997C46.4711 20.3998 46.0345 20.2517 45.678 19.9783C45.3216 19.7048 45.0654 19.3214 44.9492 18.8875C44.1448 15.7998 42.5315 12.9825 40.2755 10.726C38.0195 8.46957 35.2025 6.85567 32.115 6.05069C31.8558 5.98172 31.6128 5.86233 31.3999 5.69936C31.1869 5.5364 31.0082 5.33305 30.8739 5.10094C30.7396 4.86884 30.6524 4.61254 30.6173 4.3467C30.5821 4.08086 30.5997 3.8107 30.6691 3.55167ZM30.0749 14.2108C33.5914 15.1492 35.8507 17.4111 36.7891 20.9275C36.9054 21.3614 37.1616 21.7449 37.518 22.0183C37.8744 22.2917 38.3111 22.4398 38.7603 22.4397C38.9385 22.4392 39.1158 22.4161 39.2882 22.3709C39.5471 22.3016 39.7898 22.182 40.0024 22.0189C40.2151 21.8559 40.3936 21.6525 40.5276 21.4204C40.6616 21.1883 40.7486 20.9321 40.7836 20.6664C40.8186 20.4007 40.8009 20.1307 40.7315 19.8718C39.4259 14.986 36.0139 11.574 31.1281 10.2684C30.8692 10.1993 30.5993 10.1818 30.3337 10.217C30.0681 10.2521 29.812 10.3393 29.58 10.4734C29.3481 10.6076 29.1449 10.7861 28.9819 10.9988C28.819 11.2115 28.6995 11.4542 28.6304 11.713C28.5612 11.9719 28.5437 12.2418 28.5789 12.5074C28.6141 12.7731 28.7012 13.0291 28.8353 13.2611C28.9695 13.493 29.148 13.6963 29.3607 13.8592C29.5734 14.0222 29.8161 14.1416 30.0749 14.2108ZM48.5447 34.2871L36.5316 28.904L36.4984 28.8887C35.8748 28.622 35.1945 28.5149 34.519 28.5773C33.8436 28.6396 33.1944 28.8693 32.6301 29.2457C32.5636 29.2896 32.4998 29.3373 32.4388 29.3885L26.2321 34.6798C22.2999 32.7699 18.2403 28.7408 16.3303 24.8597L21.6293 18.5586C21.6803 18.4948 21.7287 18.4311 21.7746 18.3622C22.1429 17.7994 22.3664 17.1543 22.4251 16.4843C22.4838 15.8143 22.376 15.1401 22.1112 14.5219V14.4913L16.7128 2.45771C16.3628 1.65002 15.761 0.977202 14.9972 0.539677C14.2333 0.102153 13.3485 -0.0766064 12.4747 0.0300843C9.01936 0.484771 5.84767 2.18171 3.55203 4.80397C1.25638 7.42623 -0.00622442 10.7945 2.30742e-05 14.2796C2.30742e-05 34.5268 16.4731 51 36.7203 51C40.2054 51.0062 43.5737 49.7436 46.1959 47.448C48.8182 45.1523 50.5151 41.9806 50.9698 38.5253C51.0767 37.6518 50.8983 36.7672 50.4612 36.0034C50.0242 35.2396 49.3519 34.6375 48.5447 34.2871Z" fill="white"/>
</svg>
