<?xml version="1.0" standalone="no"?>
<!DOCTYPE svg PUBLIC "-//W3C//DTD SVG 1.1//EN" "http://www.w3.org/Graphics/SVG/1.1/DTD/svg11.dtd" >
<svg xmlns="http://www.w3.org/2000/svg" xmlns:xlink="http://www.w3.org/1999/xlink" version="1.1">
<metadata>
Created by FontForge 20170924 at Thu Jun 18 15:26:56 2020
 By www-data
Created by gluk ( gluksza@wp.pl | www.glukfonts.pl )
</metadata>
<defs>
<font id="Resotho-Extralight" horiz-adv-x="908" >
  <font-face 
    font-family="Resotho Extralight"
    font-weight="200"
    font-stretch="normal"
    units-per-em="1000"
    panose-1="2 0 3 3 0 0 0 0 0 0"
    ascent="850"
    descent="-150"
    x-height="700"
    cap-height="700"
    bbox="-287 -200 1300 880"
    underline-thickness="50"
    underline-position="-100"
    stemh="55"
    stemv="61"
    unicode-range="U+001A-2212"
  />
<missing-glyph horiz-adv-x="448" 
d="M44 -200v1080h360v-1080h-360zM118 396l53 -54l-52 -52l53 -53l52 52l53 -53l53 53l-53 53l52 53l-53 53l-52 -52l-53 53z" />
    <glyph glyph-name=".notdef" horiz-adv-x="448" 
d="M44 -200v1080h360v-1080h-360zM118 396l53 -54l-52 -52l53 -53l52 52l53 -53l53 53l-53 53l52 53l-53 53l-52 -52l-53 53z" />
    <glyph glyph-name="uni001A" horiz-adv-x="10" 
 />
    <glyph glyph-name="space" unicode=" " horiz-adv-x="380" 
 />
    <glyph glyph-name="exclam" unicode="!" horiz-adv-x="116" 
d="M24 -2v68h68v-68h-68zM27 378v352h63v-352l-7 -164h-49z" />
    <glyph glyph-name="quotedbl" unicode="&#x22;" horiz-adv-x="243" 
d="M24 476l33 140h-27v84h68v-87l-45 -137h-29zM141 476l32 140h-26v84h68v-87l-45 -137h-29z" />
    <glyph glyph-name="numbersign" unicode="#" horiz-adv-x="490" 
d="M10 223v42h122l9 150h-121v42h123l8 152h41l-8 -152h135l8 152h41l-8 -152h120v-42h-122l-9 -150h121v-42h-123l-8 -152h-41l8 152h-135l-8 -152h-41l8 152h-120zM173 265h135l9 150h-135z" />
    <glyph glyph-name="dollar" unicode="$" horiz-adv-x="722" 
d="M13 129v60c108 -63 204 -100 318 -100c192 0 322 59 322 145c0 74 -50 111 -216 111c-22 0 -48 -1 -75 -2c-213 -9 -341 33 -341 143c0 98 118 163 305 170v112h58v-112c104 -2 190 -17 269 -58v-56c-87 50 -180 65 -292 65c-164 0 -282 -48 -282 -121
c0 -55 58 -102 282 -91c199 9 350 -16 350 -160c0 -108 -127 -184 -327 -195v-108h-58v106c-117 1 -210 36 -313 91z" />
    <glyph glyph-name="percent" unicode="%" horiz-adv-x="886" 
d="M6 510c0 110 90 200 200 200s200 -90 200 -200c0 -111 -90 -199 -200 -199s-200 88 -200 199zM55 510c0 -84 68 -150 151 -150s151 66 151 150s-68 152 -151 152s-151 -68 -151 -152zM136 93l586 545l28 -31l-586 -545zM480 189c0 110 90 200 200 200s200 -90 200 -200
c0 -111 -90 -199 -200 -199s-200 88 -200 199zM529 189c0 -84 68 -151 151 -151s151 67 151 151s-68 151 -151 151s-151 -67 -151 -151z" />
    <glyph glyph-name="ampersand" unicode="&#x26;" horiz-adv-x="809" 
d="M13 227c0 65 47 117 114 142c-56 28 -94 77 -94 137c0 96 135 161 285 161c86 0 159 -20 220 -45l44 16v-250h202l-12 -50h-190v-135c0 -69 61 -116 148 -116c27 0 49 2 69 7v-52c-21 -5 -44 -8 -71 -8c-82 0 -147 33 -179 88c-65 -45 -153 -88 -248 -88
c-151 0 -288 79 -288 193zM67 230c0 -73 98 -144 236 -144c50 0 127 15 229 85c-2 9 -3 19 -3 29v138h-307c-81 0 -155 -46 -155 -108zM88 504c0 -60 65 -116 153 -116h288v186c-63 26 -132 43 -211 43c-144 0 -230 -60 -230 -113z" />
    <glyph glyph-name="quotesingle" unicode="'" horiz-adv-x="128" 
d="M24 476l33 140h-27v84h68v-87l-45 -137h-29z" />
    <glyph glyph-name="parenleft" unicode="(" horiz-adv-x="404" 
d="M16 350c0 221 169 400 378 400v-51c-177 0 -321 -156 -321 -349s144 -349 321 -349v-51c-209 0 -378 179 -378 400z" />
    <glyph glyph-name="parenright" unicode=")" horiz-adv-x="404" 
d="M10 1c177 0 321 156 321 349s-144 349 -321 349v51c209 0 378 -179 378 -400s-169 -400 -378 -400v51z" />
    <glyph glyph-name="asterisk" unicode="*" horiz-adv-x="304" 
d="M3 612l14 37l115 -42v123h40v-123l115 42l14 -37l-117 -42l73 -99l-33 -25l-72 101l-72 -101l-33 25l73 99z" />
    <glyph glyph-name="plus" unicode="+" horiz-adv-x="550" 
d="M10 323v54h237v233h56v-233h237v-54h-237v-233h-56v233h-237z" />
    <glyph glyph-name="comma" unicode="," horiz-adv-x="110" 
d="M7 -140l32 140h-27v66h69v-69l-47 -137h-27z" />
    <glyph glyph-name="hyphen" unicode="-" horiz-adv-x="500" 
d="M10 323v54h480v-54h-480z" />
    <glyph glyph-name="period" unicode="." horiz-adv-x="108" 
d="M12 -2v68h68v-68h-68z" />
    <glyph glyph-name="slash" unicode="/" horiz-adv-x="467" 
d="M-1 0l400 700h68l-400 -700h-68z" />
    <glyph glyph-name="zero" unicode="0" horiz-adv-x="836" 
d="M18 350c0 213 160 360 400 360s400 -147 400 -360s-160 -360 -400 -360s-400 147 -400 360zM79 350c0 -182 134 -305 339 -305s339 123 339 305s-134 305 -339 305s-339 -123 -339 -305z" />
    <glyph glyph-name="one" unicode="1" horiz-adv-x="183" 
d="M8 627v53l76 20h39v-700h-61v641z" />
    <glyph glyph-name="two" unicode="2" horiz-adv-x="724" 
d="M14 0v42c0 398 633 303 633 473c0 85 -128 141 -262 141c-104 0 -227 -33 -319 -111v66c100 72 215 99 318 99c177 0 324 -78 324 -193c0 -239 -623 -116 -631 -462h625v-55h-688z" />
    <glyph glyph-name="three" unicode="3" horiz-adv-x="729" 
d="M16 72v63c104 -75 272 -90 321 -90c178 0 310 67 310 173c0 76 -143 127 -330 127h-63v51h130c157 0 237 50 237 121c0 62 -96 139 -290 139c-48 0 -192 -8 -293 -55v58c105 45 245 51 292 51c204 0 350 -82 350 -189c0 -76 -53 -128 -140 -154c106 -31 167 -85 167 -152
c0 -138 -158 -225 -370 -225c-48 0 -215 15 -321 82z" />
    <glyph glyph-name="four" unicode="4" horiz-adv-x="782" 
d="M8 169v42c204 120 301 316 301 418v71h59v-71c0 -124 -105 -297 -253 -409h433v250h58v-250h166v-51h-166v-169h-58v169h-540z" />
    <glyph glyph-name="five" unicode="5" horiz-adv-x="737" 
d="M22 69v59c66 -48 210 -86 298 -86c188 0 342 78 342 194c0 127 -133 194 -327 194c-64 0 -190 -17 -313 -93v363h648v-57l-200 6h-393v-229c69 32 177 61 263 61c212 0 383 -77 383 -246c0 -146 -178 -245 -402 -245c-87 0 -221 34 -299 79z" />
    <glyph glyph-name="six" unicode="6" horiz-adv-x="830" 
d="M18 350c0 215 165 360 410 360c115 0 233 -23 330 -84v-62c-92 65 -202 94 -325 94c-207 0 -347 -113 -357 -288c108 64 229 116 379 116c219 0 361 -114 361 -249c0 -136 -147 -247 -384 -247c-233 0 -414 160 -414 360zM79 312c23 -152 169 -270 352 -270
c215 0 325 99 325 196s-107 196 -302 196c-149 0 -260 -52 -375 -122z" />
    <glyph glyph-name="seven" unicode="7" horiz-adv-x="680" 
d="M10 645v55h651v-101c-228 -156 -340 -393 -340 -580v-19h-64v20c0 198 121 440 343 595v30h-590z" />
    <glyph glyph-name="eight" unicode="8" horiz-adv-x="862" 
d="M18 200c0 106 72 160 173 183c-73 24 -121 71 -121 148c0 113 144 179 361 179c218 0 361 -66 361 -179c0 -77 -47 -123 -120 -147c102 -23 172 -78 172 -184c0 -132 -162 -210 -413 -210c-249 0 -413 78 -413 210zM78 202c0 -88 114 -161 353 -161c241 0 353 73 353 161
c0 142 -168 151 -353 151c-183 0 -353 -9 -353 -151zM131 529c0 -99 110 -126 300 -126c156 0 300 14 300 126c0 69 -90 132 -300 132c-185 0 -300 -53 -300 -132z" />
    <glyph glyph-name="nine" unicode="9" horiz-adv-x="830" 
d="M14 463c0 136 147 247 384 247c233 0 414 -160 414 -360c0 -215 -165 -360 -410 -360c-115 0 -233 23 -330 84v62c92 -65 202 -94 325 -94c207 0 347 113 357 288c-108 -64 -229 -116 -379 -116c-219 0 -361 114 -361 249zM74 462c0 -97 107 -196 302 -196
c149 0 260 52 375 122c-23 152 -169 270 -352 270c-215 0 -325 -99 -325 -196z" />
    <glyph glyph-name="colon" unicode=":" horiz-adv-x="108" 
d="M12 -2v68h68v-68h-68zM12 454v68h68v-68h-68z" />
    <glyph glyph-name="semicolon" unicode=";" horiz-adv-x="110" 
d="M7 -140l32 140h-27v66h69v-69l-47 -137h-27zM13 454v68h68v-68h-68z" />
    <glyph glyph-name="less" unicode="&#x3c;" horiz-adv-x="422" 
d="M2 350l402 302v-65l-317 -237l317 -238v-64z" />
    <glyph glyph-name="equal" unicode="=" horiz-adv-x="500" 
d="M10 196v51h480v-51h-480zM10 453v51h480v-51h-480z" />
    <glyph glyph-name="greater" unicode="&#x3e;" horiz-adv-x="422" 
d="M18 46v65l317 237l-317 238v64l402 -302z" />
    <glyph glyph-name="question" unicode="?" horiz-adv-x="595" 
d="M10 599v62c51 34 135 70 255 70c258 0 318 -120 318 -210c0 -194 -299 -156 -299 -268v-39h-56v39c0 159 296 111 296 268c0 62 -39 157 -260 157c-132 0 -213 -46 -254 -79zM220 -2v68h68v-68h-68z" />
    <glyph glyph-name="at" unicode="@" horiz-adv-x="874" 
d="M26 350c0 213 189 386 421 386c243 0 401 -141 401 -355c0 -145 -99 -228 -171 -228c-30 0 -59 17 -76 44c-54 -48 -116 -52 -141 -52c-113 0 -190 53 -190 130c0 61 62 126 171 126c57 0 103 -16 144 -36v46c0 41 -41 92 -135 92c-48 0 -99 -13 -139 -36v51
c43 21 94 32 141 32c116 0 183 -68 183 -138v-156c0 -33 22 -56 43 -56c36 0 120 53 120 178c0 191 -140 307 -350 307c-207 0 -370 -151 -370 -335c0 -181 160 -332 367 -332c97 0 171 5 245 14l5 -49c-76 -9 -152 -15 -251 -15c-233 0 -418 172 -418 382zM322 275
c0 -51 56 -84 139 -84c48 0 91 18 124 54v9v61c-42 23 -84 40 -140 40c-87 0 -123 -49 -123 -80z" />
    <glyph glyph-name="A" unicode="A" horiz-adv-x="888" 
d="M2 0l351 700h183l351 -700h-65l-91 181h-574l-91 -181h-64zM181 233h526l-207 411h-112z" />
    <glyph glyph-name="B" unicode="B" horiz-adv-x="874" 
d="M50 0v700c191 0 340 6 486 6c179 0 298 -74 298 -186c0 -83 -60 -131 -141 -158c89 -27 157 -79 157 -166c0 -121 -126 -202 -314 -202c-193 0 -294 6 -486 6zM110 53c145 0 263 -5 425 -5c152 0 255 60 255 151c0 78 -100 135 -255 135h-425v-281zM110 386h425
c145 0 240 54 240 131c0 82 -96 137 -240 137c-139 0 -288 -6 -425 -6v-262z" />
    <glyph glyph-name="C" unicode="C" horiz-adv-x="778" 
d="M24 350c0 216 178 360 455 360c98 0 211 -21 281 -70v-70c-70 61 -181 85 -280 85c-240 0 -395 -121 -395 -305s157 -305 400 -305c99 0 205 25 275 85v-70c-70 -49 -177 -70 -276 -70c-280 0 -460 144 -460 360z" />
    <glyph glyph-name="D" unicode="D" horiz-adv-x="890" 
d="M50 0v700c126 0 236 6 370 6c258 0 448 -163 448 -356s-190 -356 -448 -356c-134 0 -246 6 -370 6zM110 55c101 -1 199 -6 310 -6c231 0 387 144 387 301s-156 301 -387 301c-112 0 -205 -5 -310 -6v-590z" />
    <glyph glyph-name="E" unicode="E" horiz-adv-x="756" 
d="M50 0v700h690v-54h-629v-270h569v-52h-569v-270h629v-54h-690z" />
    <glyph glyph-name="F" unicode="F" horiz-adv-x="709" 
d="M50 0v700h647v-55h-586v-298h546v-54h-546v-293h-61z" />
    <glyph glyph-name="G" unicode="G" horiz-adv-x="856" 
d="M24 350c0 214 158 360 434 360c159 0 294 -28 344 -45v-57c-123 42 -298 47 -339 47c-242 0 -378 -121 -378 -305c0 -183 151 -305 391 -305c126 0 193 16 303 84v183h-303v52h358v-264c-130 -86 -206 -110 -358 -110c-276 0 -452 146 -452 360z" />
    <glyph glyph-name="H" unicode="H" horiz-adv-x="890" 
d="M50 0v700h61v-323h668v323h61v-700h-61v323h-668v-323h-61z" />
    <glyph glyph-name="I" unicode="I" horiz-adv-x="160" 
d="M50 0v700h61v-700h-61z" />
    <glyph glyph-name="J" unicode="J" horiz-adv-x="693" 
d="M16 68v56c88 -50 172 -79 271 -79c171 0 307 99 307 199v401h-574v55h635v-460c0 -126 -164 -250 -367 -250c-99 0 -184 28 -272 78z" />
    <glyph glyph-name="K" unicode="K" horiz-adv-x="852" 
d="M50 0v700h61v-313h323l323 313h82l-354 -340l365 -360h-83l-334 332h-322v-332h-61z" />
    <glyph glyph-name="L" unicode="L" horiz-adv-x="670" 
d="M50 0v700h61v-645h345l201 6l-2 -61h-605z" />
    <glyph glyph-name="M" unicode="M" horiz-adv-x="1028" 
d="M50 0v700h112l330 -614h37l337 614h112v-700h-58v637h-26l-339 -620h-90l-331 620h-26v-637h-58z" />
    <glyph glyph-name="N" unicode="N" horiz-adv-x="900" 
d="M50 0v700h132l564 -642h47v642h57v-700h-131l-565 642h-47v-642h-57z" />
    <glyph glyph-name="O" unicode="O" 
d="M24 350c0 213 172 360 430 360s430 -147 430 -360s-172 -360 -430 -360s-430 147 -430 360zM86 350c0 -183 147 -305 368 -305s368 122 368 305s-147 305 -368 305s-368 -122 -368 -305z" />
    <glyph glyph-name="P" unicode="P" horiz-adv-x="870" 
d="M50 0v700c162 0 293 6 452 6c203 0 348 -118 348 -256s-145 -252 -348 -252c-138 0 -254 8 -391 18v-216h-61zM111 271c134 -10 253 -18 392 -18c162 0 286 86 286 197c0 103 -113 201 -286 201c-139 0 -257 -5 -392 -6v-374z" />
    <glyph glyph-name="Q" unicode="Q" 
d="M24 350c0 213 172 360 430 360s430 -147 430 -360c0 -131 -65 -237 -175 -299l123 -109h-73l-97 86c-60 -25 -130 -38 -208 -38c-258 0 -430 147 -430 360zM86 350c0 -183 147 -305 368 -305c59 0 114 9 161 25l-137 121l1 65l185 -165c99 52 158 143 158 259
c0 183 -147 305 -368 305s-368 -122 -368 -305z" />
    <glyph glyph-name="R" unicode="R" horiz-adv-x="880" 
d="M50 0v700c182 0 276 6 460 6c198 0 348 -103 348 -236c0 -114 -114 -209 -263 -227l252 -243h-85l-242 240h-410v-240h-60zM110 293c71 0 287 -1 431 -1c151 0 256 88 256 177c0 92 -111 182 -286 182c-163 0 -268 -6 -401 -6v-352z" />
    <glyph glyph-name="S" unicode="S" horiz-adv-x="863" 
d="M24 99v62c152 -87 266 -117 417 -117c203 0 339 87 339 173c0 101 -79 144 -346 131c-249 -11 -398 38 -398 165c0 121 153 197 394 197c132 0 245 -17 347 -70v-58c-103 58 -213 76 -347 76c-197 0 -332 -57 -332 -145c0 -67 69 -123 335 -110c232 11 408 -17 408 -185
c0 -134 -188 -228 -400 -228c-153 0 -267 30 -417 109z" />
    <glyph glyph-name="T" unicode="T" horiz-adv-x="740" 
d="M10 646v54h720v-54h-329v-646h-62v646h-329z" />
    <glyph glyph-name="U" unicode="U" horiz-adv-x="824" 
d="M38 306v394h61v-395c0 -156 125 -260 313 -260s313 104 313 260v395h61v-394c0 -189 -149 -316 -374 -316s-374 127 -374 316z" />
    <glyph glyph-name="V" unicode="V" horiz-adv-x="838" 
d="M2 700h65l244 -643h216l245 643h64l-270 -700h-294z" />
    <glyph glyph-name="W" unicode="W" horiz-adv-x="1152" 
d="M1 700h66l212 -642h60l174 632h126l174 -632h60l212 642h66l-238 -700h-142l-177 636h-36l-177 -636h-142z" />
    <glyph glyph-name="X" unicode="X" horiz-adv-x="842" 
d="M3 0l318 375l-309 325h77l279 -295h106l279 295h77l-309 -325l318 -375h-75l-291 346h-104l-291 -346h-75z" />
    <glyph glyph-name="Y" unicode="Y" horiz-adv-x="864" 
d="M2 700h80l352 -362h2l348 362h78l-398 -409v-291h-61v291z" />
    <glyph glyph-name="Z" unicode="Z" horiz-adv-x="740" 
d="M20 0v84l627 544v17h-620v55h688v-84l-627 -544v-17h632v-55h-700z" />
    <glyph glyph-name="bracketleft" unicode="[" horiz-adv-x="309" 
d="M39 -50v800h261v-51h-204v-698h204v-51h-261z" />
    <glyph glyph-name="backslash" unicode="\" horiz-adv-x="467" 
d="M-1 700h68l400 -700h-68z" />
    <glyph glyph-name="bracketright" unicode="]" horiz-adv-x="309" 
d="M10 1h203v698h-203v51h261v-800h-261v51z" />
    <glyph glyph-name="asciicircum" unicode="^" horiz-adv-x="606" 
d="M1 388l234 312h136l234 -312h-67l-192 257h-86l-192 -257h-67z" />
    <glyph glyph-name="underscore" unicode="_" horiz-adv-x="490" 
d="M10 -92h470v-55h-470v55z" />
    <glyph glyph-name="grave" unicode="`" horiz-adv-x="236" 
d="M2 700h66l159 -162h-60z" />
    <glyph glyph-name="a" unicode="a" horiz-adv-x="888" 
d="M2 0l351 700h183l351 -700h-65l-91 181h-574l-91 -181h-64zM181 233h526l-207 411h-112z" />
    <glyph glyph-name="b" unicode="b" horiz-adv-x="874" 
d="M50 0v700c191 0 340 6 486 6c179 0 298 -74 298 -186c0 -83 -60 -131 -141 -158c89 -27 157 -79 157 -166c0 -121 -126 -202 -314 -202c-193 0 -294 6 -486 6zM110 53c145 0 263 -5 425 -5c152 0 255 60 255 151c0 78 -100 135 -255 135h-425v-281zM110 386h425
c145 0 240 54 240 131c0 82 -96 137 -240 137c-139 0 -288 -6 -425 -6v-262z" />
    <glyph glyph-name="c" unicode="c" horiz-adv-x="778" 
d="M24 350c0 216 178 360 455 360c98 0 211 -21 281 -70v-70c-70 61 -181 85 -280 85c-240 0 -395 -121 -395 -305s157 -305 400 -305c99 0 205 25 275 85v-70c-70 -49 -177 -70 -276 -70c-280 0 -460 144 -460 360z" />
    <glyph glyph-name="d" unicode="d" horiz-adv-x="890" 
d="M50 0v700c126 0 236 6 370 6c258 0 448 -163 448 -356s-190 -356 -448 -356c-134 0 -246 6 -370 6zM110 55c101 -1 199 -6 310 -6c231 0 387 144 387 301s-156 301 -387 301c-112 0 -205 -5 -310 -6v-590z" />
    <glyph glyph-name="e" unicode="e" horiz-adv-x="756" 
d="M50 0v700h690v-54h-629v-270h569v-52h-569v-270h629v-54h-690z" />
    <glyph glyph-name="f" unicode="f" horiz-adv-x="709" 
d="M50 0v700h647v-55h-586v-298h546v-54h-546v-293h-61z" />
    <glyph glyph-name="g" unicode="g" horiz-adv-x="856" 
d="M24 350c0 214 158 360 434 360c159 0 294 -28 344 -45v-57c-123 42 -298 47 -339 47c-242 0 -378 -121 -378 -305c0 -183 151 -305 391 -305c126 0 193 16 303 84v183h-303v52h358v-264c-130 -86 -206 -110 -358 -110c-276 0 -452 146 -452 360z" />
    <glyph glyph-name="h" unicode="h" horiz-adv-x="890" 
d="M50 0v700h61v-323h668v323h61v-700h-61v323h-668v-323h-61z" />
    <glyph glyph-name="i" unicode="i" horiz-adv-x="160" 
d="M50 0v700h61v-700h-61z" />
    <glyph glyph-name="j" unicode="j" horiz-adv-x="693" 
d="M16 68v56c88 -50 172 -79 271 -79c171 0 307 99 307 199v401h-574v55h635v-460c0 -126 -164 -250 -367 -250c-99 0 -184 28 -272 78z" />
    <glyph glyph-name="k" unicode="k" horiz-adv-x="852" 
d="M50 0v700h61v-313h323l323 313h82l-354 -340l365 -360h-83l-334 332h-322v-332h-61z" />
    <glyph glyph-name="l" unicode="l" horiz-adv-x="670" 
d="M50 0v700h61v-645h345l201 6l-2 -61h-605z" />
    <glyph glyph-name="m" unicode="m" horiz-adv-x="1028" 
d="M50 0v700h112l330 -614h37l337 614h112v-700h-58v637h-26l-339 -620h-90l-331 620h-26v-637h-58z" />
    <glyph glyph-name="n" unicode="n" horiz-adv-x="900" 
d="M50 0v700h132l564 -642h47v642h57v-700h-131l-565 642h-47v-642h-57z" />
    <glyph glyph-name="o" unicode="o" 
d="M24 350c0 213 172 360 430 360s430 -147 430 -360s-172 -360 -430 -360s-430 147 -430 360zM86 350c0 -183 147 -305 368 -305s368 122 368 305s-147 305 -368 305s-368 -122 -368 -305z" />
    <glyph glyph-name="p" unicode="p" horiz-adv-x="870" 
d="M50 0v700c162 0 293 6 452 6c203 0 348 -118 348 -256s-145 -252 -348 -252c-138 0 -254 8 -391 18v-216h-61zM111 271c134 -10 253 -18 392 -18c162 0 286 86 286 197c0 103 -113 201 -286 201c-139 0 -257 -5 -392 -6v-374z" />
    <glyph glyph-name="q" unicode="q" 
d="M24 350c0 213 172 360 430 360s430 -147 430 -360c0 -131 -65 -237 -175 -299l123 -109h-73l-97 86c-60 -25 -130 -38 -208 -38c-258 0 -430 147 -430 360zM86 350c0 -183 147 -305 368 -305c59 0 114 9 161 25l-137 121l1 65l185 -165c99 52 158 143 158 259
c0 183 -147 305 -368 305s-368 -122 -368 -305z" />
    <glyph glyph-name="r" unicode="r" horiz-adv-x="880" 
d="M50 0v700c182 0 276 6 460 6c198 0 348 -103 348 -236c0 -114 -114 -209 -263 -227l252 -243h-85l-242 240h-410v-240h-60zM110 293c71 0 287 -1 431 -1c151 0 256 88 256 177c0 92 -111 182 -286 182c-163 0 -268 -6 -401 -6v-352z" />
    <glyph glyph-name="s" unicode="s" horiz-adv-x="863" 
d="M24 99v62c152 -87 266 -117 417 -117c203 0 339 87 339 173c0 101 -79 144 -346 131c-249 -11 -398 38 -398 165c0 121 153 197 394 197c132 0 245 -17 347 -70v-58c-103 58 -213 76 -347 76c-197 0 -332 -57 -332 -145c0 -67 69 -123 335 -110c232 11 408 -17 408 -185
c0 -134 -188 -228 -400 -228c-153 0 -267 30 -417 109z" />
    <glyph glyph-name="t" unicode="t" horiz-adv-x="740" 
d="M10 646v54h720v-54h-329v-646h-62v646h-329z" />
    <glyph glyph-name="u" unicode="u" horiz-adv-x="824" 
d="M38 306v394h61v-395c0 -156 125 -260 313 -260s313 104 313 260v395h61v-394c0 -189 -149 -316 -374 -316s-374 127 -374 316z" />
    <glyph glyph-name="v" unicode="v" horiz-adv-x="838" 
d="M2 700h65l244 -643h216l245 643h64l-270 -700h-294z" />
    <glyph glyph-name="w" unicode="w" horiz-adv-x="1152" 
d="M1 700h66l212 -642h60l174 632h126l174 -632h60l212 642h66l-238 -700h-142l-177 636h-36l-177 -636h-142z" />
    <glyph glyph-name="x" unicode="x" horiz-adv-x="842" 
d="M3 0l318 375l-309 325h77l279 -295h106l279 295h77l-309 -325l318 -375h-75l-291 346h-104l-291 -346h-75z" />
    <glyph glyph-name="y" unicode="y" horiz-adv-x="864" 
d="M2 700h80l352 -362h2l348 362h78l-398 -409v-291h-61v291z" />
    <glyph glyph-name="z" unicode="z" horiz-adv-x="740" 
d="M20 0v84l627 544v17h-620v55h688v-84l-627 -544v-17h632v-55h-700z" />
    <glyph glyph-name="braceleft" unicode="{" horiz-adv-x="435" 
d="M1 288v124c202 0 179 83 168 166c-11 85 -5 172 256 172v-51c-207 0 -212 -48 -202 -124c10 -73 39 -193 -164 -205v-40c203 -12 174 -132 164 -205c-11 -83 14 -124 202 -124v-51c-261 0 -267 87 -256 172c11 84 34 166 -168 166z" />
    <glyph glyph-name="bar" unicode="|" horiz-adv-x="153" 
d="M48 -150v1000h57v-1000h-57z" />
    <glyph glyph-name="braceright" unicode="}" horiz-adv-x="435" 
d="M10 1c207 0 212 48 202 124c-10 73 -39 193 164 205v40c-203 12 -174 132 -164 205c11 83 -14 124 -202 124v51c261 0 267 -87 256 -172c-11 -83 -34 -166 168 -166v-124c-202 0 -179 -82 -168 -166c11 -85 5 -172 -256 -172v51z" />
    <glyph glyph-name="asciitilde" unicode="~" horiz-adv-x="500" 
d="M10 295v69c34 27 73 44 119 44c45 0 86 -15 127 -30s79 -28 114 -28c31 0 72 9 120 56v-70c-45 -36 -86 -44 -119 -44c-44 0 -86 15 -127 30s-77 28 -114 28c-45 0 -84 -20 -120 -55z" />
    <glyph glyph-name="exclamdown" unicode="&#xa1;" horiz-adv-x="116" 
d="M24 634v68h68v-68h-68zM27 -30v352l7 164h49l7 -164v-352h-63z" />
    <glyph glyph-name="cent" unicode="&#xa2;" horiz-adv-x="594" 
d="M18 350c0 152 116 259 297 276v144h57v-142c63 -1 145 -14 204 -51v-65c-50 47 -144 62 -207 62c-179 0 -293 -88 -293 -224c0 -135 112 -224 296 -224c68 0 153 16 204 62v-65c-56 -36 -132 -51 -204 -51v-142h-57v145c-181 18 -297 123 -297 275z" />
    <glyph glyph-name="sterling" unicode="&#xa3;" horiz-adv-x="716" 
d="M6 -10v54c36 28 84 81 84 192c0 30 -3 61 -7 93h-77v52h71c-3 27 -6 55 -6 81c0 167 185 248 344 248c84 0 157 -18 231 -53v-59c-76 38 -144 58 -229 58c-142 0 -286 -70 -286 -197c0 -25 3 -51 6 -78h383v-52h-377c4 -31 6 -62 6 -94c0 -68 -18 -127 -52 -172
c55 11 107 15 156 15c131 0 235 -32 317 -32c72 0 108 24 136 45v-63c-42 -28 -87 -37 -134 -37c-86 0 -196 34 -327 34c-73 0 -151 -9 -239 -35z" />
    <glyph glyph-name="currency" unicode="&#xa4;" horiz-adv-x="610" 
d="M62 555l38 38l86 -86c34 25 76 40 119 40s85 -15 119 -40l86 86l38 -38l-86 -86c25 -32 40 -73 40 -119c0 -43 -15 -85 -40 -119l86 -86l-38 -38l-86 86c-32 -25 -73 -40 -119 -40s-87 15 -119 40l-86 -86l-38 38l86 86c-25 34 -40 76 -40 119c0 46 15 87 40 119z
M152 350c0 -79 63 -153 153 -153s153 74 153 153c0 90 -74 153 -153 153s-153 -63 -153 -153z" />
    <glyph glyph-name="yen" unicode="&#xa5;" horiz-adv-x="864" 
d="M2 700h80l352 -362h2l348 362h78l-368 -378h188v-42h-218v-68h213v-42h-213v-170h-61v170h-216v42h216v68h-221v42h191z" />
    <glyph glyph-name="brokenbar" unicode="&#xa6;" horiz-adv-x="153" 
d="M48 -150v440h57v-440h-57zM48 410v440h57v-440h-57z" />
    <glyph glyph-name="section" unicode="&#xa7;" horiz-adv-x="649" 
d="M16 352c0 62 50 110 133 136c-78 25 -125 71 -125 128c0 100 116 165 293 165c109 0 202 -15 299 -63v-52c-95 52 -190 68 -300 68c-143 0 -238 -48 -238 -119c0 -62 93 -102 230 -102c210 0 326 -56 326 -157c0 -63 -55 -111 -145 -137c78 -26 126 -71 126 -127
c0 -100 -116 -165 -293 -165c-109 0 -202 15 -299 63v52c95 -52 190 -68 300 -68c143 0 238 48 238 119c0 62 -102 102 -239 102c-199 0 -306 56 -306 157zM70 353c0 -73 88 -111 253 -111h23c144 5 234 49 234 114c0 73 -95 110 -272 110h-21c-134 -5 -217 -49 -217 -113z
" />
    <glyph glyph-name="dieresis" unicode="&#xa8;" horiz-adv-x="428" 
d="M64 618v84h60v-84h-60zM304 618v84h60v-84h-60z" />
    <glyph glyph-name="copyright" unicode="&#xa9;" horiz-adv-x="802" 
d="M26 350c0 207 168 375 375 375s375 -168 375 -375s-168 -375 -375 -375s-375 168 -375 375zM68 350c0 -184 149 -333 333 -333s333 149 333 333s-149 333 -333 333s-333 -149 -333 -333zM176 350c0 124 103 207 259 207c58 0 115 -12 155 -38v-59c-34 38 -107 50 -154 50
c-129 0 -209 -64 -209 -160s81 -160 211 -160c64 0 122 19 152 50v-59c-42 -27 -100 -38 -152 -38c-159 0 -262 83 -262 207z" />
    <glyph glyph-name="ordfeminine" unicode="&#xaa;" horiz-adv-x="456" 
d="M18 445c0 61 62 126 171 126c61 0 111 -18 155 -40v50c0 40 -41 92 -135 92c-48 0 -99 -13 -139 -36v51c43 21 94 32 141 32c116 0 183 -68 183 -138v-156c0 -34 22 -56 43 -56v-47c-34 0 -63 20 -79 49c-56 -52 -124 -57 -150 -57c-113 0 -190 53 -190 130zM70 445
c0 -51 55 -83 139 -83c52 0 102 21 135 62v57c-45 25 -91 45 -151 45c-87 0 -123 -50 -123 -81z" />
    <glyph glyph-name="guillemotleft" unicode="&#xab;" horiz-adv-x="417" 
d="M4 350l204 237l41 -35l-174 -202l174 -202l-41 -35zM163 350l204 237l41 -35l-174 -202l174 -202l-41 -35z" />
    <glyph glyph-name="uni00AD" unicode="&#xad;" horiz-adv-x="490" 
d="M10 323v54h480v-54h-480z" />
    <glyph glyph-name="registered" unicode="&#xae;" horiz-adv-x="802" 
d="M26 350c0 207 168 375 375 375s375 -168 375 -375s-168 -375 -375 -375s-375 168 -375 375zM67 350c0 -185 150 -334 334 -334s334 150 334 334s-150 334 -334 334s-334 -149 -334 -334zM187 157v393c117 0 155 3 262 3c111 0 200 -58 200 -138c0 -58 -53 -114 -135 -130
l132 -128h-70l-124 124h-215v-124h-50zM237 326h230c81 0 132 47 132 89c0 44 -54 92 -149 92c-86 0 -144 -3 -213 -3v-178z" />
    <glyph glyph-name="macron" unicode="&#xaf;" horiz-adv-x="348" 
d="M10 618v47h328v-47h-328z" />
    <glyph glyph-name="degree" unicode="&#xb0;" horiz-adv-x="322" 
d="M6 555c0 86 69 155 155 155s155 -69 155 -155s-69 -155 -155 -155s-155 69 -155 155zM48 555c0 -63 50 -113 113 -113s113 50 113 113s-50 113 -113 113s-113 -50 -113 -113z" />
    <glyph glyph-name="plusminus" unicode="&#xb1;" horiz-adv-x="450" 
d="M10 432v44h192v189h46v-189h192v-44h-192v-189h-46v189h-192zM31 110v45h388v-45h-388z" />
    <glyph glyph-name="uni00B2" unicode="&#xb2;" horiz-adv-x="545" 
d="M12 240v34c0 299 465 225 465 352c0 63 -87 96 -188 96c-78 0 -170 -26 -239 -84v60c75 54 162 74 239 74c132 0 242 -59 242 -145c0 -180 -457 -88 -463 -337h461v-50h-517z" />
    <glyph glyph-name="uni00B3" unicode="&#xb3;" horiz-adv-x="549" 
d="M15 294v57c77 -56 209 -68 241 -68c129 0 224 49 224 121c0 54 -104 91 -239 91h-48v1v46h98c111 0 168 35 168 86c0 42 -69 95 -208 95c-36 0 -143 -6 -219 -41v52c79 33 184 39 219 39c153 0 262 -62 262 -142c0 -56 -35 -94 -93 -115c72 -24 114 -64 114 -114
c0 -101 -116 -169 -278 -169c-28 0 -160 11 -241 61z" />
    <glyph glyph-name="acute" unicode="&#xb4;" horiz-adv-x="290" 
d="M6 588l116 122h96l-162 -122h-50z" />
    <glyph glyph-name="periodcentered" unicode="&#xb7;" horiz-adv-x="98" 
d="M12 319v68h68v-68h-68z" />
    <glyph glyph-name="cedilla" unicode="&#xb8;" horiz-adv-x="236" 
d="M8 -148l8 43c13 -7 41 -22 81 -22c38 0 67 14 67 30c0 18 -27 32 -62 32h-75l18 85l42 -2l-9 -43h28c58 0 106 -33 106 -74c0 -40 -51 -71 -112 -71c-32 0 -65 7 -92 22z" />
    <glyph glyph-name="uni00B9" unicode="&#xb9;" horiz-adv-x="173" 
d="M6 696v49l73 20h35v-525h-55v470z" />
    <glyph glyph-name="ordmasculine" unicode="&#xba;" horiz-adv-x="470" 
d="M14 518c0 120 88 202 221 202s221 -82 221 -202s-88 -202 -221 -202s-221 82 -221 202zM64 518c0 -93 67 -155 171 -155s171 62 171 155s-67 155 -171 155s-171 -62 -171 -155z" />
    <glyph glyph-name="guillemotright" unicode="&#xbb;" horiz-adv-x="417" 
d="M10 147l173 202l-173 202l40 35l205 -237l-205 -237zM169 147l173 202l-173 202l40 35l205 -237l-205 -237z" />
    <glyph glyph-name="questiondown" unicode="&#xbf;" horiz-adv-x="595" 
d="M12 180c0 194 298 156 298 268v39h57v-39c0 -159 -296 -111 -296 -268c0 -62 39 -157 260 -157c132 0 213 46 254 79v-62c-51 -34 -135 -70 -255 -70c-258 0 -318 120 -318 210zM307 635v68h68v-68h-68z" />
    <glyph glyph-name="Agrave" unicode="&#xc0;" horiz-adv-x="888" 
d="M2 0l351 700h183l351 -700h-65l-91 181h-574l-91 -181h-64zM181 233h526l-207 411h-112zM304 860h96l116 -122h-51z" />
    <glyph glyph-name="Aacute" unicode="&#xc1;" horiz-adv-x="888" 
d="M2 0l351 700h183l351 -700h-65l-91 181h-574l-91 -181h-64zM181 233h526l-207 411h-112zM372 738l117 122h95l-161 -122h-51z" />
    <glyph glyph-name="Acircumflex" unicode="&#xc2;" horiz-adv-x="888" 
d="M2 0l351 700h183l351 -700h-65l-91 181h-574l-91 -181h-64zM181 233h526l-207 411h-112zM251 738l162 122h62l162 -122h-93l-100 102l-100 -102h-93z" />
    <glyph glyph-name="Atilde" unicode="&#xc3;" horiz-adv-x="888" 
d="M2 0l351 700h183l351 -700h-65l-91 181h-574l-91 -181h-64zM181 233h526l-207 411h-112zM289 760v44c22 21 50 29 76 29c29 0 57 -9 81 -18c20 -8 43 -13 67 -13c30 0 58 8 86 30v-43c-24 -24 -55 -32 -84 -32c-26 0 -52 7 -73 15c-22 8 -48 15 -75 15s-53 -7 -78 -27z
" />
    <glyph glyph-name="Adieresis" unicode="&#xc4;" horiz-adv-x="888" 
d="M2 0l351 700h183l351 -700h-65l-91 181h-574l-91 -181h-64zM181 233h526l-207 411h-112zM294 768v84h60v-84h-60zM534 768v84h60v-84h-60z" />
    <glyph glyph-name="Aring" unicode="&#xc5;" horiz-adv-x="888" 
d="M2 0l308 616c-14 23 -21 50 -21 79c0 86 69 155 155 155s155 -69 155 -155c0 -29 -8 -55 -21 -78l309 -617h-65l-91 181h-574l-91 -181h-64zM181 233h526l-170 338c-26 -19 -58 -31 -93 -31s-67 12 -93 31zM331 695c0 -63 50 -113 113 -113s113 50 113 113
s-50 113 -113 113s-113 -50 -113 -113z" />
    <glyph glyph-name="AE" unicode="&#xc6;" horiz-adv-x="1134" 
d="M2 0l351 700h765v-55h-499v-269h439v-52h-439v-269h499v-55h-558v181h-403l-91 -181h-64zM181 233h379v412h-172z" />
    <glyph glyph-name="Ccedilla" unicode="&#xc7;" horiz-adv-x="778" 
d="M24 350c0 216 178 360 455 360c98 0 211 -21 281 -70v-70c-70 61 -181 85 -280 85c-240 0 -395 -121 -395 -305s157 -305 400 -305c99 0 205 25 275 85v-70c-70 -49 -177 -70 -276 -70c-24 0 -48 1 -71 3l-4 -20h28c58 0 106 -33 106 -74c0 -40 -51 -71 -112 -71
c-32 0 -65 7 -92 22l8 43c13 -7 41 -22 81 -22c38 0 67 14 67 30c0 18 -27 32 -62 32h-75l14 65c-215 34 -348 166 -348 352z" />
    <glyph glyph-name="Egrave" unicode="&#xc8;" horiz-adv-x="756" 
d="M50 0v700h690v-54h-629v-270h569v-52h-569v-270h629v-54h-690zM241 860h97l115 -122h-50z" />
    <glyph glyph-name="Eacute" unicode="&#xc9;" horiz-adv-x="756" 
d="M50 0v700h690v-54h-629v-270h569v-52h-569v-270h629v-54h-690zM310 738l116 122h95l-161 -122h-50z" />
    <glyph glyph-name="Ecircumflex" unicode="&#xca;" horiz-adv-x="756" 
d="M50 0v700h690v-54h-629v-270h569v-52h-569v-270h629v-54h-690zM189 738l161 122h62l162 -122h-93l-100 102l-100 -102h-92z" />
    <glyph glyph-name="Edieresis" unicode="&#xcb;" horiz-adv-x="756" 
d="M50 0v700h690v-54h-629v-270h569v-52h-569v-270h629v-54h-690zM231 768v84h60v-84h-60zM471 768v84h60v-84h-60z" />
    <glyph glyph-name="Igrave" unicode="&#xcc;" horiz-adv-x="160" 
d="M-59 860h97l115 -122h-50zM50 0v700h61v-700h-61z" />
    <glyph glyph-name="Iacute" unicode="&#xcd;" horiz-adv-x="160" 
d="M10 738l116 122h95l-161 -122h-50zM50 0v700h61v-700h-61z" />
    <glyph glyph-name="Icircumflex" unicode="&#xce;" horiz-adv-x="160" 
d="M-111 738l161 122h62l162 -122h-93l-100 102l-100 -102h-92zM50 0v700h61v-700h-61z" />
    <glyph glyph-name="Idieresis" unicode="&#xcf;" horiz-adv-x="160" 
d="M-69 768v84h60v-84h-60zM50 0v700h61v-700h-61zM171 768v84h60v-84h-60z" />
    <glyph glyph-name="Eth" unicode="&#xd0;" horiz-adv-x="906" 
d="M4 324v52h62v324c126 0 236 6 370 6c258 0 448 -163 448 -356s-190 -356 -448 -356c-134 0 -246 6 -370 6v324h-62zM126 54c101 -1 199 -5 310 -5c231 0 387 144 387 301s-156 301 -387 301c-112 0 -205 -4 -310 -5v-270h253v-52h-253v-270z" />
    <glyph glyph-name="Ntilde" unicode="&#xd1;" horiz-adv-x="900" 
d="M50 0v700h132l564 -642h47v642h57v-700h-131l-565 642h-47v-642h-57zM331 760v44c22 21 50 29 76 29c29 0 57 -9 81 -18c20 -8 43 -13 67 -13c30 0 58 8 86 30v-43c-24 -24 -55 -32 -84 -32c-26 0 -52 7 -73 15c-22 8 -48 15 -75 15s-53 -7 -78 -27z" />
    <glyph glyph-name="Ograve" unicode="&#xd2;" 
d="M24 350c0 213 172 360 430 360s430 -147 430 -360s-172 -360 -430 -360s-430 147 -430 360zM86 350c0 -183 147 -305 368 -305s368 122 368 305s-147 305 -368 305s-368 -122 -368 -305zM302 860h96l116 -122h-51z" />
    <glyph glyph-name="Oacute" unicode="&#xd3;" 
d="M24 350c0 213 172 360 430 360s430 -147 430 -360s-172 -360 -430 -360s-430 147 -430 360zM86 350c0 -183 147 -305 368 -305s368 122 368 305s-147 305 -368 305s-368 -122 -368 -305zM382 748l117 122h95l-161 -122h-51z" />
    <glyph glyph-name="Ocircumflex" unicode="&#xd4;" 
d="M24 350c0 213 172 360 430 360s430 -147 430 -360s-172 -360 -430 -360s-430 147 -430 360zM86 350c0 -183 147 -305 368 -305s368 122 368 305s-147 305 -368 305s-368 -122 -368 -305zM249 738l162 122h62l162 -122h-93l-100 102l-100 -102h-93z" />
    <glyph glyph-name="Otilde" unicode="&#xd5;" 
d="M24 350c0 213 172 360 430 360s430 -147 430 -360s-172 -360 -430 -360s-430 147 -430 360zM86 350c0 -183 147 -305 368 -305s368 122 368 305s-147 305 -368 305s-368 -122 -368 -305zM287 760v44c22 21 50 29 76 29c29 0 57 -9 81 -18c20 -8 43 -13 67 -13
c30 0 58 8 86 30v-43c-24 -24 -55 -32 -84 -32c-26 0 -52 7 -73 15c-22 8 -48 15 -75 15s-53 -7 -78 -27z" />
    <glyph glyph-name="Odieresis" unicode="&#xd6;" 
d="M24 350c0 213 172 360 430 360s430 -147 430 -360s-172 -360 -430 -360s-430 147 -430 360zM86 350c0 -183 147 -305 368 -305s368 122 368 305s-147 305 -368 305s-368 -122 -368 -305zM292 768v84h60v-84h-60zM532 768v84h60v-84h-60z" />
    <glyph glyph-name="multiply" unicode="&#xd7;" horiz-adv-x="438" 
d="M12 182l168 168l-168 168l39 39l168 -168l168 168l39 -39l-168 -168l168 -168l-39 -39l-168 168l-168 -168z" />
    <glyph glyph-name="Oslash" unicode="&#xd8;" 
d="M24 350c0 213 172 360 430 360c76 0 144 -13 203 -36l76 101l35 -26l-70 -94c117 -61 186 -169 186 -305c0 -213 -172 -360 -430 -360c-83 0 -157 15 -219 42l-79 -107l-36 26l76 101c-108 62 -172 168 -172 298zM86 350c0 -110 53 -198 144 -251l393 528
c-49 18 -106 28 -169 28c-221 0 -368 -122 -368 -305zM270 79c53 -22 115 -34 184 -34c221 0 368 122 368 305c0 116 -59 208 -158 259z" />
    <glyph glyph-name="Ugrave" unicode="&#xd9;" horiz-adv-x="824" 
d="M38 306v394h61v-395c0 -156 125 -260 313 -260s313 104 313 260v395h61v-394c0 -189 -149 -316 -374 -316s-374 127 -374 316zM268 860h96l116 -122h-51z" />
    <glyph glyph-name="Uacute" unicode="&#xda;" horiz-adv-x="824" 
d="M38 306v394h61v-395c0 -156 125 -260 313 -260s313 104 313 260v395h61v-394c0 -189 -149 -316 -374 -316s-374 127 -374 316zM336 738l117 122h95l-162 -122h-50z" />
    <glyph glyph-name="Ucircumflex" unicode="&#xdb;" horiz-adv-x="824" 
d="M38 306v394h61v-395c0 -156 125 -260 313 -260s313 104 313 260v395h61v-394c0 -189 -149 -316 -374 -316s-374 127 -374 316zM215 738l162 122h62l162 -122h-93l-100 102l-100 -102h-93z" />
    <glyph glyph-name="Udieresis" unicode="&#xdc;" horiz-adv-x="824" 
d="M38 306v394h61v-395c0 -156 125 -260 313 -260s313 104 313 260v395h61v-394c0 -189 -149 -316 -374 -316s-374 127 -374 316zM262 759v84h60v-84h-60zM502 759v84h60v-84h-60z" />
    <glyph glyph-name="Yacute" unicode="&#xdd;" horiz-adv-x="864" 
d="M2 700h80l352 -362h2l348 362h78l-398 -409v-291h-61v291zM377 738l117 122h95l-161 -122h-51z" />
    <glyph glyph-name="Thorn" unicode="&#xde;" horiz-adv-x="840" 
d="M50 0v628v72h61v-72c131 1 232 6 370 6c198 0 339 -113 339 -245c0 -133 -140 -243 -338 -243c-138 0 -234 8 -371 18v-164h-61zM111 219c134 -10 232 -18 371 -18c156 0 278 82 278 188c0 99 -111 192 -278 192c-139 0 -236 -5 -371 -6v-356z" />
    <glyph glyph-name="germandbls" unicode="&#xdf;" horiz-adv-x="833" 
d="M34 0v460c0 151 187 250 397 250c180 0 310 -74 310 -189c0 -58 -35 -111 -83 -143c89 -24 156 -87 156 -163c0 -131 -160 -221 -345 -221c-70 0 -145 14 -219 46v58c74 -35 149 -50 219 -50c168 0 286 83 286 170c0 69 -87 125 -187 125h-249v40c0 6 6 11 12 11h226
c62 0 127 59 127 123c0 84 -107 139 -254 139c-175 0 -335 -80 -335 -198v-458h-61z" />
    <glyph glyph-name="agrave" unicode="&#xe0;" horiz-adv-x="888" 
d="M2 0l351 700h183l351 -700h-65l-91 181h-574l-91 -181h-64zM181 233h526l-207 411h-112zM304 860h96l116 -122h-51z" />
    <glyph glyph-name="aacute" unicode="&#xe1;" horiz-adv-x="888" 
d="M2 0l351 700h183l351 -700h-65l-91 181h-574l-91 -181h-64zM181 233h526l-207 411h-112zM372 738l117 122h95l-161 -122h-51z" />
    <glyph glyph-name="acircumflex" unicode="&#xe2;" horiz-adv-x="888" 
d="M2 0l351 700h183l351 -700h-65l-91 181h-574l-91 -181h-64zM181 233h526l-207 411h-112zM251 738l162 122h62l162 -122h-93l-100 102l-100 -102h-93z" />
    <glyph glyph-name="atilde" unicode="&#xe3;" horiz-adv-x="888" 
d="M2 0l351 700h183l351 -700h-65l-91 181h-574l-91 -181h-64zM181 233h526l-207 411h-112zM289 760v44c22 21 50 29 76 29c29 0 57 -9 81 -18c20 -8 43 -13 67 -13c30 0 58 8 86 30v-43c-24 -24 -55 -32 -84 -32c-26 0 -52 7 -73 15c-22 8 -48 15 -75 15s-53 -7 -78 -27z
" />
    <glyph glyph-name="adieresis" unicode="&#xe4;" horiz-adv-x="888" 
d="M2 0l351 700h183l351 -700h-65l-91 181h-574l-91 -181h-64zM181 233h526l-207 411h-112zM294 768v84h60v-84h-60zM534 768v84h60v-84h-60z" />
    <glyph glyph-name="aring" unicode="&#xe5;" horiz-adv-x="888" 
d="M2 0l308 616c-14 23 -21 50 -21 79c0 86 69 155 155 155s155 -69 155 -155c0 -29 -8 -55 -21 -78l309 -617h-65l-91 181h-574l-91 -181h-64zM181 233h526l-170 338c-26 -19 -58 -31 -93 -31s-67 12 -93 31zM331 695c0 -63 50 -113 113 -113s113 50 113 113
s-50 113 -113 113s-113 -50 -113 -113z" />
    <glyph glyph-name="ae" unicode="&#xe6;" horiz-adv-x="1134" 
d="M2 0l351 700h765v-55h-499v-269h439v-52h-439v-269h499v-55h-558v181h-403l-91 -181h-64zM181 233h379v412h-172z" />
    <glyph glyph-name="ccedilla" unicode="&#xe7;" horiz-adv-x="775" 
d="M24 350c0 216 178 360 455 360c98 0 211 -21 281 -70v-70c-70 61 -181 85 -280 85c-240 0 -395 -121 -395 -305s157 -305 400 -305c99 0 205 25 275 85v-70c-70 -49 -177 -70 -276 -70c-24 0 -48 1 -71 3l-4 -20h28c58 0 106 -33 106 -74c0 -40 -51 -71 -112 -71
c-32 0 -65 7 -92 22l8 43c13 -7 41 -22 81 -22c38 0 67 14 67 30c0 18 -27 32 -62 32h-75l14 65c-215 34 -348 166 -348 352z" />
    <glyph glyph-name="egrave" unicode="&#xe8;" horiz-adv-x="756" 
d="M50 0v700h690v-54h-629v-270h569v-52h-569v-270h629v-54h-690zM241 860h97l115 -122h-50z" />
    <glyph glyph-name="eacute" unicode="&#xe9;" horiz-adv-x="756" 
d="M50 0v700h690v-54h-629v-270h569v-52h-569v-270h629v-54h-690zM310 738l116 122h95l-161 -122h-50z" />
    <glyph glyph-name="ecircumflex" unicode="&#xea;" horiz-adv-x="756" 
d="M50 0v700h690v-54h-629v-270h569v-52h-569v-270h629v-54h-690zM189 738l161 122h62l162 -122h-93l-100 102l-100 -102h-92z" />
    <glyph glyph-name="edieresis" unicode="&#xeb;" horiz-adv-x="756" 
d="M50 0v700h690v-54h-629v-270h569v-52h-569v-270h629v-54h-690zM231 768v84h60v-84h-60zM471 768v84h60v-84h-60z" />
    <glyph glyph-name="igrave" unicode="&#xec;" horiz-adv-x="174" 
d="M-59 860h97l115 -122h-50zM50 0v700h61v-700h-61z" />
    <glyph glyph-name="iacute" unicode="&#xed;" horiz-adv-x="174" 
d="M10 738l116 122h95l-161 -122h-50zM50 0v700h61v-700h-61z" />
    <glyph glyph-name="icircumflex" unicode="&#xee;" horiz-adv-x="174" 
d="M-111 738l161 122h62l162 -122h-93l-100 102l-100 -102h-92zM50 0v700h61v-700h-61z" />
    <glyph glyph-name="idieresis" unicode="&#xef;" horiz-adv-x="174" 
d="M-69 768v84h60v-84h-60zM50 0v700h61v-700h-61zM171 768v84h60v-84h-60z" />
    <glyph glyph-name="eth" unicode="&#xf0;" horiz-adv-x="906" 
d="M4 324v52h62v324c126 0 236 6 370 6c258 0 448 -163 448 -356s-190 -356 -448 -356c-134 0 -246 6 -370 6v324h-62zM126 54c101 -1 199 -5 310 -5c231 0 387 144 387 301s-156 301 -387 301c-112 0 -205 -4 -310 -5v-270h253v-52h-253v-270z" />
    <glyph glyph-name="ntilde" unicode="&#xf1;" horiz-adv-x="900" 
d="M50 0v700h132l564 -642h47v642h57v-700h-131l-565 642h-47v-642h-57zM331 760v44c22 21 50 29 76 29c29 0 57 -9 81 -18c20 -8 43 -13 67 -13c30 0 58 8 86 30v-43c-24 -24 -55 -32 -84 -32c-26 0 -52 7 -73 15c-22 8 -48 15 -75 15s-53 -7 -78 -27z" />
    <glyph glyph-name="ograve" unicode="&#xf2;" 
d="M24 350c0 213 172 360 430 360s430 -147 430 -360s-172 -360 -430 -360s-430 147 -430 360zM86 350c0 -183 147 -305 368 -305s368 122 368 305s-147 305 -368 305s-368 -122 -368 -305zM302 860h96l116 -122h-51z" />
    <glyph glyph-name="oacute" unicode="&#xf3;" 
d="M24 350c0 213 172 360 430 360s430 -147 430 -360s-172 -360 -430 -360s-430 147 -430 360zM86 350c0 -183 147 -305 368 -305s368 122 368 305s-147 305 -368 305s-368 -122 -368 -305zM382 748l117 122h95l-161 -122h-51z" />
    <glyph glyph-name="ocircumflex" unicode="&#xf4;" 
d="M24 350c0 213 172 360 430 360s430 -147 430 -360s-172 -360 -430 -360s-430 147 -430 360zM86 350c0 -183 147 -305 368 -305s368 122 368 305s-147 305 -368 305s-368 -122 -368 -305zM249 738l162 122h62l162 -122h-93l-100 102l-100 -102h-93z" />
    <glyph glyph-name="otilde" unicode="&#xf5;" 
d="M24 350c0 213 172 360 430 360s430 -147 430 -360s-172 -360 -430 -360s-430 147 -430 360zM86 350c0 -183 147 -305 368 -305s368 122 368 305s-147 305 -368 305s-368 -122 -368 -305zM287 760v44c22 21 50 29 76 29c29 0 57 -9 81 -18c20 -8 43 -13 67 -13
c30 0 58 8 86 30v-43c-24 -24 -55 -32 -84 -32c-26 0 -52 7 -73 15c-22 8 -48 15 -75 15s-53 -7 -78 -27z" />
    <glyph glyph-name="odieresis" unicode="&#xf6;" 
d="M24 350c0 213 172 360 430 360s430 -147 430 -360s-172 -360 -430 -360s-430 147 -430 360zM86 350c0 -183 147 -305 368 -305s368 122 368 305s-147 305 -368 305s-368 -122 -368 -305zM292 768v84h60v-84h-60zM532 768v84h60v-84h-60z" />
    <glyph glyph-name="divide" unicode="&#xf7;" horiz-adv-x="450" 
d="M10 330v42h430v-42h-430zM193 139v65h64v-65h-64zM193 496v65h64v-65h-64z" />
    <glyph glyph-name="oslash" unicode="&#xf8;" 
d="M24 350c0 213 172 360 430 360c76 0 144 -13 203 -36l76 101l35 -26l-70 -94c117 -61 186 -169 186 -305c0 -213 -172 -360 -430 -360c-83 0 -157 15 -219 42l-79 -107l-36 26l76 101c-108 62 -172 168 -172 298zM86 350c0 -110 53 -198 144 -251l393 528
c-49 18 -106 28 -169 28c-221 0 -368 -122 -368 -305zM270 79c53 -22 115 -34 184 -34c221 0 368 122 368 305c0 116 -59 208 -158 259z" />
    <glyph glyph-name="ugrave" unicode="&#xf9;" horiz-adv-x="824" 
d="M38 306v394h61v-395c0 -156 125 -260 313 -260s313 104 313 260v395h61v-394c0 -189 -149 -316 -374 -316s-374 127 -374 316zM268 860h96l116 -122h-51z" />
    <glyph glyph-name="uacute" unicode="&#xfa;" horiz-adv-x="824" 
d="M38 306v394h61v-395c0 -156 125 -260 313 -260s313 104 313 260v395h61v-394c0 -189 -149 -316 -374 -316s-374 127 -374 316zM336 738l117 122h95l-162 -122h-50z" />
    <glyph glyph-name="ucircumflex" unicode="&#xfb;" horiz-adv-x="824" 
d="M38 306v394h61v-395c0 -156 125 -260 313 -260s313 104 313 260v395h61v-394c0 -189 -149 -316 -374 -316s-374 127 -374 316zM215 738l162 122h62l162 -122h-93l-100 102l-100 -102h-93z" />
    <glyph glyph-name="udieresis" unicode="&#xfc;" horiz-adv-x="824" 
d="M38 306v394h61v-395c0 -156 125 -260 313 -260s313 104 313 260v395h61v-394c0 -189 -149 -316 -374 -316s-374 127 -374 316zM262 759v84h60v-84h-60zM502 759v84h60v-84h-60z" />
    <glyph glyph-name="yacute" unicode="&#xfd;" horiz-adv-x="864" 
d="M2 700h80l352 -362h2l348 362h78l-398 -409v-291h-61v291zM377 738l117 122h95l-161 -122h-51z" />
    <glyph glyph-name="thorn" unicode="&#xfe;" horiz-adv-x="840" 
d="M50 0v628v72h61v-72c131 1 232 6 370 6c198 0 339 -113 339 -245c0 -133 -140 -243 -338 -243c-138 0 -234 8 -371 18v-164h-61zM111 219c134 -10 232 -18 371 -18c156 0 278 82 278 188c0 99 -111 192 -278 192c-139 0 -236 -5 -371 -6v-356z" />
    <glyph glyph-name="ydieresis" unicode="&#xff;" horiz-adv-x="864" 
d="M2 700h80l352 -362h2l348 362h78l-398 -409v-291h-61v291zM299 768v84h60v-84h-60zM539 768v84h60v-84h-60z" />
    <glyph glyph-name="Amacron" unicode="&#x100;" horiz-adv-x="888" 
d="M2 0l351 700h183l351 -700h-65l-91 181h-574l-91 -181h-64zM181 233h526l-207 411h-112zM280 768v47h328v-47h-328z" />
    <glyph glyph-name="amacron" unicode="&#x101;" horiz-adv-x="888" 
d="M2 0l351 700h183l351 -700h-65l-91 181h-574l-91 -181h-64zM181 233h526l-207 411h-112zM280 768v47h328v-47h-328z" />
    <glyph glyph-name="Abreve" unicode="&#x102;" horiz-adv-x="888" 
d="M2 0l351 700h183l351 -700h-65l-91 181h-574l-91 -181h-64zM181 233h526l-207 411h-112zM226 860h56c1 -44 71 -79 162 -79s161 35 162 79h56c0 -67 -97 -122 -218 -122s-218 55 -218 122z" />
    <glyph glyph-name="abreve" unicode="&#x103;" horiz-adv-x="888" 
d="M2 0l351 700h183l351 -700h-65l-91 181h-574l-91 -181h-64zM181 233h526l-207 411h-112zM226 860h56c1 -44 71 -79 162 -79s161 35 162 79h56c0 -67 -97 -122 -218 -122s-218 55 -218 122z" />
    <glyph glyph-name="Aogonek" unicode="&#x104;" horiz-adv-x="888" 
d="M2 0l351 700h183l351 -700h-46h-17c-64 0 -104 -30 -104 -58c0 -33 31 -56 83 -56c37 0 68 11 103 29v-50c-33 -16 -69 -26 -108 -26c-76 0 -130 41 -130 101c0 55 61 95 133 101l-70 141h-574l-91 -182h-64zM181 232h526l-207 412h-112z" />
    <glyph glyph-name="aogonek" unicode="&#x105;" horiz-adv-x="888" 
d="M2 0l351 700h183l351 -700h-46h-17c-64 0 -104 -30 -104 -58c0 -33 31 -56 83 -56c37 0 68 11 103 29v-50c-33 -16 -69 -26 -108 -26c-76 0 -130 41 -130 101c0 55 61 95 133 101l-70 141h-574l-91 -182h-64zM181 232h526l-207 412h-112z" />
    <glyph glyph-name="Cacute" unicode="&#x106;" horiz-adv-x="778" 
d="M24 350c0 216 178 360 455 360c98 0 211 -21 281 -70v-70c-70 61 -181 85 -280 85c-240 0 -395 -121 -395 -305s157 -305 400 -305c99 0 205 25 275 85v-70c-70 -49 -177 -70 -276 -70c-280 0 -460 144 -460 360zM370 738l117 122h95l-161 -122h-51z" />
    <glyph glyph-name="cacute" unicode="&#x107;" horiz-adv-x="778" 
d="M24 350c0 216 178 360 455 360c98 0 211 -21 281 -70v-70c-70 61 -181 85 -280 85c-240 0 -395 -121 -395 -305s157 -305 400 -305c99 0 205 25 275 85v-70c-70 -49 -177 -70 -276 -70c-280 0 -460 144 -460 360zM370 738l117 122h95l-161 -122h-51z" />
    <glyph glyph-name="Ccircumflex" unicode="&#x108;" horiz-adv-x="778" 
d="M24 350c0 216 178 360 455 360c98 0 211 -21 281 -70v-70c-70 61 -181 85 -280 85c-240 0 -395 -121 -395 -305s157 -305 400 -305c99 0 205 25 275 85v-70c-70 -49 -177 -70 -276 -70c-280 0 -460 144 -460 360zM249 738l162 122h62l162 -122h-93l-100 102l-100 -102
h-93z" />
    <glyph glyph-name="ccircumflex" unicode="&#x109;" horiz-adv-x="778" 
d="M24 350c0 216 178 360 455 360c98 0 211 -21 281 -70v-70c-70 61 -181 85 -280 85c-240 0 -395 -121 -395 -305s157 -305 400 -305c99 0 205 25 275 85v-70c-70 -49 -177 -70 -276 -70c-280 0 -460 144 -460 360zM249 738l162 122h62l162 -122h-93l-100 102l-100 -102
h-93z" />
    <glyph glyph-name="Cdotaccent" unicode="&#x10a;" horiz-adv-x="778" 
d="M24 350c0 216 178 360 455 360c98 0 211 -21 281 -70v-70c-70 61 -181 85 -280 85c-240 0 -395 -121 -395 -305s157 -305 400 -305c99 0 205 25 275 85v-70c-70 -49 -177 -70 -276 -70c-280 0 -460 144 -460 360zM412 768v84h60v-84h-60z" />
    <glyph glyph-name="cdotaccent" unicode="&#x10b;" horiz-adv-x="778" 
d="M24 350c0 216 178 360 455 360c98 0 211 -21 281 -70v-70c-70 61 -181 85 -280 85c-240 0 -395 -121 -395 -305s157 -305 400 -305c99 0 205 25 275 85v-70c-70 -49 -177 -70 -276 -70c-280 0 -460 144 -460 360zM412 768v84h60v-84h-60z" />
    <glyph glyph-name="Ccaron" unicode="&#x10c;" horiz-adv-x="778" 
d="M24 350c0 216 178 360 455 360c98 0 211 -21 281 -70v-70c-70 61 -181 85 -280 85c-240 0 -395 -121 -395 -305s157 -305 400 -305c99 0 205 25 275 85v-70c-70 -49 -177 -70 -276 -70c-280 0 -460 144 -460 360zM249 860h93l100 -102l100 102h93l-162 -122h-62z" />
    <glyph glyph-name="ccaron" unicode="&#x10d;" horiz-adv-x="778" 
d="M24 350c0 216 178 360 455 360c98 0 211 -21 281 -70v-70c-70 61 -181 85 -280 85c-240 0 -395 -121 -395 -305s157 -305 400 -305c99 0 205 25 275 85v-70c-70 -49 -177 -70 -276 -70c-280 0 -460 144 -460 360zM249 860h93l100 -102l100 102h93l-162 -122h-62z" />
    <glyph glyph-name="Dcaron" unicode="&#x10e;" horiz-adv-x="890" 
d="M50 0v700c126 0 236 6 370 6c258 0 448 -163 448 -356s-190 -356 -448 -356c-134 0 -246 6 -370 6zM110 55c101 -1 199 -6 310 -6c231 0 387 144 387 301s-156 301 -387 301c-112 0 -205 -5 -310 -6v-590zM160 860h93l100 -102l100 102h93l-162 -122h-62z" />
    <glyph glyph-name="dcaron" unicode="&#x10f;" horiz-adv-x="890" 
d="M50 0v700c126 0 236 6 370 6c258 0 448 -163 448 -356s-190 -356 -448 -356c-134 0 -246 6 -370 6zM110 55c101 -1 199 -6 310 -6c231 0 387 144 387 301s-156 301 -387 301c-112 0 -205 -5 -310 -6v-590zM160 860h93l100 -102l100 102h93l-162 -122h-62z" />
    <glyph glyph-name="Dcroat" unicode="&#x110;" horiz-adv-x="906" 
d="M4 324v52h62v324c126 0 236 6 370 6c258 0 448 -163 448 -356s-190 -356 -448 -356c-134 0 -246 6 -370 6v324h-62zM126 54c101 -1 199 -5 310 -5c231 0 387 144 387 301s-156 301 -387 301c-112 0 -205 -4 -310 -5v-270h253v-52h-253v-270z" />
    <glyph glyph-name="dcroat" unicode="&#x111;" horiz-adv-x="906" 
d="M4 324v52h62v324c126 0 236 6 370 6c258 0 448 -163 448 -356s-190 -356 -448 -356c-134 0 -246 6 -370 6v324h-62zM126 54c101 -1 199 -5 310 -5c231 0 387 144 387 301s-156 301 -387 301c-112 0 -205 -4 -310 -5v-270h253v-52h-253v-270z" />
    <glyph glyph-name="Emacron" unicode="&#x112;" horiz-adv-x="756" 
d="M50 0v700h690v-54h-629v-270h569v-52h-569v-270h629v-54h-690zM220 768v47h328v-47h-328z" />
    <glyph glyph-name="emacron" unicode="&#x113;" horiz-adv-x="756" 
d="M50 0v700h690v-54h-629v-270h569v-52h-569v-270h629v-54h-690zM220 768v47h328v-47h-328z" />
    <glyph glyph-name="Ebreve" unicode="&#x114;" horiz-adv-x="756" 
d="M50 0v700h690v-54h-629v-270h569v-52h-569v-270h629v-54h-690zM166 860h56c1 -44 71 -79 162 -79s161 35 162 79h56c0 -67 -97 -122 -218 -122s-218 55 -218 122z" />
    <glyph glyph-name="ebreve" unicode="&#x115;" horiz-adv-x="756" 
d="M50 0v700h690v-54h-629v-270h569v-52h-569v-270h629v-54h-690zM166 860h56c1 -44 71 -79 162 -79s161 35 162 79h56c0 -67 -97 -122 -218 -122s-218 55 -218 122z" />
    <glyph glyph-name="Edotaccent" unicode="&#x116;" horiz-adv-x="756" 
d="M50 0v700h690v-54h-629v-270h569v-52h-569v-270h629v-54h-690zM354 768v84h60v-84h-60z" />
    <glyph glyph-name="edotaccent" unicode="&#x117;" horiz-adv-x="756" 
d="M50 0v700h690v-54h-629v-270h569v-52h-569v-270h629v-54h-690zM354 768v84h60v-84h-60z" />
    <glyph glyph-name="Eogonek" unicode="&#x118;" horiz-adv-x="756" 
d="M50 0v700h690v-54h-629v-270h569v-52h-569v-270h629v-54h-63h-1h-14c-59 -3 -94 -33 -94 -58c0 -33 32 -56 84 -56c37 0 68 11 103 29l-1 -50c-33 -16 -68 -26 -107 -26c-76 0 -131 40 -131 100c0 24 12 45 32 61h-498z" />
    <glyph glyph-name="eogonek" unicode="&#x119;" horiz-adv-x="756" 
d="M50 0v700h690v-54h-629v-270h569v-52h-569v-270h629v-54h-63h-1h-14c-59 -3 -94 -33 -94 -58c0 -33 32 -56 84 -56c37 0 68 11 103 29l-1 -50c-33 -16 -68 -26 -107 -26c-76 0 -131 40 -131 100c0 24 12 45 32 61h-498z" />
    <glyph glyph-name="Ecaron" unicode="&#x11a;" horiz-adv-x="756" 
d="M50 0v700h690v-54h-629v-270h569v-52h-569v-270h629v-54h-690zM191 860h93l100 -102l100 102h93l-162 -122h-62z" />
    <glyph glyph-name="ecaron" unicode="&#x11b;" horiz-adv-x="756" 
d="M50 0v700h690v-54h-629v-270h569v-52h-569v-270h629v-54h-690zM191 860h93l100 -102l100 102h93l-162 -122h-62z" />
    <glyph glyph-name="Gcircumflex" unicode="&#x11c;" horiz-adv-x="856" 
d="M24 350c0 214 158 360 434 360c159 0 294 -28 344 -45v-57c-123 42 -298 47 -339 47c-242 0 -378 -121 -378 -305c0 -183 151 -305 391 -305c126 0 193 16 303 84v183h-303v52h358v-264c-130 -86 -206 -110 -358 -110c-276 0 -452 146 -452 360zM261 741l162 122h62
l162 -122h-93l-100 102l-100 -102h-93z" />
    <glyph glyph-name="gcircumflex" unicode="&#x11d;" horiz-adv-x="856" 
d="M24 350c0 214 158 360 434 360c159 0 294 -28 344 -45v-57c-123 42 -298 47 -339 47c-242 0 -378 -121 -378 -305c0 -183 151 -305 391 -305c126 0 193 16 303 84v183h-303v52h358v-264c-130 -86 -206 -110 -358 -110c-276 0 -452 146 -452 360zM261 741l162 122h62
l162 -122h-93l-100 102l-100 -102h-93z" />
    <glyph glyph-name="Gbreve" unicode="&#x11e;" horiz-adv-x="856" 
d="M24 350c0 214 158 360 434 360c159 0 294 -28 344 -45v-57c-123 42 -298 47 -339 47c-242 0 -378 -121 -378 -305c0 -183 151 -305 391 -305c126 0 193 16 303 84v183h-303v52h358v-264c-130 -86 -206 -110 -358 -110c-276 0 -452 146 -452 360zM236 863h56
c1 -44 71 -79 162 -79s161 35 162 79h56c0 -67 -97 -122 -218 -122s-218 55 -218 122z" />
    <glyph glyph-name="gbreve" unicode="&#x11f;" horiz-adv-x="856" 
d="M24 350c0 214 158 360 434 360c159 0 294 -28 344 -45v-57c-123 42 -298 47 -339 47c-242 0 -378 -121 -378 -305c0 -183 151 -305 391 -305c126 0 193 16 303 84v183h-303v52h358v-264c-130 -86 -206 -110 -358 -110c-276 0 -452 146 -452 360zM236 863h56
c1 -44 71 -79 162 -79s161 35 162 79h56c0 -67 -97 -122 -218 -122s-218 55 -218 122z" />
    <glyph glyph-name="Gdotaccent" unicode="&#x120;" horiz-adv-x="856" 
d="M24 350c0 214 158 360 434 360c159 0 294 -28 344 -45v-57c-123 42 -298 47 -339 47c-242 0 -378 -121 -378 -305c0 -183 151 -305 391 -305c126 0 193 16 303 84v183h-303v52h358v-264c-130 -86 -206 -110 -358 -110c-276 0 -452 146 -452 360zM424 771v84h60v-84h-60z
" />
    <glyph glyph-name="gdotaccent" unicode="&#x121;" horiz-adv-x="856" 
d="M24 350c0 214 158 360 434 360c159 0 294 -28 344 -45v-57c-123 42 -298 47 -339 47c-242 0 -378 -121 -378 -305c0 -183 151 -305 391 -305c126 0 193 16 303 84v183h-303v52h358v-264c-130 -86 -206 -110 -358 -110c-276 0 -452 146 -452 360zM424 771v84h60v-84h-60z
" />
    <glyph glyph-name="Gcommaaccent" unicode="&#x122;" horiz-adv-x="856" 
d="M24 350c0 214 158 360 434 360c159 0 294 -28 344 -45v-57c-123 42 -298 47 -339 47c-242 0 -378 -121 -378 -305c0 -183 151 -305 391 -305c126 0 193 16 303 84v183h-303v52h358v-264c-130 -86 -206 -110 -358 -110c-276 0 -452 146 -452 360zM433 -47h68v-59l-29 -80
h-33l16 82h-22v57z" />
    <glyph glyph-name="gcommaaccent" unicode="&#x123;" horiz-adv-x="856" 
d="M24 350c0 214 158 360 434 360c159 0 294 -28 344 -45v-57c-123 42 -298 47 -339 47c-242 0 -378 -121 -378 -305c0 -183 151 -305 391 -305c126 0 193 16 303 84v183h-303v52h358v-264c-130 -86 -206 -110 -358 -110c-276 0 -452 146 -452 360zM433 -47h68v-59l-29 -80
h-33l16 82h-22v57z" />
    <glyph glyph-name="Hcircumflex" unicode="&#x124;" horiz-adv-x="890" 
d="M50 0v700h61v-323h668v323h61v-700h-61v323h-668v-323h-61zM254 738l162 122h62l162 -122h-93l-100 102l-100 -102h-93z" />
    <glyph glyph-name="hcircumflex" unicode="&#x125;" horiz-adv-x="890" 
d="M50 0v700h61v-323h668v323h61v-700h-61v323h-668v-323h-61zM254 738l162 122h62l162 -122h-93l-100 102l-100 -102h-93z" />
    <glyph glyph-name="Hbar" unicode="&#x126;" horiz-adv-x="890" 
d="M2 547v42h65v111h60v-111h636v111h60v-111h65v-42h-65v-547h-60v323h-636v-323h-60v547h-65zM127 377h636v170h-636v-170z" />
    <glyph glyph-name="hbar" unicode="&#x127;" horiz-adv-x="890" 
d="M2 547v42h65v111h60v-111h636v111h60v-111h65v-42h-65v-547h-60v323h-636v-323h-60v547h-65zM127 377h636v170h-636v-170z" />
    <glyph glyph-name="Itilde" unicode="&#x128;" horiz-adv-x="160" 
d="M-74 760v44c22 21 50 29 76 29c29 0 57 -9 81 -18c20 -8 44 -13 68 -13c30 0 57 8 85 30v-43c-24 -24 -54 -32 -83 -32c-26 0 -53 7 -74 15c-22 8 -48 15 -75 15s-53 -7 -78 -27zM50 0v700h61v-700h-61z" />
    <glyph glyph-name="itilde" unicode="&#x129;" horiz-adv-x="160" 
d="M-74 760v44c22 21 50 29 76 29c29 0 57 -9 81 -18c20 -8 44 -13 68 -13c30 0 57 8 85 30v-43c-24 -24 -54 -32 -83 -32c-26 0 -53 7 -74 15c-22 8 -48 15 -75 15s-53 -7 -78 -27zM50 0v700h61v-700h-61z" />
    <glyph glyph-name="Imacron" unicode="&#x12a;" horiz-adv-x="160" 
d="M-83 768v47h328v-47h-328zM50 0v700h61v-700h-61z" />
    <glyph glyph-name="imacron" unicode="&#x12b;" horiz-adv-x="160" 
d="M-83 768v47h328v-47h-328zM50 0v700h61v-700h-61z" />
    <glyph glyph-name="Ibreve" unicode="&#x12c;" horiz-adv-x="160" 
d="M-137 860h56c1 -44 71 -79 162 -79s161 35 162 79h57c0 -67 -98 -122 -219 -122s-218 55 -218 122zM50 0v700h61v-700h-61z" />
    <glyph glyph-name="ibreve" unicode="&#x12d;" horiz-adv-x="160" 
d="M-137 860h56c1 -44 71 -79 162 -79s161 35 162 79h57c0 -67 -98 -122 -219 -122s-218 55 -218 122zM50 0v700h61v-700h-61z" />
    <glyph glyph-name="Iogonek" unicode="&#x12e;" horiz-adv-x="160" 
d="M-37 -69c0 42 36 78 87 92v677h61v-708h-4h-4c-52 0 -89 -27 -89 -58c0 -33 32 -56 84 -56c37 0 68 11 103 29l-1 -51c-33 -16 -68 -25 -107 -25c-76 0 -130 40 -130 100z" />
    <glyph glyph-name="iogonek" unicode="&#x12f;" horiz-adv-x="160" 
d="M-37 -69c0 42 36 78 87 92v677h61v-708h-4h-4c-52 0 -89 -27 -89 -58c0 -33 32 -56 84 -56c37 0 68 11 103 29l-1 -51c-33 -16 -68 -25 -107 -25c-76 0 -130 40 -130 100z" />
    <glyph glyph-name="Idotaccent" unicode="&#x130;" horiz-adv-x="160" 
d="M50 0v700h61v-700h-61zM51 768v84h60v-84h-60z" />
    <glyph glyph-name="dotlessi" unicode="&#x131;" horiz-adv-x="160" 
d="M50 0v700h61v-700h-61z" />
    <glyph glyph-name="IJ" unicode="&#x132;" horiz-adv-x="753" 
d="M46 36v56c88 -50 172 -78 271 -78c186 0 337 102 337 228v403h-427v55h488v-462c0 -155 -178 -280 -397 -280c-99 0 -184 28 -272 78zM50 182v518h61v-518h-61z" />
    <glyph glyph-name="ij" unicode="&#x133;" horiz-adv-x="753" 
d="M46 36v56c88 -50 172 -78 271 -78c186 0 337 102 337 228v403h-427v55h488v-462c0 -155 -178 -280 -397 -280c-99 0 -184 28 -272 78zM50 182v518h61v-518h-61z" />
    <glyph glyph-name="Jcircumflex" unicode="&#x134;" horiz-adv-x="693" 
d="M16 68v56c88 -50 172 -79 271 -79c171 0 307 99 307 199v401h-574v55h635v-460c0 -126 -164 -250 -367 -250c-99 0 -184 28 -272 78zM112 738l162 122h62l162 -122h-93l-100 102l-100 -102h-93z" />
    <glyph glyph-name="jcircumflex" unicode="&#x135;" horiz-adv-x="693" 
d="M16 68v56c88 -50 172 -79 271 -79c171 0 307 99 307 199v401h-574v55h635v-460c0 -126 -164 -250 -367 -250c-99 0 -184 28 -272 78zM112 738l162 122h62l162 -122h-93l-100 102l-100 -102h-93z" />
    <glyph glyph-name="Kcommaaccent" unicode="&#x136;" horiz-adv-x="852" 
d="M50 0v700h61v-313h323l323 313h82l-354 -340l365 -360h-83l-334 332h-322v-332h-61zM342 -42h68v-59l-29 -80h-33l16 82h-22v57z" />
    <glyph glyph-name="kcommaaccent" unicode="&#x137;" horiz-adv-x="852" 
d="M50 0v700h61v-313h323l323 313h82l-354 -340l365 -360h-83l-334 332h-322v-332h-61zM342 -42h68v-59l-29 -80h-33l16 82h-22v57z" />
    <glyph glyph-name="kgreenlandic" unicode="&#x138;" horiz-adv-x="852" 
d="M50 0v700h61v-313h323l323 313h82l-354 -340l365 -360h-83l-334 332h-322v-332h-61z" />
    <glyph glyph-name="Lacute" unicode="&#x139;" horiz-adv-x="670" 
d="M50 0v700h61v-645h345l201 6l-2 -61h-605zM80 738l117 122h95l-162 -122h-50z" />
    <glyph glyph-name="lacute" unicode="&#x13a;" horiz-adv-x="670" 
d="M50 0v700h61v-645h345l201 6l-2 -61h-605zM80 738l117 122h95l-162 -122h-50z" />
    <glyph glyph-name="Lcommaaccent" unicode="&#x13b;" horiz-adv-x="670" 
d="M50 0v700h61v-645h345l201 6l-2 -61h-605zM306 -42h68v-59l-29 -80h-33l16 82h-22v57z" />
    <glyph glyph-name="lcommaaccent" unicode="&#x13c;" horiz-adv-x="670" 
d="M50 0v700h61v-645h345l201 6l-2 -61h-605zM306 -42h68v-59l-29 -80h-33l16 82h-22v57z" />
    <glyph glyph-name="Lcaron" unicode="&#x13d;" horiz-adv-x="670" 
d="M50 0v700h61v-645h345l201 6l-2 -61h-605zM563 476l32 140h-26v84h68v-87l-46 -137h-28z" />
    <glyph glyph-name="lcaron" unicode="&#x13e;" horiz-adv-x="670" 
d="M50 0v700h61v-645h345l201 6l-2 -61h-605zM563 476l32 140h-26v84h68v-87l-46 -137h-28z" />
    <glyph glyph-name="Ldot" unicode="&#x13f;" horiz-adv-x="670" 
d="M50 0v700h61v-645h345l201 6l-2 -61h-605zM385 385v69h69v-69h-69z" />
    <glyph glyph-name="ldot" unicode="&#x140;" horiz-adv-x="670" 
d="M50 0v700h61v-645h345l201 6l-2 -61h-605zM385 385v69h69v-69h-69z" />
    <glyph glyph-name="Lslash" unicode="&#x141;" horiz-adv-x="736" 
d="M8 282v57l101 27v334h61v-319l454 118v-57l-454 -118v-269h351l201 6v-61h-613v308z" />
    <glyph glyph-name="lslash" unicode="&#x142;" horiz-adv-x="736" 
d="M8 282v57l101 27v334h61v-319l454 118v-57l-454 -118v-269h351l201 6v-61h-613v308z" />
    <glyph glyph-name="Nacute" unicode="&#x143;" horiz-adv-x="900" 
d="M50 0v700h132l564 -642h47v642h57v-700h-131l-565 642h-47v-642h-57zM370 738l117 122h95l-161 -122h-51z" />
    <glyph glyph-name="nacute" unicode="&#x144;" horiz-adv-x="900" 
d="M50 0v700h132l564 -642h47v642h57v-700h-131l-565 642h-47v-642h-57zM370 738l117 122h95l-161 -122h-51z" />
    <glyph glyph-name="Ncommaaccent" unicode="&#x145;" horiz-adv-x="900" 
d="M50 0v700h132l564 -642h47v642h57v-700h-131l-565 642h-47v-642h-57zM356 -42h68v-59l-29 -80h-33l16 82h-22v57z" />
    <glyph glyph-name="ncommaaccent" unicode="&#x146;" horiz-adv-x="900" 
d="M50 0v700h132l564 -642h47v642h57v-700h-131l-565 642h-47v-642h-57zM356 -42h68v-59l-29 -80h-33l16 82h-22v57z" />
    <glyph glyph-name="Ncaron" unicode="&#x147;" horiz-adv-x="900" 
d="M50 0v700h132l564 -642h47v642h57v-700h-131l-565 642h-47v-642h-57zM293 860h93l100 -102l100 102h93l-162 -122h-62z" />
    <glyph glyph-name="ncaron" unicode="&#x148;" horiz-adv-x="900" 
d="M50 0v700h132l564 -642h47v642h57v-700h-131l-565 642h-47v-642h-57zM293 860h93l100 -102l100 102h93l-162 -122h-62z" />
    <glyph glyph-name="Omacron" unicode="&#x14c;" 
d="M24 350c0 213 172 360 430 360s430 -147 430 -360s-172 -360 -430 -360s-430 147 -430 360zM86 350c0 -183 147 -305 368 -305s368 122 368 305s-147 305 -368 305s-368 -122 -368 -305zM278 768v47h328v-47h-328z" />
    <glyph glyph-name="omacron" unicode="&#x14d;" 
d="M24 350c0 213 172 360 430 360s430 -147 430 -360s-172 -360 -430 -360s-430 147 -430 360zM86 350c0 -183 147 -305 368 -305s368 122 368 305s-147 305 -368 305s-368 -122 -368 -305zM278 768v47h328v-47h-328z" />
    <glyph glyph-name="Obreve" unicode="&#x14e;" 
d="M24 350c0 213 172 360 430 360s430 -147 430 -360s-172 -360 -430 -360s-430 147 -430 360zM86 350c0 -183 147 -305 368 -305s368 122 368 305s-147 305 -368 305s-368 -122 -368 -305zM224 860h56c1 -44 71 -79 162 -79s161 35 162 79h56c0 -67 -97 -122 -218 -122
s-218 55 -218 122z" />
    <glyph glyph-name="obreve" unicode="&#x14f;" 
d="M24 350c0 213 172 360 430 360s430 -147 430 -360s-172 -360 -430 -360s-430 147 -430 360zM86 350c0 -183 147 -305 368 -305s368 122 368 305s-147 305 -368 305s-368 -122 -368 -305zM224 860h56c1 -44 71 -79 162 -79s161 35 162 79h56c0 -67 -97 -122 -218 -122
s-218 55 -218 122z" />
    <glyph glyph-name="Ohungarumlaut" unicode="&#x150;" 
d="M24 350c0 213 172 360 430 360s430 -147 430 -360s-172 -360 -430 -360s-430 147 -430 360zM86 350c0 -183 147 -305 368 -305s368 122 368 305s-147 305 -368 305s-368 -122 -368 -305zM236 738l116 122h93l-161 -122h-48zM520 738l116 122h93l-162 -122h-47z" />
    <glyph glyph-name="ohungarumlaut" unicode="&#x151;" 
d="M24 350c0 213 172 360 430 360s430 -147 430 -360s-172 -360 -430 -360s-430 147 -430 360zM86 350c0 -183 147 -305 368 -305s368 122 368 305s-147 305 -368 305s-368 -122 -368 -305zM236 738l116 122h93l-161 -122h-48zM520 738l116 122h93l-162 -122h-47z" />
    <glyph glyph-name="OE" unicode="&#x152;" horiz-adv-x="1100" 
d="M24 350c0 208 173 350 431 350h73h556v-55h-497v-269h437v-52h-437v-269h497v-55h-556h-73c-258 0 -431 142 -431 350zM86 350c0 -178 148 -295 369 -295h73v590h-73c-221 0 -369 -117 -369 -295z" />
    <glyph glyph-name="oe" unicode="&#x153;" horiz-adv-x="1100" 
d="M24 350c0 208 173 350 431 350h73h556v-55h-497v-269h437v-52h-437v-269h497v-55h-556h-73c-258 0 -431 142 -431 350zM86 350c0 -178 148 -295 369 -295h73v590h-73c-221 0 -369 -117 -369 -295z" />
    <glyph glyph-name="Racute" unicode="&#x154;" horiz-adv-x="880" 
d="M50 0v700c182 0 276 6 460 6c198 0 348 -103 348 -236c0 -114 -114 -209 -263 -227l252 -243h-85l-242 240h-410v-240h-60zM110 293c71 0 287 -1 431 -1c151 0 256 88 256 177c0 92 -111 182 -286 182c-163 0 -268 -6 -401 -6v-352zM329 738l117 122h95l-161 -122h-51z
" />
    <glyph glyph-name="racute" unicode="&#x155;" horiz-adv-x="880" 
d="M50 0v700c182 0 276 6 460 6c198 0 348 -103 348 -236c0 -114 -114 -209 -263 -227l252 -243h-85l-242 240h-410v-240h-60zM110 293c71 0 287 -1 431 -1c151 0 256 88 256 177c0 92 -111 182 -286 182c-163 0 -268 -6 -401 -6v-352zM329 738l117 122h95l-161 -122h-51z
" />
    <glyph glyph-name="Rcommaaccent" unicode="&#x156;" horiz-adv-x="880" 
d="M50 0v700c182 0 276 6 460 6c198 0 348 -103 348 -236c0 -114 -114 -209 -263 -227l252 -243h-85l-242 240h-410v-240h-60zM110 293c71 0 287 -1 431 -1c151 0 256 88 256 177c0 92 -111 182 -286 182c-163 0 -268 -6 -401 -6v-352zM380 -42h68v-59l-29 -80h-33l16 82
h-22v57z" />
    <glyph glyph-name="rcommaaccent" unicode="&#x157;" horiz-adv-x="880" 
d="M50 0v700c182 0 276 6 460 6c198 0 348 -103 348 -236c0 -114 -114 -209 -263 -227l252 -243h-85l-242 240h-410v-240h-60zM110 293c71 0 287 -1 431 -1c151 0 256 88 256 177c0 92 -111 182 -286 182c-163 0 -268 -6 -401 -6v-352zM380 -42h68v-59l-29 -80h-33l16 82
h-22v57z" />
    <glyph glyph-name="Rcaron" unicode="&#x158;" horiz-adv-x="880" 
d="M50 0v700c182 0 276 6 460 6c198 0 348 -103 348 -236c0 -114 -114 -209 -263 -227l252 -243h-85l-242 240h-410v-240h-60zM110 293c71 0 287 -1 431 -1c151 0 256 88 256 177c0 92 -111 182 -286 182c-163 0 -268 -6 -401 -6v-352zM208 860h93l100 -102l100 102h93
l-162 -122h-62z" />
    <glyph glyph-name="rcaron" unicode="&#x159;" horiz-adv-x="880" 
d="M50 0v700c182 0 276 6 460 6c198 0 348 -103 348 -236c0 -114 -114 -209 -263 -227l252 -243h-85l-242 240h-410v-240h-60zM110 293c71 0 287 -1 431 -1c151 0 256 88 256 177c0 92 -111 182 -286 182c-163 0 -268 -6 -401 -6v-352zM208 860h93l100 -102l100 102h93
l-162 -122h-62z" />
    <glyph glyph-name="Sacute" unicode="&#x15a;" horiz-adv-x="863" 
d="M24 99v62c152 -87 266 -117 417 -117c203 0 339 87 339 173c0 101 -79 144 -346 131c-249 -11 -398 38 -398 165c0 121 153 197 394 197c132 0 245 -17 347 -70v-58c-103 58 -213 76 -347 76c-197 0 -332 -57 -332 -145c0 -67 69 -123 335 -110c232 11 408 -17 408 -185
c0 -134 -188 -228 -400 -228c-153 0 -267 30 -417 109zM339 740l116 122h96l-162 -122h-50z" />
    <glyph glyph-name="sacute" unicode="&#x15b;" horiz-adv-x="863" 
d="M24 99v62c152 -87 266 -117 417 -117c203 0 339 87 339 173c0 101 -79 144 -346 131c-249 -11 -398 38 -398 165c0 121 153 197 394 197c132 0 245 -17 347 -70v-58c-103 58 -213 76 -347 76c-197 0 -332 -57 -332 -145c0 -67 69 -123 335 -110c232 11 408 -17 408 -185
c0 -134 -188 -228 -400 -228c-153 0 -267 30 -417 109zM339 740l116 122h96l-162 -122h-50z" />
    <glyph glyph-name="Scircumflex" unicode="&#x15c;" horiz-adv-x="863" 
d="M24 99v62c152 -87 266 -117 417 -117c203 0 339 87 339 173c0 101 -79 144 -346 131c-249 -11 -398 38 -398 165c0 121 153 197 394 197c132 0 245 -17 347 -70v-58c-103 58 -213 76 -347 76c-197 0 -332 -57 -332 -145c0 -67 69 -123 335 -110c232 11 408 -17 408 -185
c0 -134 -188 -228 -400 -228c-153 0 -267 30 -417 109zM216 738l162 122h62l162 -122h-93l-100 102l-100 -102h-93z" />
    <glyph glyph-name="scircumflex" unicode="&#x15d;" horiz-adv-x="863" 
d="M24 99v62c152 -87 266 -117 417 -117c203 0 339 87 339 173c0 101 -79 144 -346 131c-249 -11 -398 38 -398 165c0 121 153 197 394 197c132 0 245 -17 347 -70v-58c-103 58 -213 76 -347 76c-197 0 -332 -57 -332 -145c0 -67 69 -123 335 -110c232 11 408 -17 408 -185
c0 -134 -188 -228 -400 -228c-153 0 -267 30 -417 109zM216 738l162 122h62l162 -122h-93l-100 102l-100 -102h-93z" />
    <glyph glyph-name="Scedilla" unicode="&#x15e;" horiz-adv-x="863" 
d="M24 99v62c152 -87 266 -117 417 -117c203 0 339 87 339 173c0 101 -79 144 -346 131c-249 -11 -398 38 -398 165c0 121 153 197 394 197c132 0 245 -17 347 -70v-58c-103 58 -213 76 -347 76c-197 0 -332 -57 -332 -145c0 -67 69 -123 335 -110c232 11 408 -17 408 -185
c0 -134 -188 -228 -400 -228c-19 0 -37 0 -55 1l-4 -16h28c58 0 106 -33 106 -74c0 -40 -51 -71 -112 -71c-32 0 -65 7 -92 22l8 43c13 -7 41 -22 81 -22c38 0 67 14 67 30c0 18 -27 32 -62 32h-75l12 60c-108 11 -202 43 -319 104z" />
    <glyph glyph-name="scedilla" unicode="&#x15f;" horiz-adv-x="863" 
d="M24 99v62c152 -87 266 -117 417 -117c203 0 339 87 339 173c0 101 -79 144 -346 131c-249 -11 -398 38 -398 165c0 121 153 197 394 197c132 0 245 -17 347 -70v-58c-103 58 -213 76 -347 76c-197 0 -332 -57 -332 -145c0 -67 69 -123 335 -110c232 11 408 -17 408 -185
c0 -134 -188 -228 -400 -228c-19 0 -37 0 -55 1l-4 -16h28c58 0 106 -33 106 -74c0 -40 -51 -71 -112 -71c-32 0 -65 7 -92 22l8 43c13 -7 41 -22 81 -22c38 0 67 14 67 30c0 18 -27 32 -62 32h-75l12 60c-108 11 -202 43 -319 104z" />
    <glyph glyph-name="Scaron" unicode="&#x160;" horiz-adv-x="863" 
d="M24 99v62c152 -87 266 -117 417 -117c203 0 339 87 339 173c0 101 -79 144 -346 131c-249 -11 -398 38 -398 165c0 121 153 197 394 197c132 0 245 -17 347 -70v-58c-103 58 -213 76 -347 76c-197 0 -332 -57 -332 -145c0 -67 69 -123 335 -110c232 11 408 -17 408 -185
c0 -134 -188 -228 -400 -228c-153 0 -267 30 -417 109zM216 860h93l100 -102l100 102h93l-162 -122h-62z" />
    <glyph glyph-name="scaron" unicode="&#x161;" horiz-adv-x="863" 
d="M24 99v62c152 -87 266 -117 417 -117c203 0 339 87 339 173c0 101 -79 144 -346 131c-249 -11 -398 38 -398 165c0 121 153 197 394 197c132 0 245 -17 347 -70v-58c-103 58 -213 76 -347 76c-197 0 -332 -57 -332 -145c0 -67 69 -123 335 -110c232 11 408 -17 408 -185
c0 -134 -188 -228 -400 -228c-153 0 -267 30 -417 109zM216 860h93l100 -102l100 102h93l-162 -122h-62z" />
    <glyph glyph-name="Tcommaaccent" unicode="&#x162;" horiz-adv-x="740" 
d="M10 646v54h720v-54h-329v-646h-20l-5 -25h28c58 0 105 -33 105 -74c0 -40 -50 -71 -111 -71c-32 0 -65 7 -92 22l8 43c13 -7 40 -22 80 -22c38 0 68 14 68 30c0 18 -28 32 -63 32h-74l14 70v641h-329z" />
    <glyph glyph-name="tcommaaccent" unicode="&#x163;" horiz-adv-x="740" 
d="M10 646v54h720v-54h-329v-646h-20l-5 -25h28c58 0 105 -33 105 -74c0 -40 -50 -71 -111 -71c-32 0 -65 7 -92 22l8 43c13 -7 40 -22 80 -22c38 0 68 14 68 30c0 18 -28 32 -63 32h-74l14 70v641h-329z" />
    <glyph glyph-name="Tcaron" unicode="&#x164;" horiz-adv-x="740" 
d="M10 646v54h720v-54h-329v-646h-62v646h-329zM169 860h93l100 -102l100 102h93l-162 -122h-62z" />
    <glyph glyph-name="tcaron" unicode="&#x165;" horiz-adv-x="740" 
d="M10 646v54h720v-54h-329v-646h-62v646h-329zM169 860h93l100 -102l100 102h93l-162 -122h-62z" />
    <glyph glyph-name="Tbar" unicode="&#x166;" horiz-adv-x="740" 
d="M10 646v54h720v-54h-329v-216h211v-42h-211v-388h-62v388h-211v42h211v216h-329z" />
    <glyph glyph-name="tbar" unicode="&#x167;" horiz-adv-x="740" 
d="M10 646v54h720v-54h-329v-216h211v-42h-211v-388h-62v388h-211v42h211v216h-329z" />
    <glyph glyph-name="Utilde" unicode="&#x168;" horiz-adv-x="824" 
d="M38 306v394h61v-395c0 -156 125 -260 313 -260s313 104 313 260v395h61v-394c0 -189 -149 -316 -374 -316s-374 127 -374 316zM253 760v44c22 21 50 29 76 29c29 0 57 -9 81 -18c20 -8 43 -13 67 -13c30 0 58 8 86 30v-43c-24 -24 -55 -32 -84 -32c-26 0 -52 7 -73 15
c-22 8 -48 15 -75 15s-53 -7 -78 -27z" />
    <glyph glyph-name="utilde" unicode="&#x169;" horiz-adv-x="824" 
d="M38 306v394h61v-395c0 -156 125 -260 313 -260s313 104 313 260v395h61v-394c0 -189 -149 -316 -374 -316s-374 127 -374 316zM253 760v44c22 21 50 29 76 29c29 0 57 -9 81 -18c20 -8 43 -13 67 -13c30 0 58 8 86 30v-43c-24 -24 -55 -32 -84 -32c-26 0 -52 7 -73 15
c-22 8 -48 15 -75 15s-53 -7 -78 -27z" />
    <glyph glyph-name="Umacron" unicode="&#x16a;" horiz-adv-x="824" 
d="M38 306v394h61v-395c0 -156 125 -260 313 -260s313 104 313 260v395h61v-394c0 -189 -149 -316 -374 -316s-374 127 -374 316zM244 768v47h328v-47h-328z" />
    <glyph glyph-name="umacron" unicode="&#x16b;" horiz-adv-x="824" 
d="M38 306v394h61v-395c0 -156 125 -260 313 -260s313 104 313 260v395h61v-394c0 -189 -149 -316 -374 -316s-374 127 -374 316zM244 768v47h328v-47h-328z" />
    <glyph glyph-name="Ubreve" unicode="&#x16c;" horiz-adv-x="824" 
d="M38 306v394h61v-395c0 -156 125 -260 313 -260s313 104 313 260v395h61v-394c0 -189 -149 -316 -374 -316s-374 127 -374 316zM194 860h56c1 -44 71 -79 162 -79s161 35 162 79h56c0 -67 -97 -122 -218 -122s-218 55 -218 122z" />
    <glyph glyph-name="ubreve" unicode="&#x16d;" horiz-adv-x="824" 
d="M38 306v394h61v-395c0 -156 125 -260 313 -260s313 104 313 260v395h61v-394c0 -189 -149 -316 -374 -316s-374 127 -374 316zM194 860h56c1 -44 71 -79 162 -79s161 35 162 79h56c0 -67 -97 -122 -218 -122s-218 55 -218 122z" />
    <glyph glyph-name="Uring" unicode="&#x16e;" horiz-adv-x="824" 
d="M38 306v394h61v-65v-330c0 -156 125 -260 313 -260s313 104 313 260v330v65h61v-394c0 -189 -149 -316 -374 -316s-374 127 -374 316zM257 695c0 86 69 155 155 155s155 -69 155 -155s-69 -155 -155 -155s-155 69 -155 155zM299 695c0 -63 50 -113 113 -113
s113 50 113 113s-50 113 -113 113s-113 -50 -113 -113z" />
    <glyph glyph-name="uring" unicode="&#x16f;" horiz-adv-x="824" 
d="M38 306v394h61v-65v-330c0 -156 125 -260 313 -260s313 104 313 260v330v65h61v-394c0 -189 -149 -316 -374 -316s-374 127 -374 316zM257 695c0 86 69 155 155 155s155 -69 155 -155s-69 -155 -155 -155s-155 69 -155 155zM299 695c0 -63 50 -113 113 -113
s113 50 113 113s-50 113 -113 113s-113 -50 -113 -113z" />
    <glyph glyph-name="Uhungarumlaut" unicode="&#x170;" horiz-adv-x="824" 
d="M38 306v394h61v-395c0 -156 125 -260 313 -260s313 104 313 260v395h61v-394c0 -189 -149 -316 -374 -316s-374 127 -374 316zM202 738l116 122h93l-162 -122h-47zM486 738l116 122h93l-162 -122h-47z" />
    <glyph glyph-name="uhungarumlaut" unicode="&#x171;" horiz-adv-x="824" 
d="M38 306v394h61v-395c0 -156 125 -260 313 -260s313 104 313 260v395h61v-394c0 -189 -149 -316 -374 -316s-374 127 -374 316zM202 738l116 122h93l-162 -122h-47zM486 738l116 122h93l-162 -122h-47z" />
    <glyph glyph-name="Uogonek" unicode="&#x172;" horiz-adv-x="824" 
d="M38 306v394h61v-395c0 -156 125 -260 313 -260s313 104 313 260v395h61v-394c0 -142 -84 -248 -221 -293c-50 -16 -86 -43 -86 -80c0 -33 33 -55 84 -55c37 0 70 12 105 30l-2 -52c-33 -16 -69 -26 -108 -26c-77 0 -130 41 -130 100c0 23 11 44 31 62
c-15 -1 -31 -2 -47 -2c-225 0 -374 127 -374 316z" />
    <glyph glyph-name="uogonek" unicode="&#x173;" horiz-adv-x="824" 
d="M38 306v394h61v-395c0 -156 125 -260 313 -260s313 104 313 260v395h61v-394c0 -142 -84 -248 -221 -293c-50 -16 -86 -43 -86 -80c0 -33 33 -55 84 -55c37 0 70 12 105 30l-2 -52c-33 -16 -69 -26 -108 -26c-77 0 -130 41 -130 100c0 23 11 44 31 62
c-15 -1 -31 -2 -47 -2c-225 0 -374 127 -374 316z" />
    <glyph glyph-name="Wcircumflex" unicode="&#x174;" horiz-adv-x="1152" 
d="M1 700h66l212 -642h60l174 632h126l174 -632h60l212 642h66l-238 -700h-142l-177 636h-36l-177 -636h-142zM379 738l162 122h62l162 -122h-93l-100 102l-100 -102h-93z" />
    <glyph glyph-name="wcircumflex" unicode="&#x175;" horiz-adv-x="1152" 
d="M1 700h66l212 -642h60l174 632h126l174 -632h60l212 642h66l-238 -700h-142l-177 636h-36l-177 -636h-142zM379 738l162 122h62l162 -122h-93l-100 102l-100 -102h-93z" />
    <glyph glyph-name="Ycircumflex" unicode="&#x176;" horiz-adv-x="864" 
d="M2 700h80l352 -362h2l348 362h78l-398 -409v-291h-61v291zM256 738l162 122h62l162 -122h-93l-100 102l-100 -102h-93z" />
    <glyph glyph-name="ycircumflex" unicode="&#x177;" horiz-adv-x="864" 
d="M2 700h80l352 -362h2l348 362h78l-398 -409v-291h-61v291zM256 738l162 122h62l162 -122h-93l-100 102l-100 -102h-93z" />
    <glyph glyph-name="Ydieresis" unicode="&#x178;" horiz-adv-x="864" 
d="M2 700h80l352 -362h2l348 362h78l-398 -409v-291h-61v291zM299 768v84h60v-84h-60zM539 768v84h60v-84h-60z" />
    <glyph glyph-name="Zacute" unicode="&#x179;" horiz-adv-x="740" 
d="M20 0v84l627 544v17h-620v55h688v-84l-627 -544v-17h632v-55h-700zM294 738l117 122h95l-161 -122h-51z" />
    <glyph glyph-name="zacute" unicode="&#x17a;" horiz-adv-x="740" 
d="M20 0v84l627 544v17h-620v55h688v-84l-627 -544v-17h632v-55h-700zM294 738l117 122h95l-161 -122h-51z" />
    <glyph glyph-name="Zdotaccent" unicode="&#x17b;" horiz-adv-x="740" 
d="M20 0v84l627 544v17h-620v55h688v-84l-627 -544v-17h632v-55h-700zM336 768v84h60v-84h-60z" />
    <glyph glyph-name="zdotaccent" unicode="&#x17c;" horiz-adv-x="740" 
d="M20 0v84l627 544v17h-620v55h688v-84l-627 -544v-17h632v-55h-700zM336 768v84h60v-84h-60z" />
    <glyph glyph-name="Zcaron" unicode="&#x17d;" horiz-adv-x="740" 
d="M20 0v84l627 544v17h-620v55h688v-84l-627 -544v-17h632v-55h-700zM167 860h93l100 -102l100 102h93l-162 -122h-62z" />
    <glyph glyph-name="zcaron" unicode="&#x17e;" horiz-adv-x="740" 
d="M20 0v84l627 544v17h-620v55h688v-84l-627 -544v-17h632v-55h-700zM167 860h93l100 -102l100 102h93l-162 -122h-62z" />
    <glyph glyph-name="uni01CD" unicode="&#x1cd;" horiz-adv-x="888" 
d="M2 0l351 700h183l351 -700h-65l-91 181h-574l-91 -181h-64zM181 233h526l-207 411h-112zM251 860h93l100 -102l100 102h93l-162 -122h-62z" />
    <glyph glyph-name="uni01CE" unicode="&#x1ce;" horiz-adv-x="888" 
d="M2 0l351 700h183l351 -700h-65l-91 181h-574l-91 -181h-64zM181 233h526l-207 411h-112zM251 860h93l100 -102l100 102h93l-162 -122h-62z" />
    <glyph glyph-name="uni01CF" unicode="&#x1cf;" horiz-adv-x="160" 
d="M-112 860h92l100 -102l100 102h93l-161 -122h-63zM50 0v700h61v-700h-61z" />
    <glyph glyph-name="uni01D0" unicode="&#x1d0;" horiz-adv-x="160" 
d="M-112 860h92l100 -102l100 102h93l-161 -122h-63zM50 0v700h61v-700h-61z" />
    <glyph glyph-name="uni01D1" unicode="&#x1d1;" 
d="M24 350c0 213 172 360 430 360s430 -147 430 -360s-172 -360 -430 -360s-430 147 -430 360zM86 350c0 -183 147 -305 368 -305s368 122 368 305s-147 305 -368 305s-368 -122 -368 -305zM250 860h93l100 -102l99 102h93l-161 -122h-63z" />
    <glyph glyph-name="uni01D2" unicode="&#x1d2;" 
d="M24 350c0 213 172 360 430 360s430 -147 430 -360s-172 -360 -430 -360s-430 147 -430 360zM86 350c0 -183 147 -305 368 -305s368 122 368 305s-147 305 -368 305s-368 -122 -368 -305zM250 860h93l100 -102l99 102h93l-161 -122h-63z" />
    <glyph glyph-name="uni01D3" unicode="&#x1d3;" horiz-adv-x="824" 
d="M38 306v394h61v-395c0 -156 125 -260 313 -260s313 104 313 260v395h61v-394c0 -189 -149 -316 -374 -316s-374 127 -374 316zM219 860h93l100 -102l100 102h93l-162 -122h-62z" />
    <glyph glyph-name="uni01D4" unicode="&#x1d4;" horiz-adv-x="824" 
d="M38 306v394h61v-395c0 -156 125 -260 313 -260s313 104 313 260v395h61v-394c0 -189 -149 -316 -374 -316s-374 127 -374 316zM219 860h93l100 -102l100 102h93l-162 -122h-62z" />
    <glyph glyph-name="uni01E2" unicode="&#x1e2;" horiz-adv-x="1134" 
d="M2 0l351 700h765v-55h-499v-269h439v-52h-439v-269h499v-55h-558v181h-403l-91 -181h-64zM181 233h379v412h-172zM442 768v47h328v-47h-328z" />
    <glyph glyph-name="uni01E3" unicode="&#x1e3;" horiz-adv-x="1134" 
d="M2 0l351 700h765v-55h-499v-269h439v-52h-439v-269h499v-55h-558v181h-403l-91 -181h-64zM181 233h379v412h-172zM442 768v47h328v-47h-328z" />
    <glyph glyph-name="Gcaron" unicode="&#x1e6;" horiz-adv-x="856" 
d="M24 350c0 214 158 360 434 360c159 0 294 -28 344 -45v-57c-123 42 -298 47 -339 47c-242 0 -378 -121 -378 -305c0 -183 151 -305 391 -305c126 0 193 16 303 84v183h-303v52h358v-264c-130 -86 -206 -110 -358 -110c-276 0 -452 146 -452 360zM261 863h93l100 -102
l100 102h93l-162 -122h-62z" />
    <glyph glyph-name="gcaron" unicode="&#x1e7;" horiz-adv-x="856" 
d="M24 350c0 214 158 360 434 360c159 0 294 -28 344 -45v-57c-123 42 -298 47 -339 47c-242 0 -378 -121 -378 -305c0 -183 151 -305 391 -305c126 0 193 16 303 84v183h-303v52h358v-264c-130 -86 -206 -110 -358 -110c-276 0 -452 146 -452 360zM261 863h93l100 -102
l100 102h93l-162 -122h-62z" />
    <glyph glyph-name="uni01E8" unicode="&#x1e8;" horiz-adv-x="852" 
d="M50 0v700h61v-313h323l323 313h82l-354 -340l365 -360h-83l-334 332h-322v-332h-61zM192 860h93l100 -102l100 102h92l-161 -122h-62z" />
    <glyph glyph-name="uni01E9" unicode="&#x1e9;" horiz-adv-x="852" 
d="M50 0v700h61v-313h323l323 313h82l-354 -340l365 -360h-83l-334 332h-322v-332h-61zM192 860h93l100 -102l100 102h92l-161 -122h-62z" />
    <glyph glyph-name="uni01EA" unicode="&#x1ea;" 
d="M24 350c0 213 172 360 430 360s430 -147 430 -360c0 -161 -98 -284 -257 -334c-51 -18 -98 -46 -98 -83c0 -34 33 -55 83 -55c37 0 74 16 109 34l-2 -53c-33 -16 -73 -29 -112 -29c-77 0 -130 40 -130 100c0 24 12 45 34 63c-19 -2 -37 -3 -57 -3
c-258 0 -430 147 -430 360zM86 350c0 -183 147 -305 368 -305s368 122 368 305s-147 305 -368 305s-368 -122 -368 -305z" />
    <glyph glyph-name="uni01EB" unicode="&#x1eb;" 
d="M24 350c0 213 172 360 430 360s430 -147 430 -360c0 -161 -98 -284 -257 -334c-51 -18 -98 -46 -98 -83c0 -34 33 -55 83 -55c37 0 74 16 109 34l-2 -53c-33 -16 -73 -29 -112 -29c-77 0 -130 40 -130 100c0 24 12 45 34 63c-19 -2 -37 -3 -57 -3
c-258 0 -430 147 -430 360zM86 350c0 -183 147 -305 368 -305s368 122 368 305s-147 305 -368 305s-368 -122 -368 -305z" />
    <glyph glyph-name="uni01EC" unicode="&#x1ec;" 
d="M24 350c0 213 172 360 430 360s430 -147 430 -360c0 -161 -98 -284 -257 -334c-51 -18 -98 -46 -98 -83c0 -34 33 -55 83 -55c37 0 74 16 109 34l-2 -53c-33 -16 -73 -29 -112 -29c-77 0 -130 40 -130 100c0 24 12 45 34 63c-19 -2 -37 -3 -57 -3
c-258 0 -430 147 -430 360zM86 350c0 -183 147 -305 368 -305s368 122 368 305s-147 305 -368 305s-368 -122 -368 -305zM284 768v47h328v-47h-328z" />
    <glyph glyph-name="uni01ED" unicode="&#x1ed;" 
d="M24 350c0 213 172 360 430 360s430 -147 430 -360c0 -161 -98 -284 -257 -334c-51 -18 -98 -46 -98 -83c0 -34 33 -55 83 -55c37 0 74 16 109 34l-2 -53c-33 -16 -73 -29 -112 -29c-77 0 -130 40 -130 100c0 24 12 45 34 63c-19 -2 -37 -3 -57 -3
c-258 0 -430 147 -430 360zM86 350c0 -183 147 -305 368 -305s368 122 368 305s-147 305 -368 305s-368 -122 -368 -305zM284 768v47h328v-47h-328z" />
    <glyph glyph-name="uni01F4" unicode="&#x1f4;" horiz-adv-x="856" 
d="M24 350c0 214 158 360 434 360c159 0 294 -28 344 -45v-57c-123 42 -298 47 -339 47c-242 0 -378 -121 -378 -305c0 -183 151 -305 391 -305c126 0 193 16 303 84v183h-303v52h358v-264c-130 -86 -206 -110 -358 -110c-276 0 -452 146 -452 360zM382 741l117 122h95
l-161 -122h-51z" />
    <glyph glyph-name="uni01F5" unicode="&#x1f5;" horiz-adv-x="856" 
d="M24 350c0 214 158 360 434 360c159 0 294 -28 344 -45v-57c-123 42 -298 47 -339 47c-242 0 -378 -121 -378 -305c0 -183 151 -305 391 -305c126 0 193 16 303 84v183h-303v52h358v-264c-130 -86 -206 -110 -358 -110c-276 0 -452 146 -452 360zM382 741l117 122h95
l-161 -122h-51z" />
    <glyph glyph-name="uni01F8" unicode="&#x1f8;" horiz-adv-x="900" 
d="M50 0v700h132l564 -642h47v642h57v-700h-131l-565 642h-47v-642h-57zM348 860h96l115 -122h-50z" />
    <glyph glyph-name="uni01F9" unicode="&#x1f9;" horiz-adv-x="900" 
d="M50 0v700h132l564 -642h47v642h57v-700h-131l-565 642h-47v-642h-57zM348 860h96l115 -122h-50z" />
    <glyph glyph-name="AEacute" unicode="&#x1fc;" horiz-adv-x="1134" 
d="M2 0l351 700h765v-55h-499v-269h439v-52h-439v-269h499v-55h-558v181h-403l-91 -181h-64zM181 233h379v412h-172zM534 738l117 122h95l-162 -122h-50z" />
    <glyph glyph-name="aeacute" unicode="&#x1fd;" horiz-adv-x="1134" 
d="M2 0l351 700h765v-55h-499v-269h439v-52h-439v-269h499v-55h-558v181h-403l-91 -181h-64zM181 233h379v412h-172zM534 738l117 122h95l-162 -122h-50z" />
    <glyph glyph-name="Oslashacute" unicode="&#x1fe;" 
d="M24 350c0 213 172 360 430 360c76 0 144 -13 203 -36l76 101l35 -26l-70 -94c117 -61 186 -169 186 -305c0 -213 -172 -360 -430 -360c-83 0 -157 15 -219 42l-79 -107l-36 26l76 101c-108 62 -172 168 -172 298zM86 350c0 -110 53 -198 144 -251l393 528
c-49 18 -106 28 -169 28c-221 0 -368 -122 -368 -305zM270 79c53 -22 115 -34 184 -34c221 0 368 122 368 305c0 116 -59 208 -158 259zM382 738l117 122h95l-161 -122h-51z" />
    <glyph glyph-name="oslashacute" unicode="&#x1ff;" 
d="M24 350c0 213 172 360 430 360c76 0 144 -13 203 -36l76 101l35 -26l-70 -94c117 -61 186 -169 186 -305c0 -213 -172 -360 -430 -360c-83 0 -157 15 -219 42l-79 -107l-36 26l76 101c-108 62 -172 168 -172 298zM86 350c0 -110 53 -198 144 -251l393 528
c-49 18 -106 28 -169 28c-221 0 -368 -122 -368 -305zM270 79c53 -22 115 -34 184 -34c221 0 368 122 368 305c0 116 -59 208 -158 259zM382 738l117 122h95l-161 -122h-51z" />
    <glyph glyph-name="uni0200" unicode="&#x200;" horiz-adv-x="888" 
d="M2 0l351 700h183l351 -700h-65l-91 181h-574l-91 -181h-64zM157 860h93l116 -122h-47zM181 233h526l-207 411h-112zM441 860h93l116 -122h-48z" />
    <glyph glyph-name="uni0201" unicode="&#x201;" horiz-adv-x="888" 
d="M2 0l351 700h183l351 -700h-65l-91 181h-574l-91 -181h-64zM157 860h93l116 -122h-47zM181 233h526l-207 411h-112zM441 860h93l116 -122h-48z" />
    <glyph glyph-name="uni0202" unicode="&#x202;" horiz-adv-x="888" 
d="M2 0l351 700h183l351 -700h-65l-91 181h-574l-91 -181h-64zM181 233h526l-207 411h-112zM226 728c0 67 97 122 218 122s218 -55 218 -122h-56c-1 44 -71 79 -162 79s-161 -35 -162 -79h-56z" />
    <glyph glyph-name="uni0203" unicode="&#x203;" horiz-adv-x="888" 
d="M2 0l351 700h183l351 -700h-65l-91 181h-574l-91 -181h-64zM181 233h526l-207 411h-112zM226 728c0 67 97 122 218 122s218 -55 218 -122h-56c-1 44 -71 79 -162 79s-161 -35 -162 -79h-56z" />
    <glyph glyph-name="uni0204" unicode="&#x204;" horiz-adv-x="756" 
d="M50 0v700h690v-54h-629v-270h569v-52h-569v-270h629v-54h-690zM97 860h93l116 -122h-47zM381 860h93l116 -122h-48z" />
    <glyph glyph-name="uni0205" unicode="&#x205;" horiz-adv-x="756" 
d="M50 0v700h690v-54h-629v-270h569v-52h-569v-270h629v-54h-690zM97 860h93l116 -122h-47zM381 860h93l116 -122h-48z" />
    <glyph glyph-name="uni0206" unicode="&#x206;" horiz-adv-x="756" 
d="M50 0v700h690v-54h-629v-270h569v-52h-569v-270h629v-54h-690zM166 728c0 67 97 122 218 122s218 -55 218 -122h-56c-1 44 -71 79 -162 79s-161 -35 -162 -79h-56z" />
    <glyph glyph-name="uni0207" unicode="&#x207;" horiz-adv-x="756" 
d="M50 0v700h690v-54h-629v-270h569v-52h-569v-270h629v-54h-690zM166 728c0 67 97 122 218 122s218 -55 218 -122h-56c-1 44 -71 79 -162 79s-161 -35 -162 -79h-56z" />
    <glyph glyph-name="uni0208" unicode="&#x208;" horiz-adv-x="160" 
d="M-206 860h92l117 -122h-48zM50 0v700h61v-700h-61zM77 860h93l116 -122h-47z" />
    <glyph glyph-name="uni0209" unicode="&#x209;" horiz-adv-x="160" 
d="M-206 860h92l117 -122h-48zM50 0v700h61v-700h-61zM77 860h93l116 -122h-47z" />
    <glyph glyph-name="uni020A" unicode="&#x20a;" horiz-adv-x="160" 
d="M-138 728c0 67 97 122 218 122s219 -55 219 -122h-56c-1 44 -72 79 -163 79s-161 -35 -162 -79h-56zM50 0v700h61v-700h-61z" />
    <glyph glyph-name="uni020B" unicode="&#x20b;" horiz-adv-x="160" 
d="M-138 728c0 67 97 122 218 122s219 -55 219 -122h-56c-1 44 -72 79 -163 79s-161 -35 -162 -79h-56zM50 0v700h61v-700h-61z" />
    <glyph glyph-name="uni020C" unicode="&#x20c;" 
d="M24 350c0 213 172 360 430 360s430 -147 430 -360s-172 -360 -430 -360s-430 147 -430 360zM86 350c0 -183 147 -305 368 -305s368 122 368 305s-147 305 -368 305s-368 -122 -368 -305zM156 860h92l117 -122h-48zM440 860h92l117 -122h-48z" />
    <glyph glyph-name="uni020D" unicode="&#x20d;" 
d="M24 350c0 213 172 360 430 360s430 -147 430 -360s-172 -360 -430 -360s-430 147 -430 360zM86 350c0 -183 147 -305 368 -305s368 122 368 305s-147 305 -368 305s-368 -122 -368 -305zM156 860h92l117 -122h-48zM440 860h92l117 -122h-48z" />
    <glyph glyph-name="uni020E" unicode="&#x20e;" 
d="M24 350c0 213 172 360 430 360s430 -147 430 -360s-172 -360 -430 -360s-430 147 -430 360zM86 350c0 -183 147 -305 368 -305s368 122 368 305s-147 305 -368 305s-368 -122 -368 -305zM224 728c0 67 98 122 219 122s218 -55 218 -122h-56c-1 44 -71 79 -162 79
s-162 -35 -163 -79h-56z" />
    <glyph glyph-name="uni020F" unicode="&#x20f;" 
d="M24 350c0 213 172 360 430 360s430 -147 430 -360s-172 -360 -430 -360s-430 147 -430 360zM86 350c0 -183 147 -305 368 -305s368 122 368 305s-147 305 -368 305s-368 -122 -368 -305zM224 728c0 67 98 122 219 122s218 -55 218 -122h-56c-1 44 -71 79 -162 79
s-162 -35 -163 -79h-56z" />
    <glyph glyph-name="uni0210" unicode="&#x210;" horiz-adv-x="880" 
d="M50 0v700c182 0 276 6 460 6c198 0 348 -103 348 -236c0 -114 -114 -209 -263 -227l252 -243h-85l-242 240h-410v-240h-60zM110 293c71 0 287 -1 431 -1c151 0 256 88 256 177c0 92 -111 182 -286 182c-163 0 -268 -6 -401 -6v-352zM114 860h93l116 -122h-47zM398 860h93
l116 -122h-47z" />
    <glyph glyph-name="uni0211" unicode="&#x211;" horiz-adv-x="880" 
d="M50 0v700c182 0 276 6 460 6c198 0 348 -103 348 -236c0 -114 -114 -209 -263 -227l252 -243h-85l-242 240h-410v-240h-60zM110 293c71 0 287 -1 431 -1c151 0 256 88 256 177c0 92 -111 182 -286 182c-163 0 -268 -6 -401 -6v-352zM114 860h93l116 -122h-47zM398 860h93
l116 -122h-47z" />
    <glyph glyph-name="uni0212" unicode="&#x212;" horiz-adv-x="880" 
d="M50 0v700c182 0 276 6 460 6c198 0 348 -103 348 -236c0 -114 -114 -209 -263 -227l252 -243h-85l-242 240h-410v-240h-60zM110 293c71 0 287 -1 431 -1c151 0 256 88 256 177c0 92 -111 182 -286 182c-163 0 -268 -6 -401 -6v-352zM183 728c0 67 97 122 218 122
s218 -55 218 -122h-56c-1 44 -71 79 -162 79s-161 -35 -162 -79h-56z" />
    <glyph glyph-name="uni0213" unicode="&#x213;" horiz-adv-x="880" 
d="M50 0v700c182 0 276 6 460 6c198 0 348 -103 348 -236c0 -114 -114 -209 -263 -227l252 -243h-85l-242 240h-410v-240h-60zM110 293c71 0 287 -1 431 -1c151 0 256 88 256 177c0 92 -111 182 -286 182c-163 0 -268 -6 -401 -6v-352zM183 728c0 67 97 122 218 122
s218 -55 218 -122h-56c-1 44 -71 79 -162 79s-161 -35 -162 -79h-56z" />
    <glyph glyph-name="uni0214" unicode="&#x214;" horiz-adv-x="824" 
d="M38 306v394h61v-395c0 -156 125 -260 313 -260s313 104 313 260v395h61v-394c0 -189 -149 -316 -374 -316s-374 127 -374 316zM125 860h93l116 -122h-47zM409 860h93l116 -122h-48z" />
    <glyph glyph-name="uni0215" unicode="&#x215;" horiz-adv-x="824" 
d="M38 306v394h61v-395c0 -156 125 -260 313 -260s313 104 313 260v395h61v-394c0 -189 -149 -316 -374 -316s-374 127 -374 316zM125 860h93l116 -122h-47zM409 860h93l116 -122h-48z" />
    <glyph glyph-name="uni0216" unicode="&#x216;" horiz-adv-x="824" 
d="M38 306v394h61v-395c0 -156 125 -260 313 -260s313 104 313 260v395h61v-394c0 -189 -149 -316 -374 -316s-374 127 -374 316zM194 728c0 67 97 122 218 122s218 -55 218 -122h-56c-1 44 -71 79 -162 79s-161 -35 -162 -79h-56z" />
    <glyph glyph-name="uni0217" unicode="&#x217;" horiz-adv-x="824" 
d="M38 306v394h61v-395c0 -156 125 -260 313 -260s313 104 313 260v395h61v-394c0 -189 -149 -316 -374 -316s-374 127 -374 316zM194 728c0 67 97 122 218 122s218 -55 218 -122h-56c-1 44 -71 79 -162 79s-161 -35 -162 -79h-56z" />
    <glyph glyph-name="Scommaaccent" unicode="&#x218;" horiz-adv-x="863" 
d="M24 99v62c152 -87 266 -117 417 -117c203 0 339 87 339 173c0 101 -79 144 -346 131c-249 -11 -398 38 -398 165c0 121 153 197 394 197c132 0 245 -17 347 -70v-58c-103 58 -213 76 -347 76c-197 0 -332 -57 -332 -145c0 -67 69 -123 335 -110c232 11 408 -17 408 -185
c0 -134 -188 -228 -400 -228c-153 0 -267 30 -417 109zM369 -42h68v-59l-29 -80h-33l16 82h-22v57z" />
    <glyph glyph-name="scommaaccent" unicode="&#x219;" horiz-adv-x="863" 
d="M24 99v62c152 -87 266 -117 417 -117c203 0 339 87 339 173c0 101 -79 144 -346 131c-249 -11 -398 38 -398 165c0 121 153 197 394 197c132 0 245 -17 347 -70v-58c-103 58 -213 76 -347 76c-197 0 -332 -57 -332 -145c0 -67 69 -123 335 -110c232 11 408 -17 408 -185
c0 -134 -188 -228 -400 -228c-153 0 -267 30 -417 109zM369 -42h68v-59l-29 -80h-33l16 82h-22v57z" />
    <glyph glyph-name="uni021A" unicode="&#x21a;" horiz-adv-x="740" 
d="M10 646v54h720v-54h-329v-646h-62v646h-329zM335 -42h68v-59l-29 -80h-33l16 82h-22v57z" />
    <glyph glyph-name="uni021B" unicode="&#x21b;" horiz-adv-x="740" 
d="M10 646v54h720v-54h-329v-646h-62v646h-329zM335 -42h68v-59l-29 -80h-33l16 82h-22v57z" />
    <glyph glyph-name="uni021E" unicode="&#x21e;" horiz-adv-x="890" 
d="M50 0v700h61v-323h668v323h61v-700h-61v323h-668v-323h-61zM254 860h93l100 -102l100 102h93l-162 -122h-62z" />
    <glyph glyph-name="uni021F" unicode="&#x21f;" horiz-adv-x="890" 
d="M50 0v700h61v-323h668v323h61v-700h-61v323h-668v-323h-61zM254 860h93l100 -102l100 102h93l-162 -122h-62z" />
    <glyph glyph-name="uni0226" unicode="&#x226;" horiz-adv-x="888" 
d="M2 0l351 700h183l351 -700h-65l-91 181h-574l-91 -181h-64zM181 233h526l-207 411h-112zM414 768v84h60v-84h-60z" />
    <glyph glyph-name="uni0227" unicode="&#x227;" horiz-adv-x="888" 
d="M2 0l351 700h183l351 -700h-65l-91 181h-574l-91 -181h-64zM181 233h526l-207 411h-112zM414 768v84h60v-84h-60z" />
    <glyph glyph-name="uni0228" unicode="&#x228;" horiz-adv-x="756" 
d="M50 0v700h690v-54h-629v-270h569v-52h-569v-270h629v-54h-358l-5 -25h28c58 0 106 -33 106 -74c0 -40 -51 -71 -112 -71c-32 0 -65 7 -92 22l8 43c13 -7 41 -22 81 -22c38 0 67 14 67 30c0 18 -27 32 -62 32h-75l14 65h-290z" />
    <glyph glyph-name="uni0229" unicode="&#x229;" horiz-adv-x="756" 
d="M50 0v700h690v-54h-629v-270h569v-52h-569v-270h629v-54h-358l-5 -25h28c58 0 106 -33 106 -74c0 -40 -51 -71 -112 -71c-32 0 -65 7 -92 22l8 43c13 -7 41 -22 81 -22c38 0 67 14 67 30c0 18 -27 32 -62 32h-75l14 65h-290z" />
    <glyph glyph-name="uni022E" unicode="&#x22e;" 
d="M24 350c0 213 172 360 430 360s430 -147 430 -360s-172 -360 -430 -360s-430 147 -430 360zM86 350c0 -183 147 -305 368 -305s368 122 368 305s-147 305 -368 305s-368 -122 -368 -305zM412 768v84h60v-84h-60z" />
    <glyph glyph-name="uni022F" unicode="&#x22f;" 
d="M24 350c0 213 172 360 430 360s430 -147 430 -360s-172 -360 -430 -360s-430 147 -430 360zM86 350c0 -183 147 -305 368 -305s368 122 368 305s-147 305 -368 305s-368 -122 -368 -305zM412 768v84h60v-84h-60z" />
    <glyph glyph-name="uni0232" unicode="&#x232;" horiz-adv-x="864" 
d="M2 700h80l352 -362h2l348 362h78l-398 -409v-291h-61v291zM285 768v47h328v-47h-328z" />
    <glyph glyph-name="uni0233" unicode="&#x233;" horiz-adv-x="864" 
d="M2 700h80l352 -362h2l348 362h78l-398 -409v-291h-61v291zM285 768v47h328v-47h-328z" />
    <glyph glyph-name="gravecomb" unicode="&#x300;" horiz-adv-x="0" 
d="M-140 860h96l116 -122h-51z" />
    <glyph glyph-name="acutecomb" unicode="&#x301;" horiz-adv-x="0" 
d="M-72 738l117 122h95l-161 -122h-51z" />
    <glyph glyph-name="uni0302" unicode="&#x302;" horiz-adv-x="0" 
d="M-193 738l162 122h62l162 -122h-93l-100 102l-100 -102h-93z" />
    <glyph glyph-name="tildecomb" unicode="&#x303;" horiz-adv-x="0" 
d="M-155 760v44c22 21 50 29 76 29c29 0 57 -9 81 -18c20 -8 43 -13 67 -13c30 0 58 8 86 30v-43c-24 -24 -55 -32 -84 -32c-26 0 -52 7 -73 15c-22 8 -48 15 -75 15s-53 -7 -78 -27z" />
    <glyph glyph-name="uni0304" unicode="&#x304;" horiz-adv-x="0" 
d="M-164 768v47h328v-47h-328z" />
    <glyph glyph-name="uni0306" unicode="&#x306;" horiz-adv-x="0" 
d="M-218 860h56c1 -44 71 -79 162 -79s161 35 162 79h56c0 -67 -97 -122 -218 -122s-218 55 -218 122z" />
    <glyph glyph-name="uni0307" unicode="&#x307;" horiz-adv-x="0" 
d="M-30 760v84h60v-84h-60z" />
    <glyph glyph-name="uni0308" unicode="&#x308;" horiz-adv-x="0" 
d="M-150 760v84h60v-84h-60zM90 760v84h60v-84h-60z" />
    <glyph glyph-name="uni030A" unicode="&#x30a;" horiz-adv-x="0" 
d="M-155 695c0 86 69 155 155 155s155 -69 155 -155s-69 -155 -155 -155s-155 69 -155 155zM-113 695c0 -63 50 -113 113 -113s113 50 113 113s-50 113 -113 113s-113 -50 -113 -113z" />
    <glyph glyph-name="uni030B" unicode="&#x30b;" horiz-adv-x="0" 
d="M-206 738l116 122h93l-161 -122h-48zM78 738l116 122h93l-162 -122h-47z" />
    <glyph glyph-name="uni030C" unicode="&#x30c;" horiz-adv-x="0" 
d="M-193 860h93l100 -102l100 102h93l-162 -122h-62z" />
    <glyph glyph-name="uni030F" unicode="&#x30f;" horiz-adv-x="0" 
d="M-287 860h93l116 -122h-47zM-3 860h93l116 -122h-48z" />
    <glyph glyph-name="uni0311" unicode="&#x311;" horiz-adv-x="0" 
d="M-218 728c0 67 97 122 218 122s218 -55 218 -122h-56c-1 44 -71 79 -162 79s-161 -35 -162 -79h-56z" />
    <glyph glyph-name="uni0326" unicode="&#x326;" horiz-adv-x="0" 
d="M-35 -42h68v-59l-29 -80h-33l16 82h-22v57z" />
    <glyph glyph-name="Wgrave" unicode="&#x1e80;" horiz-adv-x="1152" 
d="M1 700h66l212 -642h60l174 632h126l174 -632h60l212 642h66l-238 -700h-142l-177 636h-36l-177 -636h-142zM432 860h96l116 -122h-51z" />
    <glyph glyph-name="wgrave" unicode="&#x1e81;" horiz-adv-x="1152" 
d="M1 700h66l212 -642h60l174 632h126l174 -632h60l212 642h66l-238 -700h-142l-177 636h-36l-177 -636h-142zM432 860h96l116 -122h-51z" />
    <glyph glyph-name="Wacute" unicode="&#x1e82;" horiz-adv-x="1152" 
d="M1 700h66l212 -642h60l174 632h126l174 -632h60l212 642h66l-238 -700h-142l-177 636h-36l-177 -636h-142zM500 738l117 122h95l-161 -122h-51z" />
    <glyph glyph-name="wacute" unicode="&#x1e83;" horiz-adv-x="1152" 
d="M1 700h66l212 -642h60l174 632h126l174 -632h60l212 642h66l-238 -700h-142l-177 636h-36l-177 -636h-142zM500 738l117 122h95l-161 -122h-51z" />
    <glyph glyph-name="Wdieresis" unicode="&#x1e84;" horiz-adv-x="1152" 
d="M1 700h66l212 -642h60l174 632h126l174 -632h60l212 642h66l-238 -700h-142l-177 636h-36l-177 -636h-142zM422 768v84h60v-84h-60zM662 768v84h60v-84h-60z" />
    <glyph glyph-name="wdieresis" unicode="&#x1e85;" horiz-adv-x="1152" 
d="M1 700h66l212 -642h60l174 632h126l174 -632h60l212 642h66l-238 -700h-142l-177 636h-36l-177 -636h-142zM422 768v84h60v-84h-60zM662 768v84h60v-84h-60z" />
    <glyph glyph-name="uni1E86" unicode="&#x1e86;" horiz-adv-x="1152" 
d="M1 700h66l212 -642h60l174 632h126l174 -632h60l212 642h66l-238 -700h-142l-177 636h-36l-177 -636h-142zM542 768v84h60v-84h-60z" />
    <glyph glyph-name="uni1E87" unicode="&#x1e87;" horiz-adv-x="1152" 
d="M1 700h66l212 -642h60l174 632h126l174 -632h60l212 642h66l-238 -700h-142l-177 636h-36l-177 -636h-142zM542 768v84h60v-84h-60z" />
    <glyph glyph-name="uni1E88" unicode="&#x1e88;" horiz-adv-x="1152" 
d="M1 700h66l212 -642h60l174 632h126l174 -632h60l212 642h66l-238 -700h-142l-177 636h-36l-177 -636h-142zM544 -85h64v-61h-64v61z" />
    <glyph glyph-name="uni1E8E" unicode="&#x1e8e;" horiz-adv-x="864" 
d="M2 700h80l352 -362h2l348 362h78l-398 -409v-291h-61v291zM419 768v84h60v-84h-60z" />
    <glyph glyph-name="uni1E8F" unicode="&#x1e8f;" horiz-adv-x="864" 
d="M2 700h80l352 -362h2l348 362h78l-398 -409v-291h-61v291zM419 768v84h60v-84h-60z" />
    <glyph glyph-name="uni1E9E" unicode="&#x1e9e;" horiz-adv-x="833" 
d="M34 0v460c0 151 187 250 397 250c180 0 310 -74 310 -189c0 -58 -35 -111 -83 -143c89 -24 156 -87 156 -163c0 -131 -160 -221 -345 -221c-70 0 -145 14 -219 46v58c74 -35 149 -50 219 -50c168 0 286 83 286 170c0 69 -87 125 -187 125h-249v40c0 6 6 11 12 11h226
c62 0 127 59 127 123c0 84 -107 139 -254 139c-175 0 -335 -80 -335 -198v-458h-61z" />
    <glyph glyph-name="uni2002" unicode="&#x2002;" horiz-adv-x="500" 
 />
    <glyph glyph-name="uni2003" unicode="&#x2003;" horiz-adv-x="1000" 
 />
    <glyph glyph-name="uni2004" unicode="&#x2004;" horiz-adv-x="333" 
 />
    <glyph glyph-name="uni2005" unicode="&#x2005;" horiz-adv-x="250" 
 />
    <glyph glyph-name="uni2006" unicode="&#x2006;" horiz-adv-x="167" 
 />
    <glyph glyph-name="uni2007" unicode="&#x2007;" horiz-adv-x="824" 
 />
    <glyph glyph-name="uni2008" unicode="&#x2008;" horiz-adv-x="244" 
 />
    <glyph glyph-name="uni2009" unicode="&#x2009;" horiz-adv-x="200" 
 />
    <glyph glyph-name="uni200A" unicode="&#x200a;" horiz-adv-x="100" 
 />
    <glyph glyph-name="figuredash" unicode="&#x2012;" horiz-adv-x="824" 
d="M10 329v42h804v-42h-804z" />
    <glyph glyph-name="endash" unicode="&#x2013;" horiz-adv-x="500" 
d="M10 329v42h480v-42h-480z" />
    <glyph glyph-name="emdash" unicode="&#x2014;" horiz-adv-x="1000" 
d="M10 329v42h980v-42h-980z" />
    <glyph glyph-name="quoteleft" unicode="&#x2018;" horiz-adv-x="93" 
d="M12 493v70l47 136h27l-32 -139h27v-67h-69z" />
    <glyph glyph-name="quoteright" unicode="&#x2019;" horiz-adv-x="93" 
d="M7 494l32 140h-27v66h69v-69l-47 -137h-27z" />
    <glyph glyph-name="quotesinglbase" unicode="&#x201a;" horiz-adv-x="93" 
d="M7 -134l32 140h-27v66h69v-69l-47 -137h-27z" />
    <glyph glyph-name="quotereversed" unicode="&#x201b;" horiz-adv-x="93" 
d="M12 631v69h69v-66h-27l32 -140h-27z" />
    <glyph glyph-name="quotedblleft" unicode="&#x201c;" horiz-adv-x="199" 
d="M12 493v69l47 137h27l-32 -140h27v-66h-69zM118 493v69l47 137h27l-32 -140h27v-66h-69z" />
    <glyph glyph-name="quotedblright" unicode="&#x201d;" horiz-adv-x="198" 
d="M7 493l32 140h-27v66h69v-69l-47 -137h-27zM112 493l33 140h-28v66h70v-69l-47 -137h-28z" />
    <glyph glyph-name="quotedblbase" unicode="&#x201e;" horiz-adv-x="198" 
d="M7 -134l32 140h-27v66h69v-69l-47 -137h-27zM112 -134l33 140h-28v66h70v-69l-47 -137h-28z" />
    <glyph glyph-name="uni201F" unicode="&#x201f;" horiz-adv-x="198" 
d="M12 631v69h69v-66h-27l32 -140h-27zM117 631v69h70v-66h-27l32 -140h-27z" />
    <glyph glyph-name="dagger" unicode="&#x2020;" horiz-adv-x="560" 
d="M10 559v42h249v249h42v-249h249v-42h-249v-709h-42v709h-249z" />
    <glyph glyph-name="daggerdbl" unicode="&#x2021;" horiz-adv-x="560" 
d="M10 99v42l249 -1v420l-249 -1v42l249 -1v250h42v-250l249 1v-42l-249 1v-420l249 1v-42l-249 1v-250h-42v250z" />
    <glyph glyph-name="bullet" unicode="&#x2022;" horiz-adv-x="286" 
d="M18 350c0 69 56 125 125 125s125 -56 125 -125s-56 -125 -125 -125s-125 56 -125 125z" />
    <glyph glyph-name="ellipsis" unicode="&#x2026;" horiz-adv-x="293" 
d="M12 -2v68h68v-68h-68zM105 -2v68h68v-68h-68zM197 -2v68h68v-68h-68z" />
    <glyph glyph-name="perthousand" unicode="&#x2030;" horiz-adv-x="1308" 
d="M6 510c0 110 90 200 200 200s200 -90 200 -200c0 -111 -90 -199 -200 -199s-200 88 -200 199zM55 510c0 -84 68 -150 151 -150s151 66 151 150s-68 152 -151 152s-151 -68 -151 -152zM136 93l586 545l28 -31l-586 -545zM480 189c0 110 90 200 200 200s200 -90 200 -200
c0 -111 -90 -199 -200 -199s-200 88 -200 199zM529 189c0 -84 68 -151 151 -151s151 67 151 151s-68 151 -151 151s-151 -67 -151 -151zM900 189c0 110 90 200 200 200s200 -90 200 -200c0 -111 -90 -199 -200 -199s-200 88 -200 199zM949 189c0 -84 68 -151 151 -151
s151 67 151 151s-68 151 -151 151s-151 -67 -151 -151z" />
    <glyph glyph-name="guilsinglleft" unicode="&#x2039;" horiz-adv-x="258" 
d="M4 350l204 237l41 -35l-174 -202l174 -202l-41 -35z" />
    <glyph glyph-name="guilsinglright" unicode="&#x203a;" horiz-adv-x="258" 
d="M10 148l173 202l-173 202l40 35l205 -237l-205 -237z" />
    <glyph glyph-name="Euro" unicode="&#x20ac;" horiz-adv-x="816" 
d="M2 267l4 43h58c-1 13 -2 26 -2 40s1 27 2 40h-52l4 43h55c40 169 206 277 446 277c98 0 211 -21 281 -70v-70c-70 61 -181 85 -280 85c-202 0 -344 -85 -384 -222h384l-4 -43h-389c-2 -13 -2 -26 -2 -40s0 -27 2 -40h383l-4 -43h-370c41 -137 185 -222 389 -222
c99 0 205 25 275 85v-70c-70 -49 -177 -70 -276 -70c-243 0 -409 108 -450 277h-70z" />
    <glyph glyph-name="minus" unicode="&#x2212;" horiz-adv-x="500" 
d="M10 323v54h480v-54h-480z" />
    </font>
</defs>
</svg>
