<svg width="293" height="150" viewBox="0 0 293 150" fill="none" xmlns="http://www.w3.org/2000/svg">
<path fill-rule="evenodd" clip-rule="evenodd" d="M146.174 26.0372C124.532 25.7509 110.504 31.1902 105.065 37.0876H54.7939V22.2583C61.3211 22.2583 95.2738 21.5712 97.0488 14.815C92.9836 8.7459 62.9242 7.94431 54.7939 7.94431C54.7939 -2.59077 40.5372 -2.70528 40.5372 7.94431C31.6625 7.94431 3.60712 9.37571 0 14.815C3.60712 21.6285 33.0367 22.2583 40.5372 22.2583V37.0876H33.6665C26.9675 37.0876 24.3338 46.7638 31.1472 50.4282C33.0939 51.4588 88.4604 64.9712 91.3232 65.0284C86.1701 81.5754 72.2569 100.413 67.6192 116.387C61.9509 136.026 83.6509 159.386 90.7506 146.103C96.1327 135.968 76.6084 135.682 82.563 117.647C86.9145 104.478 99.2245 82.5488 105.637 69.0364L111.935 70.1815C111.935 76.0216 110.79 94.687 113.252 99.153C115.313 102.932 141.193 118.047 146.232 118.219C151.27 118.047 177.092 102.932 179.211 99.153C181.673 94.687 180.528 76.0788 180.528 70.1815L186.826 69.0364C193.181 82.5488 205.549 104.535 209.9 117.647C215.855 135.682 196.33 135.968 201.713 146.103C208.755 159.386 230.512 136.026 224.844 116.387C220.263 100.413 206.35 81.5754 201.14 65.0284C204.003 64.9712 259.369 51.4588 261.316 50.4282C268.129 46.7066 265.496 37.0876 258.797 37.0876H251.926V22.2583C259.426 22.2583 288.856 21.6285 292.463 14.815C288.856 9.37571 260.801 7.94431 251.926 7.94431C251.926 -2.70528 237.669 -2.59077 237.669 7.94431C229.539 7.94431 199.48 8.68864 195.414 14.815C197.189 21.5712 231.142 22.2583 237.669 22.2583V37.0876H187.399C181.959 31.1902 167.932 25.6936 146.289 26.0372H146.174ZM146.174 88.7324C141.651 88.7324 137.987 85.068 137.987 80.5448C137.987 76.0216 141.651 72.3572 146.174 72.3572C150.698 72.3572 154.362 76.0216 154.362 80.5448C154.362 85.068 150.698 88.7324 146.174 88.7324ZM146.174 63.8261C136.956 63.8261 129.456 71.3266 129.456 80.5448C129.456 89.763 136.956 97.2635 146.174 97.2635C155.393 97.2635 162.893 89.763 162.893 80.5448C162.893 71.3266 155.393 63.8261 146.174 63.8261Z" fill="#EF4436"/>
</svg>
