<svg width="203" height="200" viewBox="0 0 203 200" fill="none" xmlns="http://www.w3.org/2000/svg">
<path fill-rule="evenodd" clip-rule="evenodd" d="M157.813 0.119924C156.09 0.546059 146.704 10.3472 144.81 12.3074C140.762 16.3983 136.457 20.6596 132.151 24.8358C129.998 26.8812 128.104 28.671 125.865 31.0573C119.923 37.1937 113.12 43.5857 106.92 49.8073C98.9981 57.8186 89.9563 66.597 81.6895 74.7788L43.8002 112.279C39.5807 116.455 35.4473 120.716 31.1417 124.722C22.961 132.477 14.0915 142.108 5.91081 149.779C3.41356 152.08 0.313521 154.551 0.830194 157.108C1.17464 158.813 5.30803 162.477 6.68582 163.841L41.389 198.187C45.6085 202.449 47.7613 198.443 52.4114 193.926C54.5642 191.795 56.5448 189.835 58.6976 187.619C62.9171 183.358 67.1366 179.352 71.3561 175.091C96.4147 149.949 121.904 125.148 147.135 100.091C155.315 91.9946 164.443 83.2163 172.366 75.1197L197.597 50.1482C198.716 49.0402 199.663 48.1027 200.783 46.9948C205.174 42.6482 201.902 41.0289 196.908 36.0857L165.304 4.89264C162.807 2.42105 160.827 -0.647119 157.899 0.119924H157.813ZM161.946 43.33C160.224 43.33 158.76 41.8812 158.76 40.1766C158.76 38.4721 160.224 37.0232 161.946 37.0232C163.668 37.0232 165.132 38.4721 165.132 40.1766C165.132 41.8812 163.668 43.33 161.946 43.33ZM160.482 30.0346C152.56 31.313 150.149 38.3868 152.129 43.9266C153.679 47.847 157.468 50.5743 161.946 50.5743C166.338 50.5743 170.041 47.9323 171.677 44.1823C172.366 42.563 172.624 40.688 172.28 38.7278C171.418 33.6994 166.682 28.9266 160.396 29.9494L160.482 30.0346ZM134.046 33.4437C134.821 34.8925 140.246 39.3243 141.537 41.1141C141.021 42.2221 137.49 45.2902 136.371 46.3982C135.337 45.8868 129.998 40.2618 128.621 38.9834L123.971 43.33C124.746 44.7789 134.046 53.0459 134.821 54.4095C133.443 55.7732 130.946 58.4152 129.482 59.5231C128.362 58.8413 122.937 53.2163 121.215 51.5118C120.354 50.7448 119.321 49.2107 118.201 48.7845C117.34 50.2334 115.015 51.597 113.982 53.2163C114.67 54.6652 120.096 59.0118 121.387 60.8868C120.871 61.9095 117.082 65.3186 116.22 66.1709C115.359 65.8299 113.034 63.2731 112.259 62.4209C111.398 61.5686 109.245 59.097 108.212 58.6709C107.006 60.205 105.284 61.6538 103.906 63.0175C104.079 63.4436 113.379 72.989 114.843 74.0117C114.24 74.7788 110.193 78.9549 109.504 79.381C107.868 78.5288 99.9453 69.3242 98.1369 68.6424C97.3619 69.7504 94.8647 71.9663 93.8313 73.0742C94.2619 74.0117 96.7591 76.1424 97.6203 77.0799C98.5675 78.0174 100.979 79.9776 101.409 81.1708L96.2425 86.1992C94.8647 85.6878 89.7841 79.4663 88.1479 78.6992L83.8423 83.131C84.7896 84.8356 93.7452 92.5912 94.7786 94.2958C93.9174 94.9776 93.0563 96.0003 92.1952 96.8526C91.4202 97.6196 90.3007 98.9832 89.4396 99.4946C88.3202 98.898 85.0479 95.3185 83.8423 94.1253C82.809 93.1026 79.2784 89.2674 78.0728 88.756C77.0395 90.0344 74.9728 91.9094 73.7672 93.1878C74.4561 94.5514 79.795 99.2389 81.2589 100.858C80.8284 101.625 76.9533 105.461 76.0922 106.142C74.5422 105.631 69.806 99.4094 68.0838 98.7276C66.8782 100.262 65.0699 101.625 63.6921 103.159C64.2088 104.097 73.2505 112.96 74.6283 114.154C74.1116 115.006 70.2366 118.756 69.2894 119.438C67.7393 118.756 59.6448 109.466 58.0087 108.699C57.3198 109.637 54.6503 112.193 53.7031 113.046C54.392 114.665 59.7309 118.841 61.1948 120.801C60.8504 121.654 56.6309 125.83 55.7698 126.171C54.6503 124.807 53.2725 123.614 52.0669 122.421C51.1197 121.483 49.053 119.097 48.0197 118.671C47.1585 119.779 45.0057 121.824 43.6279 123.017C43.9724 123.784 50.2586 129.835 51.7225 131.284C52.5836 132.137 53.617 133.33 54.5642 134.012C54.0475 134.779 50.0002 138.784 49.2252 139.296C47.8474 138.614 39.4084 129.324 37.9445 128.557C37.2556 129.495 34.5 132.051 33.5528 132.989C34.1556 134.097 39.7529 139.21 41.1307 140.659L40.614 141.341C40.4418 141.512 40.0973 141.852 39.9251 142.023C39.3223 142.619 38.9779 142.96 38.5473 143.472C37.7723 144.239 36.6529 145.688 35.6195 146.029C34.7584 145.006 28.6444 138.869 27.8694 138.529C26.5777 140.063 24.9416 141.426 23.5638 142.875C23.9944 143.813 27.8694 147.477 28.9028 148.5C30.7972 150.375 32.5195 152.165 34.4139 153.869C33.1223 155.404 30.7111 157.96 29.1611 159.154C28.0416 158.642 22.7027 152.847 20.8082 151.142C19.9471 150.375 18.9137 148.926 17.7943 148.415C17.3637 149.182 14.6943 151.483 14.0054 152.25C13.2303 153.017 10.5609 155.404 10.1303 156.341L27.4389 173.472C30.3667 176.369 33.1223 179.182 36.1362 182.08C37.6001 183.528 38.9779 184.892 40.4418 186.341C41.9057 187.79 43.2835 189.324 44.7474 190.602C45.7807 190.091 61.2809 174.494 63.3476 172.449C69.3755 166.227 76.0922 160.261 81.9478 154.04C87.3729 148.244 94.7786 141.512 100.548 135.631C106.49 129.665 113.207 123.358 119.148 117.222C124.487 111.682 132.668 104.182 137.749 98.8128C140.849 95.5742 144.035 92.8469 146.963 89.6935C152.129 84.1538 160.224 76.9095 165.563 71.2845C168.663 68.0458 171.849 65.1481 174.949 61.9947C178.049 58.8413 181.149 56.0288 184.163 52.8754L193.549 43.6709C193.119 42.563 185.971 35.7448 184.938 34.8925C178.135 28.4153 170.127 20.2335 163.152 13.4153C162.204 12.4778 159.535 9.49489 158.502 9.06876C156.435 11.3699 154.454 13.0744 152.474 15.1199L140.16 27.3073C138.007 29.3528 136.371 31.2278 134.046 33.3585V33.4437Z" fill="#EF4436"/>
</svg>
