<svg width="128" height="200" viewBox="0 0 128 200" fill="none" xmlns="http://www.w3.org/2000/svg">
<path fill-rule="evenodd" clip-rule="evenodd" d="M82.0558 136.036L127.31 200H115.476L77.5044 146.332V200H67.8813V136.036H59.4287V200H49.8057V146.332L11.8337 200H0L45.2542 136.036H31.0798C30.0394 136.036 29.1292 135.135 29.1292 134.106V128.314C29.1292 127.284 30.0394 126.384 31.0798 126.384H96.2303C97.2706 126.384 98.1809 127.284 98.1809 128.314V134.106C98.1809 135.135 97.2706 136.036 96.2303 136.036H82.0558ZM95.32 17.6319C98.8311 17.6319 102.472 17.6319 105.983 17.6319L109.755 22.0077L114.956 39.7683V115.573C114.956 119.048 112.095 121.879 108.584 121.879H19.116C15.6049 121.879 12.744 119.048 12.744 115.573V39.7683L17.9456 22.0077L21.7168 17.6319H32.3802L49.2855 0H78.5447L95.45 17.6319H95.32ZM78.6747 14.5431L73.9933 9.52381H53.4468L48.7653 14.5431H78.5447H78.6747ZM87.3875 93.8224V24.7104H40.1826V93.8224H87.3875ZM42.1333 57.7864C42.1333 45.9459 51.7563 36.4221 63.72 36.4221C75.6838 36.4221 85.3068 45.9459 85.3068 57.7864C85.3068 69.6268 75.6838 79.1506 63.72 79.1506C51.7563 79.1506 42.1333 69.6268 42.1333 57.7864ZM63.72 68.8546C69.962 68.8546 74.9036 63.8353 74.9036 57.7864C74.9036 51.6087 69.832 46.7182 63.72 46.7182C57.4781 46.7182 52.5365 51.7374 52.5365 57.7864C52.5365 63.964 57.6081 68.8546 63.72 68.8546ZM104.683 43.3719L100.912 29.0862L99.0912 27.027H97.5307V96.139C97.5307 100.386 94.0196 103.861 89.7282 103.861H37.5818C33.2905 103.861 29.7794 100.386 29.7794 96.139V27.027H28.2189L26.3983 29.0862L22.6271 43.3719V109.524C22.6271 110.94 23.1473 112.484 24.8378 112.484H102.342C104.033 112.484 104.553 111.068 104.553 109.524V43.3719H104.683Z" fill="#EF4436"/>
</svg>
