<svg width="60" height="60" viewBox="0 0 60 60" fill="none" xmlns="http://www.w3.org/2000/svg">
<path fill-rule="evenodd" clip-rule="evenodd" d="M26.5902 17.0783C25.6665 17.3338 24.7625 17.6679 23.9175 18.1002L24.114 18.2378L24.1533 18.2575L24.1926 18.2968C25.7059 17.5303 27.3763 17.0586 29.1451 16.9407L29.2041 16.6656C28.3 16.7245 27.4353 16.8621 26.5902 17.0783ZM26.5116 17.884L26.9636 19.5545C26.9833 19.5938 27.003 19.6331 27.0619 19.6528C27.1798 19.6135 27.2781 19.5938 27.396 19.5545C27.4157 19.5152 27.4353 19.4759 27.4353 19.4366L26.9833 17.7661C26.8261 17.8054 26.6688 17.8447 26.5313 17.884H26.5116ZM33.0167 17.7661L32.5647 19.4366C32.545 19.5152 32.5843 19.5938 32.663 19.6135L32.7809 19.6331L32.8595 19.6528C32.9381 19.6725 33.0167 19.6331 33.0364 19.5545L33.4884 17.884C33.3311 17.8447 33.1936 17.8054 33.0364 17.7661H33.0167ZM34.2548 17.6482V17.3534C33.96 17.2552 33.6849 17.1765 33.3901 17.0979C32.545 16.8818 31.6803 16.7245 30.7763 16.6852L30.8352 16.9604C32.0341 17.039 33.1739 17.2748 34.2548 17.6679V17.6482ZM25.7059 42.7055C25.981 42.8038 26.2758 42.8824 26.5706 42.961C27.4157 43.1772 28.2804 43.3344 29.1844 43.3737L29.1254 43.0986C27.9266 43.02 26.7868 42.7841 25.7059 42.3911V42.6859V42.7055ZM30.7763 43.3934C31.6607 43.3344 32.545 43.1969 33.3901 42.9807C34.3138 42.7252 35.2178 42.3911 36.0629 41.9587L35.8664 41.8212L35.8271 41.8015L35.7877 41.7622C34.2745 42.5287 32.604 43.0003 30.8352 43.1182L30.7763 43.3934ZM33.4491 42.1749L32.997 40.5044C32.9774 40.4651 32.9578 40.4258 32.8988 40.4062C32.7809 40.4455 32.6826 40.4651 32.5647 40.5044C32.545 40.5437 32.5254 40.583 32.545 40.6223L32.997 42.2928C33.1543 42.2535 33.3115 42.2142 33.4491 42.1749ZM26.944 42.2928L27.396 40.6223C27.4157 40.5437 27.3763 40.4651 27.2977 40.4455L27.1798 40.4258L27.1012 40.4062C27.0226 40.3865 26.944 40.4258 26.9243 40.5044L26.4723 42.1749C26.6295 42.2142 26.7671 42.2535 26.9243 42.2928H26.944ZM43.8847 33.2722C43.8061 33.6063 43.7078 33.9404 43.6096 34.2548V38.4998L44.0026 39.0501C44.3957 38.4409 44.7494 37.812 45.0639 37.1634L46.2823 37.3796C45.85 38.3426 45.3194 39.2466 44.7494 40.1114L45.1818 40.7009C45.8893 39.6987 46.4985 38.6374 46.9898 37.4975L49.4268 37.9103L47.3829 36.5346C47.8939 35.2178 48.2476 33.8028 48.4638 32.3485L51.6869 31.7C51.2938 36.0825 49.643 40.1114 47.1078 43.3737L47.5991 44.0616C50.3505 40.583 52.1192 36.2594 52.4926 31.5427L59.9214 30.0295L52.4926 28.5162C52.0603 23.1903 49.8592 18.3754 46.4985 14.7003L48.7782 11.2611L45.3194 13.5015C41.6246 10.0229 36.79 7.78251 31.4641 7.42876L29.9902 0L28.5162 7.42876C23.7799 7.7432 19.4366 9.55126 15.9384 12.3813L16.6263 12.8726C19.9083 10.2588 23.9568 8.58827 28.359 8.25418L27.7104 11.5165C26.1775 11.7131 24.7036 12.0865 23.3082 12.6368L21.9522 10.6125L22.3059 13.0495C21.2447 13.5408 20.2424 14.1304 19.299 14.7986L19.8886 15.2309C20.6747 14.6806 21.5198 14.1893 22.4042 13.7766L22.6007 15.0344C22.0308 15.3292 21.4805 15.6436 20.9499 15.9777L23.1313 17.55C24.2712 16.9211 25.4897 16.4494 26.7868 16.1349C27.6318 15.9384 28.4966 15.8205 29.3809 15.7812L30.0098 11.5165L30.6387 15.7812C31.5231 15.8205 32.3878 15.9384 33.2329 16.1349C33.5866 16.2136 33.9404 16.3118 34.2941 16.4297V14.6413V13.8356C33.7832 13.698 33.2525 13.5801 32.7219 13.5015L32.4664 12.2437C33.0953 12.3223 33.7046 12.4402 34.2941 12.5974V11.8899C33.6456 11.7327 32.9971 11.6148 32.3092 11.5362L31.6607 8.27383C32.6433 8.35244 33.6456 8.50966 34.471 8.68654C38.3426 9.51196 41.8408 11.379 44.6512 13.9928L41.8998 15.7812C40.642 14.7199 39.2466 13.8159 37.753 13.1281L38.7357 14.4055C39.6397 14.9165 40.5044 15.5061 41.3102 16.1743L40.5044 16.7049L43.6685 20.832V25.8238C43.7668 26.1382 43.865 26.4723 43.9437 26.8064C44.1795 27.7301 44.3171 28.5948 44.3564 29.4399L48.5031 30.0491L44.3564 30.6584C44.3171 31.5231 44.1795 32.3878 43.9437 33.2918L43.8847 33.2722ZM36.8294 42.509C35.6895 43.1379 34.471 43.6096 33.1739 43.924C32.3289 44.1205 31.4641 44.2385 30.5798 44.2778L29.9509 48.5424L29.322 44.2778C28.4376 44.2385 27.5729 44.1205 26.7278 43.924C26.374 43.8454 26.0203 43.7471 25.6666 43.6292V45.5748V46.2037C26.1775 46.3413 26.7082 46.4592 27.2388 46.5378L27.4943 47.7956C26.8654 47.717 26.2561 47.5991 25.6666 47.4419V48.1494C26.3151 48.3066 26.9833 48.4245 27.6515 48.5031L28.3 51.7655C25.6076 51.5689 23.1117 50.9008 20.6747 49.7216C18.7095 48.7782 16.9014 47.5205 15.3095 46.0465L18.0609 44.2581C19.2597 45.2801 20.5765 46.1251 22.0111 46.813L20.9892 45.4962C20.1638 45.0246 19.3973 44.4743 18.6505 43.8651L19.3777 43.3934L16.3118 39.3842V34.2155C16.2136 33.9011 16.1153 33.567 16.0367 33.2329C15.8009 32.3092 15.6633 31.4445 15.624 30.5994L11.4772 29.9902L15.624 29.3809C15.6633 28.5162 15.8009 27.6515 16.0367 26.7475C16.1153 26.4134 16.2136 26.0793 16.3118 25.7648V21.5198L15.9188 20.9695C15.5257 21.5788 15.172 22.2077 14.8575 22.8562L13.639 22.64C14.0714 21.677 14.602 20.773 15.172 19.9083L14.7396 19.3187C14.0321 20.321 13.4229 21.3822 12.9315 22.5221L10.4946 22.1094L12.5385 23.4851C12.0275 24.8215 11.6738 26.2168 11.4576 27.6515L8.23452 28.3C8.62758 23.9175 10.2784 19.8886 12.8136 16.6263L12.3223 15.9384C9.57092 19.417 7.80215 23.7406 7.42875 28.4573L0 29.9705L7.42875 31.4838C7.86111 36.8097 10.0622 41.6246 13.4229 45.2997L11.1431 48.7389L14.602 46.4985C18.2968 49.9771 23.1313 52.2175 28.4573 52.5712L29.9312 60L31.4052 52.5712C36.1415 52.2568 40.4848 50.4487 43.983 47.6187L43.2951 47.1274C40.0131 49.7412 35.9646 51.4117 31.5624 51.7458L32.2109 48.4835C33.7439 48.2869 35.2178 47.9135 36.6132 47.3633L37.9692 49.3875L37.6155 46.9505C38.6767 46.4592 39.679 45.8696 40.6223 45.2014L40.0328 44.7691C39.2466 45.3194 38.4016 45.8107 37.5172 46.2234L37.3403 44.9656C37.9102 44.6708 38.4605 44.3564 38.9912 44.0223L36.8097 42.45L36.8294 42.509ZM46.4985 32.7612L47.7563 32.5057C47.5598 33.7635 47.2453 34.982 46.813 36.1415L45.791 35.4537C46.1055 34.5889 46.3413 33.6849 46.4985 32.7612ZM36.2594 46.8326C35.0409 47.3043 33.7439 47.6384 32.4075 47.8153L32.663 46.5575C33.6652 46.4003 34.6282 46.1448 35.5716 45.8107L36.2791 46.8523L36.2594 46.8326ZM46.4985 27.2977L47.7563 27.5532C47.5598 26.2954 47.2453 25.077 46.813 23.9175L45.791 24.6053C46.1055 25.47 46.3413 26.3741 46.4985 27.2977ZM48.4638 27.6908L51.6869 28.3393C51.2349 23.3672 49.1713 18.8667 46.0465 15.3881L44.2385 18.1199C45.339 19.4563 46.2823 20.9499 46.9898 22.5614L49.4268 22.1487L47.3829 23.5244C47.8939 24.8608 48.2476 26.2561 48.4638 27.6908ZM46.302 22.6793C45.6535 21.2447 44.828 19.9279 43.8454 18.7291L43.1575 19.7904C43.9043 20.7534 44.5529 21.795 45.0835 22.8955L46.302 22.6793ZM13.4622 32.7416L12.2044 32.4861C12.4009 33.7439 12.7154 34.9623 13.1477 36.1218L14.1697 35.434C13.8552 34.5693 13.6194 33.6652 13.4622 32.7416ZM11.4969 32.3485L8.27382 31.7C8.72583 36.6721 10.7894 41.1726 13.9142 44.6512L15.7222 41.9194C14.6217 40.583 13.6783 39.0894 12.9708 37.4779L10.5339 37.8906L12.5778 36.5149C12.0668 35.1982 11.7131 33.7832 11.4969 32.3289V32.3485ZM13.6587 37.36C14.3072 38.7946 15.1327 40.1114 16.1153 41.3102L16.8031 40.2489C16.0563 39.2859 15.4078 38.2443 14.8772 37.1438L13.6587 37.36ZM13.4425 27.2977L12.1847 27.5532C12.3813 26.2954 12.6957 25.077 13.1281 23.9175L14.15 24.6053C13.8356 25.47 13.5997 26.3741 13.4425 27.2977ZM23.6816 13.2263C24.9001 12.7547 26.1972 12.4206 27.5336 12.2437L27.2781 13.5015C26.2758 13.6587 25.3128 13.9142 24.3695 14.2483L23.662 13.2067L23.6816 13.2263Z" fill="url(#paint0_linear_20_88)"/>
<path fill-rule="evenodd" clip-rule="evenodd" d="M32.3092 27.9464L32.2109 27.8481L32.1913 27.8284L32.093 27.7302C29.6757 25.3325 26.9833 23.1118 22.8758 19.9084L12.283 12.3027L19.8886 22.8956C23.092 27.003 25.3128 29.6955 27.7104 32.1128L27.8087 32.211L27.8283 32.2307L27.9266 32.3289C30.3439 34.7266 33.0363 36.9473 37.1438 40.1508L47.7366 47.7564L40.131 37.1635C36.9276 33.0561 34.7068 30.3637 32.3092 27.9464ZM18.4343 18.4541L24.6446 23.9372L29.3023 28.0643C29.0665 28.2215 28.8306 28.418 28.6144 28.6342C28.3983 28.8504 28.2017 29.0862 28.0445 29.3221L23.9174 24.6643L18.4343 18.4541ZM41.5853 41.6051L36.1022 35.3948L31.9751 30.7371C31.8178 30.9729 31.6213 31.2087 31.4051 31.4249C31.189 31.6411 30.9531 31.8376 30.7173 31.9948L35.375 36.1219L41.5853 41.6051ZM30.0098 29.1845C30.4815 29.1845 30.8549 29.5579 30.8549 30.0296C30.8549 30.5012 30.4815 30.8746 30.0098 30.8746C29.5381 30.8746 29.1647 30.5012 29.1647 30.0296C29.1647 29.5579 29.5381 29.1845 30.0098 29.1845Z" fill="white"/>
<path fill-rule="evenodd" clip-rule="evenodd" d="M18.4146 23.9371V38.7357L23.6422 45.5749C23.6422 40.131 23.6422 35.9843 23.6422 30.5208C22.0503 28.6735 20.4978 26.7868 19.0631 24.8412L19.0434 24.8019L18.4146 23.9175V23.9371ZM20.596 29.4203V38.8536L21.4607 40.1114V30.5012L20.596 29.4203Z" fill="white"/>
<path fill-rule="evenodd" clip-rule="evenodd" d="M41.5655 36.0826V21.4805L36.3379 14.6414C36.3379 20.0262 36.3379 24.0747 36.3379 29.4792C37.9298 31.3266 39.4823 33.2329 40.917 35.1785L40.9366 35.2178L41.5655 36.1022V36.0826ZM38.5193 20.0262V29.4596L39.3841 30.7173V21.1071L38.5193 20.0262Z" fill="white"/>
<defs>
<linearGradient id="paint0_linear_20_88" x1="20.5175" y1="38.7357" x2="39.4825" y2="21.2054" gradientUnits="userSpaceOnUse">
<stop stop-color="#EF4436"/>
<stop offset="1" stop-color="#FAAB40"/>
</linearGradient>
</defs>
</svg>
