<svg width="295" height="60" viewBox="0 0 295 60" fill="none" xmlns="http://www.w3.org/2000/svg">
<path d="M0 30.0295C0 38.1068 6.64265 43.6096 17.0586 43.6096C22.7973 43.6096 25.6666 42.7055 30.5601 39.4628V29.4989H17.0586V31.4641H28.4966V38.3623C24.3498 40.9368 21.8146 41.5264 17.0586 41.5264C7.99869 41.5264 2.29938 36.9276 2.29938 30.0295C2.29938 23.092 7.42876 18.5326 16.5673 18.5326C18.1199 18.5326 24.7232 18.7291 29.3613 20.3014V18.1592C27.4746 17.5107 22.3845 16.4691 16.3904 16.4691C5.97445 16.4691 0.0196528 21.9718 0.0196528 30.0491L0 30.0295ZM33.2722 43.2362H35.5323V34.1762H50.999L60.1376 43.2362H63.341L53.829 34.078C59.4497 33.3901 63.7537 29.8133 63.7537 25.5093C63.7537 20.4979 58.0937 16.6066 50.6256 16.6066C43.6882 16.6066 40.131 16.8425 33.2722 16.8425V43.2558V43.2362ZM35.5323 32.1913V18.906C40.5437 18.906 44.5136 18.6702 50.6649 18.6702C57.2683 18.6702 61.4543 22.0701 61.4543 25.529C61.4543 28.8896 57.4844 32.2109 51.8048 32.2109C46.3806 32.2109 38.2247 32.1716 35.5519 32.1716L35.5323 32.1913ZM66.4658 43.2362H92.4861V41.1923H68.7652V31.0121H90.226V29.0468H68.7652V18.8667H92.4861V16.8228H66.4658V43.2362ZM94.982 43.2362H121.002V41.1923H97.2814V31.0121H118.742V29.0468H97.2814V18.8667H121.002V16.8228H94.982V43.2362Z" fill="white"/>
<path d="M184.461 15.624L193.443 42.0373H198.808L205.49 18.0413H206.846L213.528 42.0373H218.893L227.874 15.624H225.378L217.38 39.8362H215.12L208.556 15.9974H203.8L197.236 39.8362H194.975L186.977 15.624H184.481H184.461ZM229.761 42.0373H232.06V15.624H229.761V42.0373ZM234.812 28.8307C234.812 36.9866 241.612 42.4107 252.165 42.4107C255.899 42.4107 259.928 41.6246 262.581 39.7773V37.1438C259.948 39.4039 255.938 40.3472 252.204 40.3472C243.046 40.3472 237.111 35.7878 237.111 28.8503C237.111 21.9129 242.968 17.3534 252.008 17.3534C255.742 17.3534 259.928 18.2575 262.561 20.5568V17.9234C259.928 16.076 255.663 15.2899 251.969 15.2899C241.513 15.2899 234.812 20.7141 234.812 28.87V28.8307ZM265.136 42.0373H267.435V29.8526H292.63V42.0373H294.93V15.624H292.63V27.8087H267.435V15.624H265.136V42.0373Z" fill="white"/>
<path fill-rule="evenodd" clip-rule="evenodd" d="M150.383 17.0783C149.46 17.3338 148.556 17.6679 147.711 18.1002L147.907 18.2378L147.946 18.2575L147.986 18.2968C149.499 17.5303 151.169 17.0586 152.938 16.9407L152.997 16.6656C152.093 16.7245 151.228 16.8621 150.383 17.0783ZM150.305 17.884L150.757 19.5545C150.776 19.5938 150.796 19.6331 150.855 19.6528C150.973 19.6135 151.071 19.5938 151.189 19.5545C151.209 19.5152 151.228 19.4759 151.228 19.4366L150.776 17.7661C150.619 17.8054 150.462 17.8447 150.324 17.884H150.305ZM156.81 17.7661L156.358 19.4366C156.338 19.5152 156.377 19.5938 156.456 19.6135L156.574 19.6331L156.653 19.6528C156.731 19.6725 156.81 19.6331 156.829 19.5545L157.281 17.884C157.124 17.8447 156.987 17.8054 156.829 17.7661H156.81ZM158.048 17.6482V17.3534C157.753 17.2552 157.478 17.1765 157.183 17.0979C156.338 16.8818 155.473 16.7245 154.569 16.6852L154.628 16.9604C155.827 17.039 156.967 17.2748 158.048 17.6679V17.6482ZM149.499 42.7055C149.774 42.8038 150.069 42.8824 150.364 42.961C151.209 43.1772 152.073 43.3344 152.977 43.3737L152.919 43.0986C151.72 43.02 150.58 42.7841 149.499 42.3911V42.6859V42.7055ZM154.569 43.3934C155.454 43.3344 156.338 43.1969 157.183 42.9807C158.107 42.7252 159.011 42.3911 159.856 41.9587L159.659 41.8212L159.62 41.8015L159.581 41.7622C158.068 42.5287 156.397 43.0003 154.628 43.1182L154.569 43.3934ZM157.242 42.1749L156.79 40.5044C156.77 40.4651 156.751 40.4258 156.692 40.4062C156.574 40.4455 156.476 40.4651 156.358 40.5044C156.338 40.5437 156.318 40.583 156.338 40.6223L156.79 42.2928C156.947 42.2535 157.105 42.2142 157.242 42.1749ZM150.737 42.2928L151.189 40.6223C151.209 40.5437 151.169 40.4651 151.091 40.4455L150.973 40.4258L150.894 40.4062C150.816 40.3865 150.737 40.4258 150.717 40.5044L150.265 42.1749C150.423 42.2142 150.56 42.2535 150.717 42.2928H150.737ZM167.678 33.2722C167.599 33.6063 167.501 33.9404 167.403 34.2548V38.4998L167.796 39.0501C168.189 38.4409 168.543 37.812 168.857 37.1634L170.075 37.3796C169.643 38.3426 169.112 39.2466 168.543 40.1114L168.975 40.7009C169.682 39.6987 170.292 38.6374 170.783 37.4975L173.22 37.9103L171.176 36.5346C171.687 35.2178 172.041 33.8028 172.257 32.3485L175.48 31.7C175.087 36.0825 173.436 40.1114 170.901 43.3737L171.392 44.0616C174.144 40.583 175.912 36.2594 176.286 31.5427L183.714 30.0295L176.286 28.5162C175.853 23.1903 173.652 18.3754 170.292 14.7003L172.571 11.2611L169.112 13.5015C165.418 10.0229 160.583 7.78251 155.257 7.42876L153.783 0L152.309 7.42876C147.573 7.7432 143.23 9.55126 139.732 12.3813L140.419 12.8726C143.701 10.2588 147.75 8.58827 152.152 8.25418L151.504 11.5165C149.971 11.7131 148.497 12.0865 147.101 12.6368L145.745 10.6125L146.099 13.0495C145.038 13.5408 144.035 14.1304 143.092 14.7986L143.682 15.2309C144.468 14.6806 145.313 14.1893 146.197 13.7766L146.394 15.0344C145.824 15.3292 145.274 15.6436 144.743 15.9777L146.924 17.55C148.064 16.9211 149.283 16.4494 150.58 16.1349C151.425 15.9384 152.29 15.8205 153.174 15.7812L153.803 11.5165L154.432 15.7812C155.316 15.8205 156.181 15.9384 157.026 16.1349C157.38 16.2136 157.733 16.3118 158.087 16.4297V14.6413V13.8356C157.576 13.698 157.046 13.5801 156.515 13.5015L156.26 12.2437C156.888 12.3223 157.498 12.4402 158.087 12.5974V11.8899C157.439 11.7327 156.79 11.6148 156.102 11.5362L155.454 8.27383C156.436 8.35244 157.439 8.50966 158.264 8.68654C162.136 9.51196 165.634 11.379 168.444 13.9928L165.693 15.7812C164.435 14.7199 163.04 13.8159 161.546 13.1281L162.529 14.4055C163.433 14.9165 164.298 15.5061 165.103 16.1743L164.298 16.7049L167.462 20.832V25.8238C167.56 26.1382 167.658 26.4723 167.737 26.8064C167.973 27.7301 168.11 28.5948 168.149 29.4399L172.296 30.0491L168.149 30.6584C168.11 31.5231 167.973 32.3878 167.737 33.2918L167.678 33.2722ZM160.622 42.509C159.483 43.1379 158.264 43.6096 156.967 43.924C156.122 44.1205 155.257 44.2385 154.373 44.2778L153.744 48.5424L153.115 44.2778C152.231 44.2385 151.366 44.1205 150.521 43.924C150.167 43.8454 149.813 43.7471 149.46 43.6292V45.5748V46.2037C149.971 46.3413 150.501 46.4592 151.032 46.5378L151.287 47.7956C150.658 47.717 150.049 47.5991 149.46 47.4419V48.1494C150.108 48.3066 150.776 48.4245 151.445 48.5031L152.093 51.7655C149.401 51.5689 146.905 50.9008 144.468 49.7216C142.503 48.7782 140.694 47.5205 139.103 46.0465L141.854 44.2581C143.053 45.2801 144.37 46.1251 145.804 46.813L144.782 45.4962C143.957 45.0246 143.19 44.4743 142.444 43.8651L143.171 43.3934L140.105 39.3842V34.2155C140.007 33.9011 139.908 33.567 139.83 33.2329C139.594 32.3092 139.456 31.4445 139.417 30.5994L135.27 29.9902L139.417 29.3809C139.456 28.5162 139.594 27.6515 139.83 26.7475C139.908 26.4134 140.007 26.0793 140.105 25.7648V21.5198L139.712 20.9695C139.319 21.5788 138.965 22.2077 138.651 22.8562L137.432 22.64C137.864 21.677 138.395 20.773 138.965 19.9083L138.533 19.3187C137.825 20.321 137.216 21.3822 136.725 22.5221L134.288 22.1094L136.332 23.4851C135.821 24.8215 135.467 26.2168 135.251 27.6515L132.028 28.3C132.421 23.9175 134.072 19.8886 136.607 16.6263L136.115 15.9384C133.364 19.417 131.595 23.7406 131.222 28.4573L123.793 29.9705L131.222 31.4838C131.654 36.8097 133.855 41.6246 137.216 45.2997L134.936 48.7389L138.395 46.4985C142.09 49.9771 146.924 52.2175 152.25 52.5712L153.724 60L155.198 52.5712C159.935 52.2568 164.278 50.4487 167.776 47.6187L167.088 47.1274C163.806 49.7412 159.758 51.4117 155.355 51.7458L156.004 48.4835C157.537 48.2869 159.011 47.9135 160.406 47.3633L161.762 49.3875L161.409 46.9505C162.47 46.4592 163.472 45.8696 164.415 45.2014L163.826 44.7691C163.04 45.3194 162.195 45.8107 161.31 46.2234L161.133 44.9656C161.703 44.6708 162.254 44.3564 162.784 44.0223L160.603 42.45L160.622 42.509ZM170.292 32.7612L171.549 32.5057C171.353 33.7635 171.038 34.982 170.606 36.1415L169.584 35.4537C169.899 34.5889 170.134 33.6849 170.292 32.7612ZM160.053 46.8326C158.834 47.3043 157.537 47.6384 156.201 47.8153L156.456 46.5575C157.458 46.4003 158.421 46.1448 159.365 45.8107L160.072 46.8523L160.053 46.8326ZM170.292 27.2977L171.549 27.5532C171.353 26.2954 171.038 25.077 170.606 23.9175L169.584 24.6053C169.899 25.47 170.134 26.3741 170.292 27.2977ZM172.257 27.6908L175.48 28.3393C175.028 23.3672 172.964 18.8667 169.84 15.3881L168.032 18.1199C169.132 19.4563 170.075 20.9499 170.783 22.5614L173.22 22.1487L171.176 23.5244C171.687 24.8608 172.041 26.2561 172.257 27.6908ZM170.095 22.6793C169.447 21.2447 168.621 19.9279 167.638 18.7291L166.951 19.7904C167.697 20.7534 168.346 21.795 168.877 22.8955L170.095 22.6793ZM137.255 32.7416L135.997 32.4861C136.194 33.7439 136.508 34.9623 136.941 36.1218L137.963 35.434C137.648 34.5693 137.412 33.6652 137.255 32.7416ZM135.29 32.3485L132.067 31.7C132.519 36.6721 134.582 41.1726 137.707 44.6512L139.515 41.9194C138.415 40.583 137.471 39.0894 136.764 37.4779L134.327 37.8906L136.371 36.5149C135.86 35.1982 135.506 33.7832 135.29 32.3289V32.3485ZM137.452 37.36C138.1 38.7946 138.926 40.1114 139.908 41.3102L140.596 40.2489C139.849 39.2859 139.201 38.2443 138.67 37.1438L137.452 37.36ZM137.236 27.2977L135.978 27.5532C136.174 26.2954 136.489 25.077 136.921 23.9175L137.943 24.6053C137.629 25.47 137.393 26.3741 137.236 27.2977ZM147.475 13.2263C148.693 12.7547 149.99 12.4206 151.327 12.2437L151.071 13.5015C150.069 13.6587 149.106 13.9142 148.163 14.2483L147.455 13.2067L147.475 13.2263Z" fill="url(#paint0_linear_3_28)"/>
<path fill-rule="evenodd" clip-rule="evenodd" d="M156.102 27.9463L156.004 27.848L155.984 27.8284L155.886 27.7301C153.469 25.3325 150.776 23.1117 146.669 19.9083L136.076 12.3027L143.682 22.8955C146.885 27.003 149.106 29.6954 151.503 32.1127L151.602 32.211L151.621 32.2306L151.72 32.3289C154.137 34.7265 156.829 36.9473 160.937 40.1507L171.53 47.7563L163.924 37.1635C160.721 33.056 158.5 30.3636 156.102 27.9463ZM142.227 18.454L148.438 23.9371L153.095 28.0642C152.86 28.2214 152.624 28.418 152.408 28.6341C152.191 28.8503 151.995 29.0862 151.838 29.322L147.711 24.6643L142.227 18.454ZM165.378 41.605L159.895 35.3947L155.768 30.737C155.611 30.9728 155.414 31.2087 155.198 31.4248C154.982 31.641 154.746 31.8376 154.51 31.9948L159.168 36.1219L165.378 41.605ZM153.803 29.1844C154.275 29.1844 154.648 29.5578 154.648 30.0295C154.648 30.5012 154.275 30.8746 153.803 30.8746C153.331 30.8746 152.958 30.5012 152.958 30.0295C152.958 29.5578 153.331 29.1844 153.803 29.1844Z" fill="white"/>
<path fill-rule="evenodd" clip-rule="evenodd" d="M142.208 23.9371V38.7357L147.435 45.5748C147.435 40.131 147.435 35.9843 147.435 30.5208C145.843 28.6734 144.291 26.7868 142.856 24.8411L142.837 24.8018L142.208 23.9174V23.9371ZM144.389 29.4202V38.8536L145.254 40.1114V30.5011L144.389 29.4202Z" fill="white"/>
<path fill-rule="evenodd" clip-rule="evenodd" d="M165.359 36.0825V21.4805L160.131 14.6413C160.131 20.0262 160.131 24.0747 160.131 29.4792C161.723 31.3266 163.275 33.2329 164.71 35.1785L164.73 35.2178L165.359 36.1022V36.0825ZM162.312 20.0262V29.4595L163.177 30.7173V21.1071L162.312 20.0262Z" fill="white"/>
<defs>
<linearGradient id="paint0_linear_3_28" x1="144.311" y1="38.7357" x2="163.276" y2="21.2054" gradientUnits="userSpaceOnUse">
<stop stop-color="#EF4436"/>
<stop offset="1" stop-color="#FAAB40"/>
</linearGradient>
</defs>
</svg>
