<svg width="26" height="25" viewBox="0 0 26 25" fill="none" xmlns="http://www.w3.org/2000/svg">
<path d="M25.0853 12.5412C25.0814 15.6067 23.9566 18.565 21.923 20.8588C19.8893 23.1525 17.0871 24.6235 14.0441 24.9947C13.9764 25.0023 13.9078 24.9956 13.8428 24.9748C13.7779 24.954 13.7181 24.9197 13.6673 24.8741C13.6166 24.8285 13.5762 24.7727 13.5486 24.7103C13.521 24.6479 13.507 24.5804 13.5074 24.5122V15.4357H16.4019C16.5342 15.436 16.6651 15.4091 16.7865 15.3566C16.9079 15.3042 17.0173 15.2274 17.1078 15.1309C17.1982 15.0344 17.2679 14.9204 17.3125 14.7958C17.357 14.6713 17.3755 14.5389 17.3667 14.407C17.3454 14.1589 17.231 13.928 17.0464 13.7609C16.8618 13.5937 16.6207 13.5027 16.3718 13.5061H13.5074V10.6116C13.5074 10.0998 13.7107 9.609 14.0726 9.24713C14.4345 8.88525 14.9253 8.68195 15.4371 8.68195H17.3667C17.499 8.68224 17.6299 8.65533 17.7513 8.6029C17.8728 8.55046 17.9821 8.47362 18.0726 8.37715C18.1631 8.28067 18.2327 8.16662 18.2773 8.04208C18.3218 7.91755 18.3403 7.78518 18.3315 7.65321C18.3102 7.40468 18.1954 7.1735 18.0103 7.00631C17.8252 6.83911 17.5836 6.74834 17.3342 6.7523H15.4371C14.4135 6.7523 13.4319 7.15891 12.7082 7.88266C11.9844 8.60642 11.5778 9.58804 11.5778 10.6116V13.5061H8.68334C8.55107 13.5058 8.42016 13.5327 8.29873 13.5851C8.1773 13.6375 8.06795 13.7144 7.97747 13.8109C7.88699 13.9073 7.81731 14.0214 7.77276 14.1459C7.72822 14.2704 7.70975 14.4028 7.71851 14.5348C7.73985 14.7833 7.85466 15.0145 8.03976 15.1817C8.22486 15.3489 8.46649 15.4397 8.7159 15.4357H11.5778V24.5147C11.5782 24.5827 11.5642 24.6501 11.5367 24.7124C11.5092 24.7747 11.4689 24.8304 11.4183 24.876C11.3677 24.9216 11.3081 24.9559 11.2433 24.9768C11.1785 24.9976 11.11 25.0046 11.0423 24.9971C7.91794 24.6166 5.05026 23.077 3.0069 20.683C0.963541 18.2889 -0.106566 15.215 0.0083874 12.0697C0.249593 5.55713 5.52475 0.262676 12.0421 0.00941038C13.7295 -0.055949 15.4126 0.219682 16.991 0.819817C18.5694 1.41995 20.0105 2.33226 21.2281 3.50218C22.4458 4.67209 23.415 6.07558 24.0777 7.62869C24.7405 9.1818 25.0832 10.8526 25.0853 12.5412Z" fill="#EF4436"/>
</svg>
