<svg width="26" height="25" viewBox="0 0 26 25" fill="none" xmlns="http://www.w3.org/2000/svg">
<path d="M18.3313 0H6.75363C4.96304 0.00190892 3.24634 0.711655 1.98021 1.97351C0.714072 3.23536 0.00191541 4.94624 0 6.73077V18.2692C0.00191541 20.0538 0.714072 21.7646 1.98021 23.0265C3.24634 24.2883 4.96304 24.9981 6.75363 25H18.3313C20.1219 24.9981 21.8386 24.2883 23.1047 23.0265C24.3708 21.7646 25.083 20.0538 25.0849 18.2692V6.73077C25.083 4.94624 24.3708 3.23536 23.1047 1.97351C21.8386 0.711655 20.1219 0.00190892 18.3313 0ZM12.5425 18.2692C11.3975 18.2692 10.2783 17.9309 9.32635 17.2969C8.37439 16.663 7.63242 15.762 7.19428 14.7078C6.75613 13.6536 6.6415 12.4936 6.86486 11.3745C7.08822 10.2554 7.63955 9.22738 8.44914 8.42054C9.25872 7.6137 10.2902 7.06423 11.4131 6.84162C12.536 6.61902 13.7 6.73327 14.7577 7.16993C15.8155 7.60659 16.7196 8.34604 17.3557 9.29479C17.9918 10.2435 18.3313 11.359 18.3313 12.5C18.3297 14.0296 17.7193 15.4961 16.634 16.5777C15.5487 17.6593 14.0773 18.2676 12.5425 18.2692ZM19.7785 6.73077C19.4923 6.73077 19.2124 6.64618 18.9745 6.4877C18.7365 6.32921 18.551 6.10396 18.4414 5.84041C18.3319 5.57686 18.3032 5.28686 18.3591 5.00708C18.4149 4.7273 18.5528 4.47031 18.7552 4.2686C18.9575 4.06689 19.2154 3.92952 19.4961 3.87387C19.7769 3.81822 20.0679 3.84678 20.3323 3.95594C20.5967 4.06511 20.8228 4.24997 20.9818 4.48716C21.1408 4.72434 21.2257 5.0032 21.2257 5.28846C21.2257 5.67099 21.0732 6.03784 20.8018 6.30833C20.5304 6.57881 20.1623 6.73077 19.7785 6.73077ZM16.4017 12.5C16.4017 13.2607 16.1753 14.0043 15.7513 14.6368C15.3272 15.2693 14.7245 15.7623 14.0193 16.0534C13.3141 16.3445 12.5382 16.4207 11.7896 16.2723C11.0409 16.1238 10.3533 15.7575 9.81357 15.2196C9.27385 14.6817 8.9063 13.9964 8.75739 13.2503C8.60848 12.5043 8.68491 11.7309 8.977 11.0281C9.2691 10.3253 9.76374 9.72466 10.3984 9.30204C11.033 8.87942 11.7792 8.65385 12.5425 8.65385C13.566 8.65385 14.5476 9.05906 15.2713 9.78036C15.9951 10.5017 16.4017 11.4799 16.4017 12.5Z" fill="#EF4436"/>
</svg>
