<svg width="33" height="25" viewBox="0 0 33 25" fill="none" xmlns="http://www.w3.org/2000/svg">
<path d="M31.25 0H1.25C0.918479 0 0.600537 0.131696 0.366116 0.366117C0.131696 0.600537 0 0.918479 0 1.25V22.5C0 23.163 0.263392 23.7989 0.732233 24.2678C1.20107 24.7366 1.83696 25 2.5 25H30C30.663 25 31.2989 24.7366 31.7678 24.2678C32.2366 23.7989 32.5 23.163 32.5 22.5V1.25C32.5 0.918479 32.3683 0.600537 32.1339 0.366117C31.8995 0.131696 31.5815 0 31.25 0ZM11.6734 12.5L2.5 20.9078V4.09219L11.6734 12.5ZM13.5234 14.1953L15.3984 15.9219C15.6291 16.1336 15.9307 16.251 16.2437 16.251C16.5568 16.251 16.8584 16.1336 17.0891 15.9219L18.9641 14.1953L28.0266 22.5H4.46406L13.5234 14.1953ZM20.8266 12.5L30 4.09063V20.9094L20.8266 12.5Z" fill="#EF4436"/>
</svg>
