<svg width="25" height="25" viewBox="0 0 25 25" fill="none" xmlns="http://www.w3.org/2000/svg">
<path d="M24.9853 18.8849C24.7624 20.5787 23.9305 22.1335 22.6451 23.2588C21.3597 24.3841 19.7086 25.0031 18.0002 25C8.07509 25 1.13109e-05 16.9249 1.13109e-05 6.99981C-0.00305119 5.29141 0.615876 3.64031 1.74119 2.35489C2.86651 1.06947 4.42127 0.237633 6.11507 0.0147472C6.54339 -0.0375522 6.97714 0.0500749 7.35157 0.264548C7.72599 0.47902 8.02101 0.808836 8.19259 1.20476L10.8326 7.09857V7.11357C10.964 7.41664 11.0182 7.74752 10.9905 8.07667C10.9628 8.40582 10.854 8.72298 10.6739 8.99983C10.6514 9.03358 10.6276 9.06483 10.6026 9.09608L8.00009 12.1811C8.93635 14.0836 10.9264 16.0562 12.8539 16.9949L15.8964 14.4061C15.9263 14.381 15.9576 14.3576 15.9902 14.3361C16.2668 14.1516 16.585 14.039 16.9161 14.0085C17.2472 13.9779 17.5807 14.0304 17.8864 14.1611L17.9027 14.1686L23.7915 16.8074C24.1881 16.9784 24.5187 17.2731 24.7339 17.6476C24.9491 18.0221 25.0373 18.4562 24.9853 18.8849Z" fill="#EF4436"/>
</svg>
