<svg width="28" height="25" viewBox="0 0 28 25" fill="none" xmlns="http://www.w3.org/2000/svg">
<path d="M27.6111 0.273523C27.4561 0.139732 27.2676 0.0507521 27.0658 0.0161697C26.8641 -0.0184127 26.6567 0.00271315 26.466 0.0772712L1.13331 9.99111C0.774292 10.1307 0.470338 10.3832 0.267212 10.7105C0.0640861 11.0378 -0.027217 11.4222 0.00704798 11.8059C0.041313 12.1896 0.199292 12.5518 0.4572 12.8379C0.715109 13.124 1.05899 13.3186 1.43707 13.3924L8.00088 14.6812V22C7.99959 22.3986 8.11805 22.7885 8.34093 23.119C8.56381 23.4495 8.88082 23.7055 9.25089 23.8537C9.62038 24.0046 10.0267 24.0408 10.4171 23.9577C10.8074 23.8745 11.1637 23.6759 11.4397 23.3875L14.6047 20.105L19.626 24.5C19.9883 24.8213 20.4555 24.9992 20.9397 25C21.152 24.9998 21.3628 24.9665 21.5648 24.9013C21.8947 24.7966 22.1914 24.6073 22.4255 24.3522C22.6595 24.0971 22.8226 23.7852 22.8985 23.4475L27.9723 1.37478C28.0177 1.17572 28.0081 0.968055 27.9444 0.774053C27.8808 0.580051 27.7655 0.407026 27.6111 0.273523ZM20.9422 23L10.6072 13.9374L25.4823 3.27605L20.9422 23Z" fill="#EF4436"/>
</svg>
