<svg width="26" height="25" viewBox="0 0 26 25" fill="none" xmlns="http://www.w3.org/2000/svg">
<path d="M15.4558 14.5672L18.2205 15.9471C18.0894 16.602 17.7353 17.191 17.2184 17.6139C16.7015 18.0367 16.0539 18.2672 15.3861 18.2659C13.0915 18.2633 10.8916 17.3507 9.26912 15.7281C7.64661 14.1056 6.73396 11.9058 6.73141 9.61118C6.73123 8.94419 6.96216 8.29774 7.38492 7.78185C7.80767 7.26595 8.39613 6.91248 9.05015 6.78158L10.4301 9.54627L9.2557 11.294C9.16794 11.4257 9.11402 11.5769 9.09871 11.7344C9.0834 11.8919 9.10718 12.0507 9.16795 12.1968C9.85598 13.832 11.1569 15.1329 12.7921 15.8209C12.9386 15.8844 13.0986 15.9103 13.2577 15.8965C13.4168 15.8826 13.5699 15.8294 13.7032 15.7416L15.4558 14.5672ZM25.0024 12.4961C25.0029 14.6544 24.4445 16.776 23.3818 18.6545C22.319 20.533 20.788 22.1044 18.9378 23.2156C17.0875 24.3269 14.9811 24.9402 12.8235 24.9958C10.6659 25.0515 8.53069 24.5476 6.62564 23.5332L2.53269 24.8975C2.19382 25.0105 1.83017 25.0269 1.48251 24.9449C1.13484 24.8628 0.81689 24.6856 0.564298 24.433C0.311707 24.1804 0.134453 23.8624 0.0524059 23.5148C-0.0296417 23.1671 -0.0132413 22.8034 0.0997688 22.4646L1.46408 18.3716C0.572349 16.6951 0.0742824 14.8374 0.00768985 12.9396C-0.0589028 11.0418 0.307729 9.15377 1.07975 7.41882C1.85178 5.68388 3.00891 4.14761 4.46331 2.92663C5.91771 1.70566 7.63116 0.832064 9.47359 0.372162C11.316 -0.0877398 13.239 -0.121862 15.0966 0.272385C16.9542 0.666632 18.6975 1.47889 20.1943 2.64749C21.6911 3.8161 22.9021 5.31035 23.7351 7.01681C24.5682 8.72328 25.0016 10.5971 25.0024 12.4961ZM20.1942 15.381C20.1944 15.2023 20.1447 15.0272 20.0509 14.8751C19.957 14.7231 19.8227 14.6002 19.6629 14.5203L15.8164 12.597C15.665 12.5216 15.4964 12.4874 15.3275 12.498C15.1587 12.5085 14.9956 12.5634 14.8548 12.6571L13.089 13.8351C12.2784 13.3895 11.6113 12.7225 11.1657 11.9119L12.3437 10.1461C12.4375 10.0052 12.4924 9.84218 12.5029 9.67334C12.5135 9.5045 12.4793 9.33587 12.4038 9.18446L10.4806 5.33793C10.4009 5.17694 10.2776 5.04151 10.1249 4.94696C9.97213 4.85242 9.79595 4.80256 9.61631 4.80303C8.34111 4.80303 7.11813 5.3096 6.21643 6.2113C5.31473 7.113 4.80815 8.33598 4.80815 9.61118C4.81133 12.4156 5.92681 15.1043 7.90987 17.0874C9.89293 19.0705 12.5816 20.1859 15.3861 20.1891C16.0175 20.1891 16.6427 20.0647 17.2261 19.8231C17.8094 19.5815 18.3395 19.2273 18.786 18.7808C19.2324 18.3344 19.5866 17.8043 19.8282 17.221C20.0699 16.6376 20.1942 16.0124 20.1942 15.381Z" fill="#EF4436"/>
</svg>
